<svg width="65" height="62" viewBox="0 0 65 62" fill="none" xmlns="http://www.w3.org/2000/svg">
<circle cx="48.8512" cy="16.1457" r="16.1457" fill="#7C7C7C"/>
<circle cx="48.8512" cy="45.8542" r="16.1457" fill="#7C7C7C"/>
<circle cx="16.5622" cy="16.1457" r="16.1457" fill="#7C7C7C"/>
<circle cx="16.5622" cy="45.8542" r="16.1457" fill="#7C7C7C"/>
<rect x="16.5649" y="14.2085" width="32.2914" height="32.2914" fill="#00B1B8"/>
<path fill-rule="evenodd" clip-rule="evenodd" d="M32.7106 14.6167C32.4941 23.3451 25.3506 30.3543 16.57 30.3543L16.5649 30.3543V30.3543C16.5649 30.3543 16.5649 30.3544 16.5649 30.3544C16.5666 30.3544 16.5683 30.3544 16.57 30.3544C25.3506 30.3544 32.4941 37.3635 32.7106 46.0919C32.9272 37.3635 40.0707 30.3544 48.8512 30.3544L48.8563 30.3544V30.3543V30.3543L48.8512 30.3543C40.0707 30.3543 32.9272 23.3451 32.7106 14.6167Z" fill="#7C7C7C"/>
</svg>
