<svg width="48" height="47" viewBox="0 0 48 47" fill="none" xmlns="http://www.w3.org/2000/svg">
<path fill-rule="evenodd" clip-rule="evenodd" d="M0.866977 22.7545C1.46906 22.6964 2.07812 22.6615 2.69328 22.6507C15.3028 22.4306 25.7074 32.447 25.966 45.0372C25.3639 45.0954 24.7548 45.1303 24.1397 45.141C11.5301 45.3611 1.12556 35.3447 0.866977 22.7545Z" fill="#00B1B8"/>
<path fill-rule="evenodd" clip-rule="evenodd" d="M0.866977 2.17931C1.46906 2.12116 2.07812 2.08626 2.69328 2.07552C15.3028 1.85542 25.7074 11.8718 25.966 24.462C25.3639 24.5202 24.7548 24.5551 24.1397 24.5658C11.5301 24.7859 1.12556 14.7695 0.866977 2.17931Z" fill="#00B1B8"/>
<path fill-rule="evenodd" clip-rule="evenodd" d="M22.9812 44.9975C28.7838 45.5332 34.7912 43.8644 39.6395 39.8609C45.0148 35.422 47.8415 29.0413 47.9421 22.5775C42.1395 22.0417 36.1321 23.7106 31.2838 27.7141C25.9085 32.1529 23.0818 38.5337 22.9812 44.9975Z" fill="#00B1B8"/>
<path fill-rule="evenodd" clip-rule="evenodd" d="M22.9812 24.4223C28.7838 24.9581 34.7912 23.2892 39.6395 19.2857C45.0148 14.8468 47.8415 8.4661 47.9421 2.00231C42.1395 1.46654 36.1321 3.13536 31.2838 7.13892C25.9085 11.5777 23.0818 17.9585 22.9812 24.4223Z" fill="#7C7C7C"/>
</svg>
