<svg width="20" height="16" viewBox="0 0 20 16" fill="none" xmlns="http://www.w3.org/2000/svg">
  <mask id="mask0_2733_524" style="mask-type:luminance" maskUnits="userSpaceOnUse" x="0" y="0" width="20" height="16">
  <path d="M18.5714 0.857422H1.42857C0.639593 0.857422 0 1.49702 0 2.28599V13.7146C0 14.5035 0.639593 15.1431 1.42857 15.1431H18.5714C19.3604 15.1431 20 14.5035 20 13.7146V2.28599C20 1.49702 19.3604 0.857422 18.5714 0.857422Z" fill="white"/>
  </mask>
  <g mask="url(#mask0_2733_524)">
  <path d="M18.5686 1.03613H1.42578C0.735425 1.03613 0.175781 1.59578 0.175781 2.28613V13.7147C0.175781 14.4051 0.735425 14.9647 1.42578 14.9647H18.5686C19.259 14.9647 19.8186 14.4051 19.8186 13.7147V2.28613C19.8186 1.59578 19.259 1.03613 18.5686 1.03613Z" fill="white" stroke="#F5F5F5" stroke-width="0.357143"/>
  <mask id="mask1_2733_524" style="mask-type:alpha" maskUnits="userSpaceOnUse" x="-1" y="0" width="21" height="16">
  <path d="M18.5589 1.03613H1.41602C0.72566 1.03613 0.166016 1.59578 0.166016 2.28613V13.7147C0.166016 14.4051 0.72566 14.9647 1.41602 14.9647H18.5589C19.2492 14.9647 19.8089 14.4051 19.8089 13.7147V2.28613C19.8089 1.59578 19.2492 1.03613 18.5589 1.03613Z" fill="white" stroke="white" stroke-width="0.357143"/>
  </mask>
  <g mask="url(#mask1_2733_524)">
  <path fill-rule="evenodd" clip-rule="evenodd" d="M-0.00292969 10.381H19.9971V5.61914H-0.00292969V10.381Z" fill="#0C47B7"/>
  <path fill-rule="evenodd" clip-rule="evenodd" d="M-0.00292969 15.1428H19.9971V10.3809H-0.00292969V15.1428Z" fill="#E53B35"/>
  </g>
  </g>
</svg>
