<svg width="52" height="51" viewBox="0 0 52 51" fill="none" xmlns="http://www.w3.org/2000/svg">
<path d="M44.1357 0.00488281C43.5565 0.00488281 43.0859 0.472605 43.0859 1.05133C43.0859 1.63148 43.5565 2.1011 44.1357 2.1011C44.7139 2.1011 45.1845 1.631 45.1845 1.05133C45.1845 0.472131 44.7139 0.00488281 44.1357 0.00488281Z" fill="#BABABA"/>
<path d="M44.1357 6.1001C43.5565 6.1001 43.0859 6.57019 43.0859 7.14986C43.0859 7.72811 43.5565 8.19631 44.1357 8.19631C44.7139 8.19631 45.1845 7.72811 45.1845 7.14986C45.1845 6.57019 44.7139 6.1001 44.1357 6.1001Z" fill="#BABABA"/>
<path d="M44.1357 12.1973C43.5565 12.1973 43.0859 12.665 43.0859 13.2447C43.0859 13.8243 43.5565 14.2925 44.1357 14.2925C44.7139 14.2925 45.1845 13.8239 45.1845 13.2447C45.1845 12.665 44.7139 12.1973 44.1357 12.1973Z" fill="#BABABA"/>
<path d="M44.1357 18.2935C43.5565 18.2935 43.0859 18.7621 43.0859 19.3413C43.0859 19.921 43.5565 20.3887 44.1357 20.3887C44.7139 20.3887 45.1845 19.921 45.1845 19.3413C45.1845 18.7626 44.7139 18.2935 44.1357 18.2935Z" fill="#BABABA"/>
<path d="M44.1357 24.3906C43.5565 24.3906 43.0859 24.8583 43.0859 25.4375C43.0859 26.0172 43.5565 26.4849 44.1357 26.4849C44.7139 26.4849 45.1845 26.0177 45.1845 25.4375C45.1845 24.8583 44.7139 24.3906 44.1357 24.3906Z" fill="#BABABA"/>
<path d="M44.1357 30.4873C43.5565 30.4873 43.0859 30.955 43.0859 31.5347C43.0859 32.1115 43.5565 32.584 44.1357 32.584C44.7139 32.584 45.1845 32.1111 45.1845 31.5347C45.1845 30.955 44.7139 30.4873 44.1357 30.4873Z" fill="#BABABA"/>
<path d="M44.1357 36.5825C43.5565 36.5825 43.0859 37.0521 43.0859 37.6318C43.0859 38.2091 43.5565 38.6792 44.1357 38.6792C44.7139 38.6792 45.1845 38.2091 45.1845 37.6318C45.1845 37.0526 44.7139 36.5825 44.1357 36.5825Z" fill="#BABABA"/>
<path d="M44.1357 42.6807C43.5565 42.6807 43.0859 43.1479 43.0859 43.7271C43.0859 44.3068 43.5565 44.7764 44.1357 44.7764C44.7139 44.7764 45.1845 44.3063 45.1845 43.7271C45.1845 43.1479 44.7139 42.6807 44.1357 42.6807Z" fill="#BABABA"/>
<path d="M44.1357 48.7754C43.5565 48.7754 43.0859 49.2431 43.0859 49.8223C43.0859 50.4015 43.5565 50.8716 44.1357 50.8716C44.7139 50.8716 45.1845 50.401 45.1845 49.8223C45.1845 49.2431 44.7139 48.7754 44.1357 48.7754Z" fill="#BABABA"/>
<path d="M50.2344 2.1011C50.8126 2.1011 51.2827 1.631 51.2827 1.05133C51.2827 0.472605 50.8126 0.00488281 50.2344 0.00488281C49.6528 0.00488281 49.1875 0.472605 49.1875 1.05133C49.1875 1.631 49.6533 2.1011 50.2344 2.1011Z" fill="#BABABA"/>
<path d="M50.2344 6.1001C49.6528 6.1001 49.1875 6.57019 49.1875 7.14986C49.1875 7.72811 49.6528 8.19631 50.2344 8.19631C50.8126 8.19631 51.2827 7.72811 51.2827 7.14986C51.2827 6.57019 50.8126 6.1001 50.2344 6.1001Z" fill="#BABABA"/>
<path d="M50.2344 12.1978C49.6528 12.1978 49.1875 12.6655 49.1875 13.2451C49.1875 13.8248 49.6528 14.293 50.2344 14.293C50.8126 14.293 51.2827 13.8243 51.2827 13.2451C51.2827 12.6655 50.8126 12.1978 50.2344 12.1978Z" fill="#BABABA"/>
<path d="M50.2344 18.2935C49.6528 18.2935 49.1875 18.7621 49.1875 19.3413C49.1875 19.921 49.6528 20.3887 50.2344 20.3887C50.8126 20.3887 51.2827 19.921 51.2827 19.3413C51.2827 18.7626 50.8126 18.2935 50.2344 18.2935Z" fill="#BABABA"/>
<path d="M50.2344 24.3906C49.6528 24.3906 49.1875 24.8583 49.1875 25.4375C49.1875 26.0172 49.6528 26.4849 50.2344 26.4849C50.8126 26.4849 51.2827 26.0177 51.2827 25.4375C51.2827 24.8583 50.8126 24.3906 50.2344 24.3906Z" fill="#BABABA"/>
<path d="M50.2344 30.4868C49.6528 30.4868 49.1875 30.9545 49.1875 31.5342C49.1875 32.111 49.6528 32.5835 50.2344 32.5835C50.8126 32.5835 51.2827 32.1106 51.2827 31.5342C51.2827 30.9545 50.8126 30.4868 50.2344 30.4868Z" fill="#BABABA"/>
<path d="M50.2344 36.5825C49.6528 36.5825 49.1875 37.0521 49.1875 37.6318C49.1875 38.2091 49.6528 38.6792 50.2344 38.6792C50.8126 38.6792 51.2827 38.2091 51.2827 37.6318C51.2827 37.0526 50.8126 36.5825 50.2344 36.5825Z" fill="#BABABA"/>
<path d="M50.2344 42.6807C49.6528 42.6807 49.1875 43.1479 49.1875 43.7271C49.1875 44.3068 49.6528 44.7764 50.2344 44.7764C50.8126 44.7764 51.2827 44.3063 51.2827 43.7271C51.2827 43.1479 50.8126 42.6807 50.2344 42.6807Z" fill="#BABABA"/>
<path d="M50.2344 48.7754C49.6528 48.7754 49.1875 49.2431 49.1875 49.8223C49.1875 50.4015 49.6528 50.8716 50.2344 50.8716C50.8126 50.8716 51.2827 50.401 51.2827 49.8223C51.2827 49.2431 50.8126 48.7754 50.2344 48.7754Z" fill="#BABABA"/>
<path d="M1.44678 0.00488281C0.868536 0.00488281 0.398438 0.472605 0.398438 1.05133C0.398438 1.63148 0.868536 2.1011 1.44678 2.1011C2.02502 2.1011 2.49369 1.631 2.49369 1.05133C2.49321 0.472131 2.02502 0.00488281 1.44678 0.00488281Z" fill="#BABABA"/>
<path d="M1.44678 6.1001C0.868536 6.1001 0.398438 6.57019 0.398438 7.14986C0.398438 7.72811 0.868536 8.19631 1.44678 8.19631C2.02502 8.19631 2.49369 7.72811 2.49369 7.14986C2.49321 6.57019 2.02502 6.1001 1.44678 6.1001Z" fill="#BABABA"/>
<path d="M1.44678 12.1973C0.868536 12.1973 0.398438 12.665 0.398438 13.2447C0.398438 13.8243 0.868536 14.2925 1.44678 14.2925C2.02502 14.2925 2.49369 13.8239 2.49369 13.2447C2.49321 12.665 2.02502 12.1973 1.44678 12.1973Z" fill="#BABABA"/>
<path d="M1.44678 18.2935C0.868536 18.2935 0.398438 18.7621 0.398438 19.3413C0.398438 19.921 0.868536 20.3887 1.44678 20.3887C2.02502 20.3887 2.49369 19.921 2.49369 19.3413C2.49321 18.7626 2.02502 18.2935 1.44678 18.2935Z" fill="#BABABA"/>
<path d="M1.44678 24.3906C0.868536 24.3906 0.398438 24.8583 0.398438 25.4375C0.398438 26.0172 0.868536 26.4849 1.44678 26.4849C2.02502 26.4849 2.49369 26.0177 2.49369 25.4375C2.49321 24.8583 2.02502 24.3906 1.44678 24.3906Z" fill="#BABABA"/>
<path d="M1.44678 30.4873C0.868536 30.4873 0.398438 30.955 0.398438 31.5347C0.398438 32.1115 0.868536 32.584 1.44678 32.584C2.02502 32.584 2.49369 32.1111 2.49369 31.5347C2.49321 30.955 2.02502 30.4873 1.44678 30.4873Z" fill="#BABABA"/>
<path d="M1.44678 36.5825C0.868536 36.5825 0.398438 37.0521 0.398438 37.6318C0.398438 38.2091 0.868536 38.6792 1.44678 38.6792C2.02502 38.6792 2.49369 38.2091 2.49369 37.6318C2.49321 37.0526 2.02502 36.5825 1.44678 36.5825Z" fill="#BABABA"/>
<path d="M1.44678 42.6807C0.868536 42.6807 0.398438 43.1479 0.398438 43.7271C0.398438 44.3068 0.868536 44.7764 1.44678 44.7764C2.02502 44.7764 2.49369 44.3063 2.49369 43.7271C2.49321 43.1479 2.02502 42.6807 1.44678 42.6807Z" fill="#BABABA"/>
<path d="M1.44678 48.7754C0.868536 48.7754 0.398438 49.2431 0.398438 49.8223C0.398438 50.4015 0.868536 50.8716 1.44678 50.8716C2.02502 50.8716 2.49369 50.401 2.49369 49.8223C2.49321 49.2431 2.02502 48.7754 1.44678 48.7754Z" fill="#BABABA"/>
<path d="M7.54051 0.00488281C6.96085 0.00488281 6.49219 0.472605 6.49219 1.05133C6.49219 1.63148 6.96085 2.1011 7.54051 2.1011C8.11876 2.1011 8.5898 1.631 8.5898 1.05133C8.5898 0.472131 8.11876 0.00488281 7.54051 0.00488281Z" fill="#BABABA"/>
<path d="M7.54833 6.1001C6.96866 6.1001 6.5 6.57019 6.5 7.14986C6.5 7.72811 6.96866 8.19631 7.54833 8.19631C8.12657 8.19631 8.59761 7.72811 8.59761 7.14986C8.59761 6.57019 8.12657 6.1001 7.54833 6.1001Z" fill="#BABABA"/>
<path d="M7.54833 12.1978C6.96866 12.1978 6.5 12.6655 6.5 13.2451C6.5 13.8248 6.96866 14.293 7.54833 14.293C8.12657 14.293 8.59761 13.8243 8.59761 13.2451C8.59761 12.6655 8.12657 12.1978 7.54833 12.1978Z" fill="#BABABA"/>
<path d="M7.54833 18.2935C6.96866 18.2935 6.5 18.7621 6.5 19.3413C6.5 19.921 6.96866 20.3887 7.54833 20.3887C8.12657 20.3887 8.59761 19.921 8.59761 19.3413C8.59761 18.7626 8.12657 18.2935 7.54833 18.2935Z" fill="#BABABA"/>
<path d="M7.54833 24.3906C6.96866 24.3906 6.5 24.8583 6.5 25.4375C6.5 26.0172 6.96866 26.4849 7.54833 26.4849C8.12657 26.4849 8.59761 26.0177 8.59761 25.4375C8.59761 24.8583 8.12657 24.3906 7.54833 24.3906Z" fill="#BABABA"/>
<path d="M7.54833 30.4868C6.96866 30.4868 6.5 30.9545 6.5 31.5342C6.5 32.111 6.96866 32.5835 7.54833 32.5835C8.12657 32.5835 8.59761 32.1106 8.59761 31.5342C8.59761 30.9545 8.12657 30.4868 7.54833 30.4868Z" fill="#BABABA"/>
<path d="M7.54833 36.5825C6.96866 36.5825 6.5 37.0521 6.5 37.6318C6.5 38.2091 6.96866 38.6792 7.54833 38.6792C8.12657 38.6792 8.59761 38.2091 8.59761 37.6318C8.59761 37.0526 8.12657 36.5825 7.54833 36.5825Z" fill="#BABABA"/>
<path d="M7.54833 42.6807C6.96866 42.6807 6.5 43.1479 6.5 43.7271C6.5 44.3068 6.96866 44.7764 7.54833 44.7764C8.12657 44.7764 8.59761 44.3063 8.59761 43.7271C8.59761 43.1479 8.12657 42.6807 7.54833 42.6807Z" fill="#BABABA"/>
<path d="M7.54833 48.7754C6.96866 48.7754 6.5 49.2431 6.5 49.8223C6.5 50.4015 6.96866 50.8716 7.54833 50.8716C8.12657 50.8716 8.59761 50.401 8.59761 49.8223C8.59761 49.2431 8.12657 48.7754 7.54833 48.7754Z" fill="#BABABA"/>
<path d="M13.6411 0.00488281C13.0624 0.00488281 12.5938 0.472605 12.5938 1.05133C12.5938 1.63148 13.0624 2.1011 13.6411 2.1011C14.2217 2.1011 14.6904 1.631 14.6904 1.05133C14.6904 0.472131 14.2213 0.00488281 13.6411 0.00488281Z" fill="#BABABA"/>
<path d="M13.6411 6.1001C13.0624 6.1001 12.5938 6.57019 12.5938 7.14986C12.5938 7.72811 13.0624 8.19631 13.6411 8.19631C14.2217 8.19631 14.6904 7.72811 14.6904 7.14986C14.6904 6.57019 14.2213 6.1001 13.6411 6.1001Z" fill="#BABABA"/>
<path d="M13.6411 12.1978C13.0624 12.1978 12.5938 12.6655 12.5938 13.2451C12.5938 13.8248 13.0624 14.293 13.6411 14.293C14.2217 14.293 14.6904 13.8243 14.6904 13.2451C14.6904 12.6655 14.2213 12.1978 13.6411 12.1978Z" fill="#BABABA"/>
<path d="M13.6411 18.2935C13.0624 18.2935 12.5938 18.7621 12.5938 19.3413C12.5938 19.921 13.0624 20.3887 13.6411 20.3887C14.2217 20.3887 14.6904 19.921 14.6904 19.3413C14.6904 18.7626 14.2213 18.2935 13.6411 18.2935Z" fill="#BABABA"/>
<path d="M13.6411 24.3906C13.0624 24.3906 12.5938 24.8583 12.5938 25.4375C12.5938 26.0172 13.0624 26.4849 13.6411 26.4849C14.2217 26.4849 14.6904 26.0177 14.6904 25.4375C14.6904 24.8583 14.2213 24.3906 13.6411 24.3906Z" fill="#BABABA"/>
<path d="M13.6411 30.4868C13.0624 30.4868 12.5938 30.9545 12.5938 31.5342C12.5938 32.111 13.0624 32.5835 13.6411 32.5835C14.2217 32.5835 14.6904 32.1106 14.6904 31.5342C14.6904 30.9545 14.2213 30.4868 13.6411 30.4868Z" fill="#BABABA"/>
<path d="M13.6411 36.5825C13.0624 36.5825 12.5938 37.0521 12.5938 37.6318C12.5938 38.2091 13.0624 38.6792 13.6411 38.6792C14.2217 38.6792 14.6904 38.2091 14.6904 37.6318C14.6904 37.0526 14.2213 36.5825 13.6411 36.5825Z" fill="#BABABA"/>
<path d="M13.6411 42.6807C13.0624 42.6807 12.5938 43.1479 12.5938 43.7271C12.5938 44.3068 13.0624 44.7764 13.6411 44.7764C14.2217 44.7764 14.6904 44.3063 14.6904 43.7271C14.6904 43.1479 14.2213 42.6807 13.6411 42.6807Z" fill="#BABABA"/>
<path d="M13.6411 48.7754C13.0624 48.7754 12.5938 49.2431 12.5938 49.8223C12.5938 50.4015 13.0624 50.8716 13.6411 50.8716C14.2217 50.8716 14.6904 50.401 14.6904 49.8223C14.6904 49.2431 14.2213 48.7754 13.6411 48.7754Z" fill="#BABABA"/>
<path d="M19.7451 0.00488281C19.1663 0.00488281 18.6953 0.472605 18.6953 1.05133C18.6953 1.63148 19.1663 2.1011 19.7451 2.1011C20.3233 2.1011 20.7915 1.631 20.7915 1.05133C20.7915 0.472131 20.3233 0.00488281 19.7451 0.00488281Z" fill="#BABABA"/>
<path d="M19.7451 6.1001C19.1663 6.1001 18.6953 6.57019 18.6953 7.14986C18.6953 7.72811 19.1663 8.19631 19.7451 8.19631C20.3233 8.19631 20.7915 7.72811 20.7915 7.14986C20.7915 6.57019 20.3233 6.1001 19.7451 6.1001Z" fill="#BABABA"/>
<path d="M19.7451 12.1978C19.1663 12.1978 18.6953 12.6655 18.6953 13.2451C18.6953 13.8248 19.1663 14.293 19.7451 14.293C20.3233 14.293 20.7915 13.8243 20.7915 13.2451C20.7915 12.6655 20.3233 12.1978 19.7451 12.1978Z" fill="#BABABA"/>
<path d="M19.7451 18.2935C19.1663 18.2935 18.6953 18.7621 18.6953 19.3413C18.6953 19.921 19.1663 20.3887 19.7451 20.3887C20.3233 20.3887 20.7915 19.921 20.7915 19.3413C20.7915 18.7626 20.3233 18.2935 19.7451 18.2935Z" fill="#BABABA"/>
<path d="M19.7451 24.3906C19.1663 24.3906 18.6953 24.8583 18.6953 25.4375C18.6953 26.0172 19.1663 26.4849 19.7451 26.4849C20.3233 26.4849 20.7915 26.0177 20.7915 25.4375C20.7915 24.8583 20.3233 24.3906 19.7451 24.3906Z" fill="#BABABA"/>
<path d="M19.7451 30.4868C19.1663 30.4868 18.6953 30.9545 18.6953 31.5342C18.6953 32.111 19.1663 32.5835 19.7451 32.5835C20.3233 32.5835 20.7915 32.1106 20.7915 31.5342C20.7915 30.9545 20.3233 30.4868 19.7451 30.4868Z" fill="#BABABA"/>
<path d="M19.7451 36.5825C19.1663 36.5825 18.6953 37.0521 18.6953 37.6318C18.6953 38.2091 19.1663 38.6792 19.7451 38.6792C20.3233 38.6792 20.7915 38.2091 20.7915 37.6318C20.7915 37.0526 20.3233 36.5825 19.7451 36.5825Z" fill="#BABABA"/>
<path d="M19.7451 42.6807C19.1663 42.6807 18.6953 43.1479 18.6953 43.7271C18.6953 44.3068 19.1663 44.7764 19.7451 44.7764C20.3233 44.7764 20.7915 44.3063 20.7915 43.7271C20.7915 43.1479 20.3233 42.6807 19.7451 42.6807Z" fill="#BABABA"/>
<path d="M19.7451 48.7754C19.1663 48.7754 18.6953 49.2431 18.6953 49.8223C18.6953 50.4015 19.1663 50.8716 19.7451 50.8716C20.3233 50.8716 20.7915 50.401 20.7915 49.8223C20.7915 49.2431 20.3233 48.7754 19.7451 48.7754Z" fill="#BABABA"/>
<path d="M25.8466 0.00488281C25.2684 0.00488281 24.7969 0.472605 24.7969 1.05133C24.7969 1.63148 25.2684 2.1011 25.8466 2.1011C26.4249 2.1011 26.893 1.631 26.893 1.05133C26.893 0.472131 26.4244 0.00488281 25.8466 0.00488281Z" fill="#BABABA"/>
<path d="M25.8466 6.1001C25.2684 6.1001 24.7969 6.57019 24.7969 7.14986C24.7969 7.72811 25.2684 8.19631 25.8466 8.19631C26.4249 8.19631 26.893 7.72811 26.893 7.14986C26.893 6.57019 26.4244 6.1001 25.8466 6.1001Z" fill="#BABABA"/>
<path d="M25.8466 12.1978C25.2684 12.1978 24.7969 12.6655 24.7969 13.2451C24.7969 13.8248 25.2684 14.293 25.8466 14.293C26.4249 14.293 26.893 13.8243 26.893 13.2451C26.893 12.6655 26.4244 12.1978 25.8466 12.1978Z" fill="#BABABA"/>
<path d="M25.8466 18.2935C25.2684 18.2935 24.7969 18.7621 24.7969 19.3413C24.7969 19.921 25.2684 20.3887 25.8466 20.3887C26.4249 20.3887 26.893 19.921 26.893 19.3413C26.893 18.7626 26.4244 18.2935 25.8466 18.2935Z" fill="#BABABA"/>
<path d="M25.8466 24.3906C25.2684 24.3906 24.7969 24.8583 24.7969 25.4375C24.7969 26.0172 25.2684 26.4849 25.8466 26.4849C26.4249 26.4849 26.893 26.0177 26.893 25.4375C26.893 24.8583 26.4244 24.3906 25.8466 24.3906Z" fill="#BABABA"/>
<path d="M25.8466 30.4868C25.2684 30.4868 24.7969 30.9545 24.7969 31.5342C24.7969 32.111 25.2684 32.5835 25.8466 32.5835C26.4249 32.5835 26.893 32.1106 26.893 31.5342C26.893 30.9545 26.4244 30.4868 25.8466 30.4868Z" fill="#BABABA"/>
<path d="M25.8466 36.5825C25.2684 36.5825 24.7969 37.0521 24.7969 37.6318C24.7969 38.2091 25.2684 38.6792 25.8466 38.6792C26.4249 38.6792 26.893 38.2091 26.893 37.6318C26.893 37.0526 26.4244 36.5825 25.8466 36.5825Z" fill="#BABABA"/>
<path d="M25.8466 42.6807C25.2684 42.6807 24.7969 43.1479 24.7969 43.7271C24.7969 44.3068 25.2684 44.7764 25.8466 44.7764C26.4249 44.7764 26.893 44.3063 26.893 43.7271C26.893 43.1479 26.4244 42.6807 25.8466 42.6807Z" fill="#BABABA"/>
<path d="M25.8466 48.7754C25.2684 48.7754 24.7969 49.2431 24.7969 49.8223C24.7969 50.4015 25.2684 50.8716 25.8466 50.8716C26.4249 50.8716 26.893 50.401 26.893 49.8223C26.893 49.2431 26.4244 48.7754 25.8466 48.7754Z" fill="#BABABA"/>
<path d="M31.9385 0.00488281C31.3602 0.00488281 30.8906 0.472605 30.8906 1.05133C30.8906 1.63148 31.3602 2.1011 31.9385 2.1011C32.5196 2.1011 32.9882 1.631 32.9882 1.05133C32.9882 0.472131 32.5196 0.00488281 31.9385 0.00488281Z" fill="#BABABA"/>
<path d="M31.9385 6.1001C31.3602 6.1001 30.8906 6.57019 30.8906 7.14986C30.8906 7.72811 31.3602 8.19631 31.9385 8.19631C32.5196 8.19631 32.9882 7.72811 32.9882 7.14986C32.9882 6.57019 32.5196 6.1001 31.9385 6.1001Z" fill="#BABABA"/>
<path d="M31.9385 12.1978C31.3602 12.1978 30.8906 12.6655 30.8906 13.2451C30.8906 13.8248 31.3602 14.293 31.9385 14.293C32.5196 14.293 32.9882 13.8243 32.9882 13.2451C32.9882 12.6655 32.5196 12.1978 31.9385 12.1978Z" fill="#BABABA"/>
<path d="M31.9385 18.2935C31.3602 18.2935 30.8906 18.7621 30.8906 19.3413C30.8906 19.921 31.3602 20.3887 31.9385 20.3887C32.5196 20.3887 32.9882 19.921 32.9882 19.3413C32.9882 18.7626 32.5196 18.2935 31.9385 18.2935Z" fill="#BABABA"/>
<path d="M31.9385 24.3906C31.3602 24.3906 30.8906 24.8583 30.8906 25.4375C30.8906 26.0172 31.3602 26.4849 31.9385 26.4849C32.5196 26.4849 32.9882 26.0177 32.9882 25.4375C32.9882 24.8583 32.5196 24.3906 31.9385 24.3906Z" fill="#BABABA"/>
<path d="M31.9385 30.4868C31.3602 30.4868 30.8906 30.9545 30.8906 31.5342C30.8906 32.111 31.3602 32.5835 31.9385 32.5835C32.5196 32.5835 32.9882 32.1106 32.9882 31.5342C32.9882 30.9545 32.5196 30.4868 31.9385 30.4868Z" fill="#BABABA"/>
<path d="M31.9385 36.5825C31.3602 36.5825 30.8906 37.0521 30.8906 37.6318C30.8906 38.2091 31.3602 38.6792 31.9385 38.6792C32.5196 38.6792 32.9882 38.2091 32.9882 37.6318C32.9882 37.0526 32.5196 36.5825 31.9385 36.5825Z" fill="#BABABA"/>
<path d="M31.9385 42.6807C31.3602 42.6807 30.8906 43.1479 30.8906 43.7271C30.8906 44.3068 31.3602 44.7764 31.9385 44.7764C32.5196 44.7764 32.9882 44.3063 32.9882 43.7271C32.9882 43.1479 32.5196 42.6807 31.9385 42.6807Z" fill="#BABABA"/>
<path d="M31.9385 48.7754C31.3602 48.7754 30.8906 49.2431 30.8906 49.8223C30.8906 50.4015 31.3602 50.8716 31.9385 50.8716C32.5196 50.8716 32.9882 50.401 32.9882 49.8223C32.9882 49.2431 32.5196 48.7754 31.9385 48.7754Z" fill="#BABABA"/>
<path d="M38.0332 0.00488281C37.4521 0.00488281 36.9844 0.472605 36.9844 1.05133C36.9844 1.63148 37.4521 2.1011 38.0332 2.1011C38.6105 2.1011 39.0801 1.631 39.0801 1.05133C39.0801 0.472131 38.61 0.00488281 38.0332 0.00488281Z" fill="#BABABA"/>
<path d="M38.0332 6.1001C37.4521 6.1001 36.9844 6.57019 36.9844 7.14986C36.9844 7.72811 37.4521 8.19631 38.0332 8.19631C38.6105 8.19631 39.0801 7.72811 39.0801 7.14986C39.0801 6.57019 38.61 6.1001 38.0332 6.1001Z" fill="#BABABA"/>
<path d="M38.0332 12.1978C37.4521 12.1978 36.9844 12.6655 36.9844 13.2451C36.9844 13.8248 37.4521 14.293 38.0332 14.293C38.6105 14.293 39.0801 13.8243 39.0801 13.2451C39.0801 12.6655 38.61 12.1978 38.0332 12.1978Z" fill="#BABABA"/>
<path d="M38.0332 18.2935C37.4521 18.2935 36.9844 18.7621 36.9844 19.3413C36.9844 19.921 37.4521 20.3887 38.0332 20.3887C38.6105 20.3887 39.0801 19.921 39.0801 19.3413C39.0801 18.7626 38.61 18.2935 38.0332 18.2935Z" fill="#BABABA"/>
<path d="M38.0332 24.3906C37.4521 24.3906 36.9844 24.8583 36.9844 25.4375C36.9844 26.0172 37.4521 26.4849 38.0332 26.4849C38.6105 26.4849 39.0801 26.0177 39.0801 25.4375C39.0801 24.8583 38.61 24.3906 38.0332 24.3906Z" fill="#BABABA"/>
<path d="M38.0332 30.4868C37.4521 30.4868 36.9844 30.9545 36.9844 31.5342C36.9844 32.111 37.4521 32.5835 38.0332 32.5835C38.6105 32.5835 39.0801 32.1106 39.0801 31.5342C39.0801 30.9545 38.61 30.4868 38.0332 30.4868Z" fill="#BABABA"/>
<path d="M38.0332 36.5825C37.4521 36.5825 36.9844 37.0521 36.9844 37.6318C36.9844 38.2091 37.4521 38.6792 38.0332 38.6792C38.6105 38.6792 39.0801 38.2091 39.0801 37.6318C39.0801 37.0526 38.61 36.5825 38.0332 36.5825Z" fill="#BABABA"/>
<path d="M38.0332 42.6807C37.4521 42.6807 36.9844 43.1479 36.9844 43.7271C36.9844 44.3068 37.4521 44.7764 38.0332 44.7764C38.6105 44.7764 39.0801 44.3063 39.0801 43.7271C39.0801 43.1479 38.61 42.6807 38.0332 42.6807Z" fill="#BABABA"/>
<path d="M38.0332 48.7754C37.4521 48.7754 36.9844 49.2431 36.9844 49.8223C36.9844 50.4015 37.4521 50.8716 38.0332 50.8716C38.6105 50.8716 39.0801 50.401 39.0801 49.8223C39.0801 49.2431 38.61 48.7754 38.0332 48.7754Z" fill="#BABABA"/>
</svg>
