<svg width="41" height="41" viewBox="0 0 41 41" fill="none" xmlns="http://www.w3.org/2000/svg">
<path d="M3.93962 32.5856L8.41341 37.061C9.29043 37.7013 10.1989 38.2795 11.1444 38.7648L2.23438 29.8535C2.71919 30.8002 3.29793 31.7086 3.93962 32.5856Z" fill="#BABABA"/>
<path d="M0.430463 24.7494L16.2491 40.5667C16.6595 40.654 17.0734 40.7186 17.4895 40.7794L0.21875 23.5112C0.279352 23.9265 0.344151 24.3394 0.430463 24.7494Z" fill="#BABABA"/>
<path d="M21.9917 40.9529L0.0472224 19.0107C0.0236112 19.3376 0.00787038 19.6642 0 19.9908L21.0105 41.0002C21.3384 40.9915 21.6658 40.9776 21.9917 40.9529Z" fill="#BABABA"/>
<path d="M25.6999 40.3361L0.66137 15.2988C0.590799 15.5724 0.519965 15.8471 0.460938 16.1246L24.8759 40.5363C25.1527 40.4765 25.4253 40.4059 25.6999 40.3361Z" fill="#BABABA"/>
<path d="M28.9033 39.2068L1.79222 12.1006C1.68833 12.3354 1.56687 12.5638 1.46875 12.8031L28.2008 39.5308C28.4382 39.4345 28.6677 39.3128 28.9033 39.2068Z" fill="#BABABA"/>
<path d="M31.7242 37.6902L3.3179 9.28809C3.18069 9.49899 3.06684 9.7196 2.9375 9.93234L31.0786 38.0734C31.2945 37.943 31.5143 37.8284 31.7242 37.6902Z" fill="#BABABA"/>
<path d="M34.1435 35.7962L5.19785 6.85352C5.03703 7.03425 4.86415 7.2087 4.71094 7.39416L33.6018 36.2849C33.7881 36.1304 33.9628 35.9581 34.1435 35.7962Z" fill="#BABABA"/>
<path d="M36.292 33.6065L7.39718 4.7168C7.21275 4.86973 7.0383 5.04234 6.85938 5.20314L35.8032 34.1469C35.9643 33.9654 36.1369 33.7907 36.292 33.6065Z" fill="#BABABA"/>
<path d="M38.0758 31.0655L9.93444 2.92627C9.72062 3.05481 9.49894 3.16971 9.28906 3.30795L37.693 31.7108C37.8323 31.4991 37.9462 31.2803 38.0758 31.0655Z" fill="#BABABA"/>
<path d="M39.5346 28.1961L12.8041 1.46924C12.567 1.56446 12.3374 1.68722 12.1016 1.79189L39.2129 28.8994C39.3168 28.6639 39.4406 28.4354 39.5346 28.1961Z" fill="#BABABA"/>
<path d="M40.5437 24.8741L16.1287 0.461914C15.854 0.522247 15.5794 0.593335 15.3047 0.664161L40.3414 25.7012C40.4144 25.4255 40.4831 25.1519 40.5437 24.8741Z" fill="#BABABA"/>
<path d="M40.9998 21.0097L19.989 0C19.6611 0.00865653 19.3357 0.0225575 19.0078 0.0472155L40.9544 21.9905C40.978 21.6639 40.9919 21.3373 40.9998 21.0097Z" fill="#BABABA"/>
<path d="M40.5629 16.2503L24.7461 0.432164C24.3358 0.344812 23.9218 0.281073 23.5078 0.220215L40.7767 17.4871C40.7159 17.0734 40.6511 16.6605 40.5629 16.2503Z" fill="#BABABA"/>
<path d="M37.0762 8.41742L32.5966 3.93727C31.7194 3.29695 30.8129 2.71959 29.8672 2.23535L38.7793 11.1448C38.2948 10.1999 37.7158 9.29331 37.0762 8.41742Z" fill="#BABABA"/>
</svg>
