<svg width="32" height="41" viewBox="0 0 32 41" fill="none" xmlns="http://www.w3.org/2000/svg">
<path d="M27.1277 0C26.7684 0 26.4766 0.374337 26.4766 0.837514C26.4766 1.30183 26.7684 1.67769 27.1277 1.67769C27.4863 1.67769 27.7782 1.30145 27.7782 0.837514C27.7782 0.373958 27.4863 0 27.1277 0Z" fill="#BABABA"/>
<path d="M27.1277 4.87793C26.7684 4.87793 26.4766 5.25417 26.4766 5.7181C26.4766 6.1809 26.7684 6.55561 27.1277 6.55561C27.4863 6.55561 27.7782 6.1809 27.7782 5.7181C27.7782 5.25417 27.4863 4.87793 27.1277 4.87793Z" fill="#BABABA"/>
<path d="M27.1277 9.7583C26.7684 9.7583 26.4766 10.1326 26.4766 10.5966C26.4766 11.0605 26.7684 11.4352 27.1277 11.4352C27.4863 11.4352 27.7782 11.0601 27.7782 10.5966C27.7782 10.1326 27.4863 9.7583 27.1277 9.7583Z" fill="#BABABA"/>
<path d="M27.1277 14.6367C26.7684 14.6367 26.4766 15.0118 26.4766 15.4754C26.4766 15.9393 26.7684 16.3136 27.1277 16.3136C27.4863 16.3136 27.7782 15.9393 27.7782 15.4754C27.7782 15.0122 27.4863 14.6367 27.1277 14.6367Z" fill="#BABABA"/>
<path d="M27.1277 19.5166C26.7684 19.5166 26.4766 19.8909 26.4766 20.3545C26.4766 20.8184 26.7684 21.1928 27.1277 21.1928C27.4863 21.1928 27.7782 20.8188 27.7782 20.3545C27.7782 19.8909 27.4863 19.5166 27.1277 19.5166Z" fill="#BABABA"/>
<path d="M27.1277 24.3965C26.7684 24.3965 26.4766 24.7708 26.4766 25.2348C26.4766 25.6964 26.7684 26.0745 27.1277 26.0745C27.4863 26.0745 27.7782 25.696 27.7782 25.2348C27.7782 24.7708 27.4863 24.3965 27.1277 24.3965Z" fill="#BABABA"/>
<path d="M27.1277 29.2744C26.7684 29.2744 26.4766 29.6503 26.4766 30.1142C26.4766 30.5762 26.7684 30.9525 27.1277 30.9525C27.4863 30.9525 27.7782 30.5762 27.7782 30.1142C27.7782 29.6506 27.4863 29.2744 27.1277 29.2744Z" fill="#BABABA"/>
<path d="M27.1277 34.1553C26.7684 34.1553 26.4766 34.5292 26.4766 34.9928C26.4766 35.4567 26.7684 35.8326 27.1277 35.8326C27.4863 35.8326 27.7782 35.4563 27.7782 34.9928C27.7782 34.5292 27.4863 34.1553 27.1277 34.1553Z" fill="#BABABA"/>
<path d="M27.1277 39.0332C26.7684 39.0332 26.4766 39.4075 26.4766 39.8711C26.4766 40.3347 26.7684 40.7109 27.1277 40.7109C27.4863 40.7109 27.7782 40.3343 27.7782 39.8711C27.7782 39.4075 27.4863 39.0332 27.1277 39.0332Z" fill="#BABABA"/>
<path d="M30.915 1.67769C31.2736 1.67769 31.5652 1.30145 31.5652 0.837514C31.5652 0.374337 31.2736 0 30.915 0C30.5543 0 30.2656 0.374337 30.2656 0.837514C30.2656 1.30145 30.5546 1.67769 30.915 1.67769Z" fill="#BABABA"/>
<path d="M30.915 4.87793C30.5543 4.87793 30.2656 5.25417 30.2656 5.7181C30.2656 6.1809 30.5543 6.55561 30.915 6.55561C31.2736 6.55561 31.5652 6.1809 31.5652 5.7181C31.5652 5.25417 31.2736 4.87793 30.915 4.87793Z" fill="#BABABA"/>
<path d="M30.915 9.75879C30.5543 9.75879 30.2656 10.1331 30.2656 10.5971C30.2656 11.061 30.5543 11.4357 30.915 11.4357C31.2736 11.4357 31.5652 11.0606 31.5652 10.5971C31.5652 10.1331 31.2736 9.75879 30.915 9.75879Z" fill="#BABABA"/>
<path d="M30.915 14.6367C30.5543 14.6367 30.2656 15.0118 30.2656 15.4754C30.2656 15.9393 30.5543 16.3136 30.915 16.3136C31.2736 16.3136 31.5652 15.9393 31.5652 15.4754C31.5652 15.0122 31.2736 14.6367 30.915 14.6367Z" fill="#BABABA"/>
<path d="M30.915 19.5166C30.5543 19.5166 30.2656 19.8909 30.2656 20.3545C30.2656 20.8184 30.5543 21.1928 30.915 21.1928C31.2736 21.1928 31.5652 20.8188 31.5652 20.3545C31.5652 19.8909 31.2736 19.5166 30.915 19.5166Z" fill="#BABABA"/>
<path d="M30.915 24.3965C30.5543 24.3965 30.2656 24.7708 30.2656 25.2348C30.2656 25.6964 30.5543 26.0745 30.915 26.0745C31.2736 26.0745 31.5652 25.696 31.5652 25.2348C31.5652 24.7708 31.2736 24.3965 30.915 24.3965Z" fill="#BABABA"/>
<path d="M30.915 29.2749C30.5543 29.2749 30.2656 29.6508 30.2656 30.1147C30.2656 30.5767 30.5543 30.953 30.915 30.953C31.2736 30.953 31.5652 30.5767 31.5652 30.1147C31.5652 29.6511 31.2736 29.2749 30.915 29.2749Z" fill="#BABABA"/>
<path d="M30.915 34.1553C30.5543 34.1553 30.2656 34.5292 30.2656 34.9928C30.2656 35.4567 30.5543 35.8326 30.915 35.8326C31.2736 35.8326 31.5652 35.4563 31.5652 34.9928C31.5652 34.5292 31.2736 34.1553 30.915 34.1553Z" fill="#BABABA"/>
<path d="M30.915 39.0332C30.5543 39.0332 30.2656 39.4075 30.2656 39.8711C30.2656 40.3347 30.5543 40.7109 30.915 40.7109C31.2736 40.7109 31.5652 40.3343 31.5652 39.8711C31.5652 39.4075 31.2736 39.0332 30.915 39.0332Z" fill="#BABABA"/>
<path d="M0.650249 0C0.291586 0 0 0.374337 0 0.837514C0 1.30183 0.291586 1.67769 0.650249 1.67769C1.00891 1.67769 1.29961 1.30145 1.29961 0.837514C1.29931 0.373958 1.00891 0 0.650249 0Z" fill="#BABABA"/>
<path d="M0.650249 4.87842C0.291586 4.87842 0 5.25465 0 5.71859C0 6.18139 0.291586 6.5561 0.650249 6.5561C1.00891 6.5561 1.29961 6.18139 1.29961 5.71859C1.29931 5.25465 1.00891 4.87842 0.650249 4.87842Z" fill="#BABABA"/>
<path d="M0.650249 9.7583C0.291586 9.7583 0 10.1326 0 10.5966C0 11.0605 0.291586 11.4352 0.650249 11.4352C1.00891 11.4352 1.29961 11.0601 1.29961 10.5966C1.29931 10.1326 1.00891 9.7583 0.650249 9.7583Z" fill="#BABABA"/>
<path d="M0.650249 14.6367C0.291586 14.6367 0 15.0118 0 15.4754C0 15.9393 0.291586 16.3136 0.650249 16.3136C1.00891 16.3136 1.29961 15.9393 1.29961 15.4754C1.29931 15.0122 1.00891 14.6367 0.650249 14.6367Z" fill="#BABABA"/>
<path d="M0.650249 19.5166C0.291586 19.5166 0 19.8909 0 20.3545C0 20.8184 0.291586 21.1928 0.650249 21.1928C1.00891 21.1928 1.29961 20.8188 1.29961 20.3545C1.29931 19.8909 1.00891 19.5166 0.650249 19.5166Z" fill="#BABABA"/>
<path d="M0.650249 24.3965C0.291586 24.3965 0 24.7708 0 25.2348C0 25.6964 0.291586 26.0745 0.650249 26.0745C1.00891 26.0745 1.29961 25.696 1.29961 25.2348C1.29931 24.7708 1.00891 24.3965 0.650249 24.3965Z" fill="#BABABA"/>
<path d="M0.650249 29.2744C0.291586 29.2744 0 29.6503 0 30.1142C0 30.5762 0.291586 30.9525 0.650249 30.9525C1.00891 30.9525 1.29961 30.5762 1.29961 30.1142C1.29931 29.6506 1.00891 29.2744 0.650249 29.2744Z" fill="#BABABA"/>
<path d="M0.650249 34.1553C0.291586 34.1553 0 34.5292 0 34.9928C0 35.4567 0.291586 35.8326 0.650249 35.8326C1.00891 35.8326 1.29961 35.4563 1.29961 34.9928C1.29931 34.5292 1.00891 34.1553 0.650249 34.1553Z" fill="#BABABA"/>
<path d="M0.650249 39.0332C0.291586 39.0332 0 39.4075 0 39.8711C0 40.3347 0.291586 40.7109 0.650249 40.7109C1.00891 40.7109 1.29961 40.3343 1.29961 39.8711C1.29931 39.4075 1.00891 39.0332 0.650249 39.0332Z" fill="#BABABA"/>
<path d="M4.42368 0C4.06413 0 3.77344 0.374337 3.77344 0.837514C3.77344 1.30183 4.06413 1.67769 4.42368 1.67769C4.78234 1.67769 5.07451 1.30145 5.07451 0.837514C5.07451 0.373958 4.78234 0 4.42368 0Z" fill="#BABABA"/>
<path d="M4.43149 4.87793C4.07194 4.87793 3.78125 5.25417 3.78125 5.7181C3.78125 6.1809 4.07194 6.55561 4.43149 6.55561C4.79015 6.55561 5.08232 6.1809 5.08232 5.7181C5.08232 5.25417 4.79015 4.87793 4.43149 4.87793Z" fill="#BABABA"/>
<path d="M4.43149 9.75879C4.07194 9.75879 3.78125 10.1331 3.78125 10.5971C3.78125 11.061 4.07194 11.4357 4.43149 11.4357C4.79015 11.4357 5.08232 11.0606 5.08232 10.5971C5.08232 10.1331 4.79015 9.75879 4.43149 9.75879Z" fill="#BABABA"/>
<path d="M4.43149 14.6372C4.07194 14.6372 3.78125 15.0123 3.78125 15.4759C3.78125 15.9398 4.07194 16.3141 4.43149 16.3141C4.79015 16.3141 5.08232 15.9398 5.08232 15.4759C5.08232 15.0127 4.79015 14.6372 4.43149 14.6372Z" fill="#BABABA"/>
<path d="M4.43149 19.5166C4.07194 19.5166 3.78125 19.8909 3.78125 20.3545C3.78125 20.8184 4.07194 21.1928 4.43149 21.1928C4.79015 21.1928 5.08232 20.8188 5.08232 20.3545C5.08232 19.8909 4.79015 19.5166 4.43149 19.5166Z" fill="#BABABA"/>
<path d="M4.43149 24.396C4.07194 24.396 3.78125 24.7703 3.78125 25.2343C3.78125 25.6959 4.07194 26.0741 4.43149 26.0741C4.79015 26.0741 5.08232 25.6955 5.08232 25.2343C5.08232 24.7703 4.79015 24.396 4.43149 24.396Z" fill="#BABABA"/>
<path d="M4.43149 29.2744C4.07194 29.2744 3.78125 29.6503 3.78125 30.1142C3.78125 30.5762 4.07194 30.9525 4.43149 30.9525C4.79015 30.9525 5.08232 30.5762 5.08232 30.1142C5.08232 29.6506 4.79015 29.2744 4.43149 29.2744Z" fill="#BABABA"/>
<path d="M4.43149 34.1553C4.07194 34.1553 3.78125 34.5292 3.78125 34.9928C3.78125 35.4567 4.07194 35.8326 4.43149 35.8326C4.79015 35.8326 5.08232 35.4563 5.08232 34.9928C5.08232 34.5292 4.79015 34.1553 4.43149 34.1553Z" fill="#BABABA"/>
<path d="M4.43149 39.0332C4.07194 39.0332 3.78125 39.4075 3.78125 39.8711C3.78125 40.3347 4.07194 40.7109 4.43149 40.7109C4.79015 40.7109 5.08232 40.3343 5.08232 39.8711C5.08232 39.4075 4.79015 39.0332 4.43149 39.0332Z" fill="#BABABA"/>
<path d="M8.21216 0C7.8532 0 7.5625 0.374337 7.5625 0.837514C7.5625 1.30183 7.8532 1.67769 8.21216 1.67769C8.57229 1.67769 8.86299 1.30145 8.86299 0.837514C8.86299 0.373958 8.572 0 8.21216 0Z" fill="#BABABA"/>
<path d="M8.21216 4.87793C7.8532 4.87793 7.5625 5.25417 7.5625 5.7181C7.5625 6.1809 7.8532 6.55561 8.21216 6.55561C8.57229 6.55561 8.86299 6.1809 8.86299 5.7181C8.86299 5.25417 8.572 4.87793 8.21216 4.87793Z" fill="#BABABA"/>
<path d="M8.21216 9.75879C7.8532 9.75879 7.5625 10.1331 7.5625 10.5971C7.5625 11.061 7.8532 11.4357 8.21216 11.4357C8.57229 11.4357 8.86299 11.0606 8.86299 10.5971C8.86299 10.1331 8.572 9.75879 8.21216 9.75879Z" fill="#BABABA"/>
<path d="M8.21216 14.6372C7.8532 14.6372 7.5625 15.0123 7.5625 15.4759C7.5625 15.9398 7.8532 16.3141 8.21216 16.3141C8.57229 16.3141 8.86299 15.9398 8.86299 15.4759C8.86299 15.0127 8.572 14.6372 8.21216 14.6372Z" fill="#BABABA"/>
<path d="M8.21216 19.5166C7.8532 19.5166 7.5625 19.8909 7.5625 20.3545C7.5625 20.8184 7.8532 21.1928 8.21216 21.1928C8.57229 21.1928 8.86299 20.8188 8.86299 20.3545C8.86299 19.8909 8.572 19.5166 8.21216 19.5166Z" fill="#BABABA"/>
<path d="M8.21216 24.396C7.8532 24.396 7.5625 24.7703 7.5625 25.2343C7.5625 25.6959 7.8532 26.0741 8.21216 26.0741C8.57229 26.0741 8.86299 25.6955 8.86299 25.2343C8.86299 24.7703 8.572 24.396 8.21216 24.396Z" fill="#BABABA"/>
<path d="M8.21216 29.2744C7.8532 29.2744 7.5625 29.6503 7.5625 30.1142C7.5625 30.5762 7.8532 30.9525 8.21216 30.9525C8.57229 30.9525 8.86299 30.5762 8.86299 30.1142C8.86299 29.6506 8.572 29.2744 8.21216 29.2744Z" fill="#BABABA"/>
<path d="M8.21216 34.1553C7.8532 34.1553 7.5625 34.5292 7.5625 34.9928C7.5625 35.4567 7.8532 35.8326 8.21216 35.8326C8.57229 35.8326 8.86299 35.4563 8.86299 34.9928C8.86299 34.5292 8.572 34.1553 8.21216 34.1553Z" fill="#BABABA"/>
<path d="M8.21216 39.0332C7.8532 39.0332 7.5625 39.4075 7.5625 39.8711C7.5625 40.3347 7.8532 40.7109 8.21216 40.7109C8.57229 40.7109 8.86299 40.3343 8.86299 39.8711C8.86299 39.4075 8.572 39.0332 8.21216 39.0332Z" fill="#BABABA"/>
<path d="M12.0027 0C11.6437 0 11.3516 0.374337 11.3516 0.837514C11.3516 1.30183 11.6437 1.67769 12.0027 1.67769C12.3613 1.67769 12.6517 1.30145 12.6517 0.837514C12.6517 0.373958 12.3613 0 12.0027 0Z" fill="#BABABA"/>
<path d="M12.0027 4.87793C11.6437 4.87793 11.3516 5.25417 11.3516 5.7181C11.3516 6.1809 11.6437 6.55561 12.0027 6.55561C12.3613 6.55561 12.6517 6.1809 12.6517 5.7181C12.6517 5.25417 12.3613 4.87793 12.0027 4.87793Z" fill="#BABABA"/>
<path d="M12.0027 9.75879C11.6437 9.75879 11.3516 10.1331 11.3516 10.5971C11.3516 11.061 11.6437 11.4357 12.0027 11.4357C12.3613 11.4357 12.6517 11.0606 12.6517 10.5971C12.6517 10.1331 12.3613 9.75879 12.0027 9.75879Z" fill="#BABABA"/>
<path d="M12.0027 14.6367C11.6437 14.6367 11.3516 15.0118 11.3516 15.4754C11.3516 15.9393 11.6437 16.3136 12.0027 16.3136C12.3613 16.3136 12.6517 15.9393 12.6517 15.4754C12.6517 15.0122 12.3613 14.6367 12.0027 14.6367Z" fill="#BABABA"/>
<path d="M12.0027 19.5166C11.6437 19.5166 11.3516 19.8909 11.3516 20.3545C11.3516 20.8184 11.6437 21.1928 12.0027 21.1928C12.3613 21.1928 12.6517 20.8188 12.6517 20.3545C12.6517 19.8909 12.3613 19.5166 12.0027 19.5166Z" fill="#BABABA"/>
<path d="M12.0027 24.3965C11.6437 24.3965 11.3516 24.7708 11.3516 25.2348C11.3516 25.6964 11.6437 26.0745 12.0027 26.0745C12.3613 26.0745 12.6517 25.696 12.6517 25.2348C12.6517 24.7708 12.3613 24.3965 12.0027 24.3965Z" fill="#BABABA"/>
<path d="M12.0027 29.2749C11.6437 29.2749 11.3516 29.6508 11.3516 30.1147C11.3516 30.5767 11.6437 30.953 12.0027 30.953C12.3613 30.953 12.6517 30.5767 12.6517 30.1147C12.6517 29.6511 12.3613 29.2749 12.0027 29.2749Z" fill="#BABABA"/>
<path d="M12.0027 34.1553C11.6437 34.1553 11.3516 34.5292 11.3516 34.9928C11.3516 35.4567 11.6437 35.8326 12.0027 35.8326C12.3613 35.8326 12.6517 35.4563 12.6517 34.9928C12.6517 34.5292 12.3613 34.1553 12.0027 34.1553Z" fill="#BABABA"/>
<path d="M12.0027 39.0332C11.6437 39.0332 11.3516 39.4075 11.3516 39.8711C11.3516 40.3347 11.6437 40.7109 12.0027 40.7109C12.3613 40.7109 12.6517 40.3343 12.6517 39.8711C12.6517 39.4075 12.3613 39.0332 12.0027 39.0332Z" fill="#BABABA"/>
<path d="M15.7839 0C15.4253 0 15.1328 0.374337 15.1328 0.837514C15.1328 1.30183 15.4253 1.67769 15.7839 1.67769C16.1426 1.67769 16.433 1.30145 16.433 0.837514C16.433 0.373958 16.1423 0 15.7839 0Z" fill="#BABABA"/>
<path d="M15.7839 4.87793C15.4253 4.87793 15.1328 5.25417 15.1328 5.7181C15.1328 6.1809 15.4253 6.55561 15.7839 6.55561C16.1426 6.55561 16.433 6.1809 16.433 5.7181C16.433 5.25417 16.1423 4.87793 15.7839 4.87793Z" fill="#BABABA"/>
<path d="M15.7839 9.75879C15.4253 9.75879 15.1328 10.1331 15.1328 10.5971C15.1328 11.061 15.4253 11.4357 15.7839 11.4357C16.1426 11.4357 16.433 11.0606 16.433 10.5971C16.433 10.1331 16.1423 9.75879 15.7839 9.75879Z" fill="#BABABA"/>
<path d="M15.7839 14.6372C15.4253 14.6372 15.1328 15.0123 15.1328 15.4759C15.1328 15.9398 15.4253 16.3141 15.7839 16.3141C16.1426 16.3141 16.433 15.9398 16.433 15.4759C16.433 15.0127 16.1423 14.6372 15.7839 14.6372Z" fill="#BABABA"/>
<path d="M15.7839 19.5166C15.4253 19.5166 15.1328 19.8909 15.1328 20.3545C15.1328 20.8184 15.4253 21.1928 15.7839 21.1928C16.1426 21.1928 16.433 20.8188 16.433 20.3545C16.433 19.8909 16.1423 19.5166 15.7839 19.5166Z" fill="#BABABA"/>
<path d="M15.7839 24.396C15.4253 24.396 15.1328 24.7703 15.1328 25.2343C15.1328 25.6959 15.4253 26.0741 15.7839 26.0741C16.1426 26.0741 16.433 25.6955 16.433 25.2343C16.433 24.7703 16.1423 24.396 15.7839 24.396Z" fill="#BABABA"/>
<path d="M15.7839 29.2744C15.4253 29.2744 15.1328 29.6503 15.1328 30.1142C15.1328 30.5762 15.4253 30.9525 15.7839 30.9525C16.1426 30.9525 16.433 30.5762 16.433 30.1142C16.433 29.6506 16.1423 29.2744 15.7839 29.2744Z" fill="#BABABA"/>
<path d="M15.7839 34.1553C15.4253 34.1553 15.1328 34.5292 15.1328 34.9928C15.1328 35.4567 15.4253 35.8326 15.7839 35.8326C16.1426 35.8326 16.433 35.4563 16.433 34.9928C16.433 34.5292 16.1423 34.1553 15.7839 34.1553Z" fill="#BABABA"/>
<path d="M15.7839 39.0332C15.4253 39.0332 15.1328 39.4075 15.1328 39.8711C15.1328 40.3347 15.4253 40.7109 15.7839 40.7109C16.1426 40.7109 16.433 40.3343 16.433 39.8711C16.433 39.4075 16.1423 39.0332 15.7839 39.0332Z" fill="#BABABA"/>
<path d="M19.564 0C19.2053 0 18.9141 0.374337 18.9141 0.837514C18.9141 1.30183 19.2053 1.67769 19.564 1.67769C19.9244 1.67769 20.2151 1.30145 20.2151 0.837514C20.2151 0.373958 19.9244 0 19.564 0Z" fill="#BABABA"/>
<path d="M19.564 4.87793C19.2053 4.87793 18.9141 5.25417 18.9141 5.7181C18.9141 6.1809 19.2053 6.55561 19.564 6.55561C19.9244 6.55561 20.2151 6.1809 20.2151 5.7181C20.2151 5.25417 19.9244 4.87793 19.564 4.87793Z" fill="#BABABA"/>
<path d="M19.564 9.75879C19.2053 9.75879 18.9141 10.1331 18.9141 10.5971C18.9141 11.061 19.2053 11.4357 19.564 11.4357C19.9244 11.4357 20.2151 11.0606 20.2151 10.5971C20.2151 10.1331 19.9244 9.75879 19.564 9.75879Z" fill="#BABABA"/>
<path d="M19.564 14.6372C19.2053 14.6372 18.9141 15.0123 18.9141 15.4759C18.9141 15.9398 19.2053 16.3141 19.564 16.3141C19.9244 16.3141 20.2151 15.9398 20.2151 15.4759C20.2151 15.0127 19.9244 14.6372 19.564 14.6372Z" fill="#BABABA"/>
<path d="M19.564 19.5166C19.2053 19.5166 18.9141 19.8909 18.9141 20.3545C18.9141 20.8184 19.2053 21.1928 19.564 21.1928C19.9244 21.1928 20.2151 20.8188 20.2151 20.3545C20.2151 19.8909 19.9244 19.5166 19.564 19.5166Z" fill="#BABABA"/>
<path d="M19.564 24.396C19.2053 24.396 18.9141 24.7703 18.9141 25.2343C18.9141 25.6959 19.2053 26.0741 19.564 26.0741C19.9244 26.0741 20.2151 25.6955 20.2151 25.2343C20.2151 24.7703 19.9244 24.396 19.564 24.396Z" fill="#BABABA"/>
<path d="M19.564 29.2744C19.2053 29.2744 18.9141 29.6503 18.9141 30.1142C18.9141 30.5762 19.2053 30.9525 19.564 30.9525C19.9244 30.9525 20.2151 30.5762 20.2151 30.1142C20.2151 29.6506 19.9244 29.2744 19.564 29.2744Z" fill="#BABABA"/>
<path d="M19.564 34.1553C19.2053 34.1553 18.9141 34.5292 18.9141 34.9928C18.9141 35.4567 19.2053 35.8326 19.564 35.8326C19.9244 35.8326 20.2151 35.4563 20.2151 34.9928C20.2151 34.5292 19.9244 34.1553 19.564 34.1553Z" fill="#BABABA"/>
<path d="M19.564 39.0332C19.2053 39.0332 18.9141 39.4075 18.9141 39.8711C18.9141 40.3347 19.2053 40.7109 19.564 40.7109C19.9244 40.7109 20.2151 40.3343 20.2151 39.8711C20.2151 39.4075 19.9244 39.0332 19.564 39.0332Z" fill="#BABABA"/>
<path d="M23.338 0C22.9776 0 22.6875 0.374337 22.6875 0.837514C22.6875 1.30183 22.9776 1.67769 23.338 1.67769C23.6961 1.67769 23.9874 1.30145 23.9874 0.837514C23.9874 0.373958 23.6958 0 23.338 0Z" fill="#BABABA"/>
<path d="M23.338 4.87793C22.9776 4.87793 22.6875 5.25417 22.6875 5.7181C22.6875 6.1809 22.9776 6.55561 23.338 6.55561C23.6961 6.55561 23.9874 6.1809 23.9874 5.7181C23.9874 5.25417 23.6958 4.87793 23.338 4.87793Z" fill="#BABABA"/>
<path d="M23.338 9.75879C22.9776 9.75879 22.6875 10.1331 22.6875 10.5971C22.6875 11.061 22.9776 11.4357 23.338 11.4357C23.6961 11.4357 23.9874 11.0606 23.9874 10.5971C23.9874 10.1331 23.6958 9.75879 23.338 9.75879Z" fill="#BABABA"/>
<path d="M23.338 14.6372C22.9776 14.6372 22.6875 15.0123 22.6875 15.4759C22.6875 15.9398 22.9776 16.3141 23.338 16.3141C23.6961 16.3141 23.9874 15.9398 23.9874 15.4759C23.9874 15.0127 23.6958 14.6372 23.338 14.6372Z" fill="#BABABA"/>
<path d="M23.338 19.5166C22.9776 19.5166 22.6875 19.8909 22.6875 20.3545C22.6875 20.8184 22.9776 21.1928 23.338 21.1928C23.6961 21.1928 23.9874 20.8188 23.9874 20.3545C23.9874 19.8909 23.6958 19.5166 23.338 19.5166Z" fill="#BABABA"/>
<path d="M23.338 24.396C22.9776 24.396 22.6875 24.7703 22.6875 25.2343C22.6875 25.6959 22.9776 26.0741 23.338 26.0741C23.6961 26.0741 23.9874 25.6955 23.9874 25.2343C23.9874 24.7703 23.6958 24.396 23.338 24.396Z" fill="#BABABA"/>
<path d="M23.338 29.2744C22.9776 29.2744 22.6875 29.6503 22.6875 30.1142C22.6875 30.5762 22.9776 30.9525 23.338 30.9525C23.6961 30.9525 23.9874 30.5762 23.9874 30.1142C23.9874 29.6506 23.6958 29.2744 23.338 29.2744Z" fill="#BABABA"/>
<path d="M23.338 34.1553C22.9776 34.1553 22.6875 34.5292 22.6875 34.9928C22.6875 35.4567 22.9776 35.8326 23.338 35.8326C23.6961 35.8326 23.9874 35.4563 23.9874 34.9928C23.9874 34.5292 23.6958 34.1553 23.338 34.1553Z" fill="#BABABA"/>
<path d="M23.338 39.0332C22.9776 39.0332 22.6875 39.4075 22.6875 39.8711C22.6875 40.3347 22.9776 40.7109 23.338 40.7109C23.6961 40.7109 23.9874 40.3343 23.9874 39.8711C23.9874 39.4075 23.6958 39.0332 23.338 39.0332Z" fill="#BABABA"/>
</svg>
