<svg width="57" height="57" viewBox="0 0 57 57" fill="none" xmlns="http://www.w3.org/2000/svg">
<path d="M5.52862 45.0764L11.6911 51.2396C12.8992 52.1215 14.1506 52.9176 15.453 53.586L3.17969 41.314C3.84751 42.6177 4.6447 43.8687 5.52862 45.0764Z" fill="#BABABA"/>
<path d="M0.697878 34.2852L22.4876 56.0678C23.0528 56.1881 23.6231 56.277 24.1962 56.3608L0.40625 32.5801C0.489727 33.1519 0.578986 33.7205 0.697878 34.2852Z" fill="#BABABA"/>
<path d="M30.3944 56.5993L0.16661 26.3818C0.134086 26.832 0.112404 27.2817 0.101562 27.7315L29.0429 56.6643C29.4946 56.6524 29.9456 56.6332 30.3944 56.5993Z" fill="#BABABA"/>
<path d="M35.5003 55.7503L1.01046 21.2705C0.913255 21.6473 0.815684 22.0255 0.734375 22.4077L34.3652 56.026C34.7465 55.9436 35.122 55.8464 35.5003 55.7503Z" fill="#BABABA"/>
<path d="M39.9153 54.1947L2.57057 16.8657C2.42747 17.189 2.26015 17.5037 2.125 17.8332L38.9475 54.6409C39.2746 54.5083 39.5908 54.3406 39.9153 54.1947Z" fill="#BABABA"/>
<path d="M43.7934 52.1057L4.66462 12.9922C4.47562 13.2826 4.31878 13.5864 4.14062 13.8794L42.9041 52.6335C43.2015 52.454 43.5043 52.2961 43.7934 52.1057Z" fill="#BABABA"/>
<path d="M47.1362 49.4977L7.26446 9.63965C7.04294 9.88855 6.80479 10.1288 6.59375 10.3842L46.39 50.1707C46.6466 49.958 46.8873 49.7206 47.1362 49.4977Z" fill="#BABABA"/>
<path d="M50.0894 46.4824L10.2877 6.69727C10.0336 6.90787 9.79333 7.14558 9.54688 7.36702L49.4161 47.2265C49.638 46.9766 49.8758 46.736 50.0894 46.4824Z" fill="#BABABA"/>
<path d="M52.5434 42.9835L13.7796 4.23193C13.4851 4.40895 13.1797 4.56718 12.8906 4.75756L52.0162 43.8722C52.2081 43.5807 52.3649 43.2794 52.5434 42.9835Z" fill="#BABABA"/>
<path d="M54.5537 39.0317L17.7334 2.2251C17.4067 2.35623 17.0905 2.52529 16.7656 2.66943L54.1107 40.0002C54.2538 39.6758 54.4244 39.3612 54.5537 39.0317Z" fill="#BABABA"/>
<path d="M55.9378 34.4563L22.307 0.837402C21.9286 0.92049 21.5502 1.01839 21.1719 1.11592L55.6592 35.5954C55.7597 35.2157 55.8543 34.8389 55.9378 34.4563Z" fill="#BABABA"/>
<path d="M56.5823 29.1348L27.6406 0.20166C27.1889 0.213581 26.7408 0.232725 26.2891 0.266682L56.5198 30.4855C56.5523 30.0358 56.5714 29.586 56.5823 29.1348Z" fill="#BABABA"/>
<path d="M55.9851 22.581L34.1979 0.797255C33.6327 0.676959 33.0624 0.589181 32.4922 0.505371L56.2796 24.2842C56.1958 23.7146 56.1065 23.146 55.9851 22.581Z" fill="#BABABA"/>
<path d="M51.1646 11.7938L44.9941 5.62405C43.7857 4.74224 42.5371 3.94714 41.2344 3.28027L53.5106 15.5497C52.8431 14.2485 52.0456 13 51.1646 11.7938Z" fill="#BABABA"/>
</svg>
