<svg width="163" height="151" viewBox="0 0 163 151" fill="none" xmlns="http://www.w3.org/2000/svg">
<path d="M107.423 294.052C111.114 289.699 114.751 285.274 118.324 280.78C121.896 276.285 125.404 271.721 128.836 267.088C145.736 243.686 164.05 222.618 183.223 200.866C201.904 179.543 218.824 150.433 213.22 125.149C209.715 108.758 194.956 105.067 179.616 111.41C176.937 112.552 176.166 109.162 176.942 106.751C179.419 98.2571 185.945 92.2214 192.903 88.4722C199.133 84.9606 204.722 83.1409 210.892 82.3453C223.47 80.9475 236.599 76.4029 246.907 79.5203C243.997 80.198 241.211 80.7006 238.188 81.0107C225.616 82.1367 214.633 82.3417 201.996 86.4561C194.1 88.8919 183.858 93.8451 181.097 104.319C180.445 106.555 182.111 107.631 183.925 107.445C196.034 105.39 207.083 107.727 211.916 118.561C221.805 140.966 206.61 173.966 188.148 196.295C170.185 217.924 152.001 238.545 135.281 261.263C132.336 265.226 129.413 269.116 126.444 272.962C120.505 280.656 114.381 288.177 108.153 295.563L107.423 294.052Z" fill="#6F6F6F"/>
<path d="M105.586 289.636C109.322 285.396 112.952 281.076 116.479 276.674C120.006 272.272 123.429 267.787 126.757 263.218C141.378 243.236 156.855 225.64 174.278 207.411C196.025 184.668 217.463 153.926 211.195 125.591C209.64 119.347 206.228 115.193 201.334 112.601C194.166 108.995 185.025 112.917 177.242 120.987C175.385 123.076 172.822 124.316 170.912 123.318C169.244 122.241 168.686 120.127 168.496 117.759C168.086 108.847 173.241 99.4731 180.152 92.6323C185.212 87.6095 190.723 84.0599 196.561 82.1586C211.167 76.8622 226.728 72.0651 239.353 74.5691C219.834 78.09 198.031 75.6045 179.363 95.5893C173.674 101.762 168.128 112.479 172.839 117.965C173.782 119.008 175.473 118.997 176.701 118.057C189.23 108.307 204.596 106.949 209.515 119.522C225.081 159.006 180.429 202.167 151.599 234.102C144.546 241.934 138.335 249.897 131.975 258.36C129.093 262.191 126.338 265.923 123.546 269.606C117.962 276.97 112.167 284.151 106.197 291.163L105.586 289.636Z" fill="#6F6F6F"/>
<path d="M104.003 285.256C107.609 281.253 111.049 277.13 114.349 272.902C117.649 268.673 120.811 264.339 124.06 259.882C138.197 239.849 154.754 223.373 172.053 206.115C193.557 184.513 216.123 152.969 208.975 125.83C206.646 116.181 196.519 109.341 186.649 118.503C182.207 122.653 180.354 130.015 174.487 133.007C170.086 135.251 166.516 132.629 164.9 129.1C160.065 117.969 166.59 101.381 177.096 90.7957C182.161 85.767 187.311 82.468 193.048 79.9236C205.87 73.9907 219.274 69.0846 230.725 70.6268C213.252 73.6139 194.223 75.8912 177.672 92.0948C171.621 97.9855 167.351 105.324 165.724 113.422C164.49 120.177 164.823 127.098 169.48 129.771C172.349 131.27 176.755 128.753 178.887 125.221C184.16 116.204 192.986 110.627 200.053 113.597C205.441 116.032 209.088 120.657 210.145 127.611C216.873 168.539 177.837 201.392 150.14 229.876C139.385 240.813 130.661 252.845 121.933 265.115C119.207 268.874 116.393 272.552 113.493 276.156C110.594 279.76 107.61 283.29 104.544 286.752L104.003 285.256Z" fill="#6F6F6F"/>
<path d="M102.534 281.037C104.971 278.177 107.361 275.273 109.691 272.311C112.022 269.349 114.295 266.328 116.507 263.233C124.899 251.547 133.015 240.108 143.401 229.959C169.116 205.075 200.723 181.925 208.104 142.983C209.75 134.057 208.102 126.339 203.738 121.129C201.258 118.283 197.785 116.572 193.254 118.995C187.624 121.912 187.844 128.471 185.074 133.433C180.8 140.779 173.005 143.047 167.724 140.978C158.008 136.97 157.477 122.392 161.739 110.043C171.435 81.5794 201.23 69.44 221.72 67.7741C199.838 72.1938 168.498 83.0773 161.627 115.222C159.208 126.295 160.856 139.561 171.643 138.89C179.521 138.354 184.325 128.941 188.367 121.128C190.894 116.246 196.352 115.686 199.956 116.948C207.52 119.763 209.863 128.878 209.175 138.305C207.459 161.598 192.352 182.893 175.395 200.189C154.354 221.656 132.896 240.012 116.684 265.624C114.541 268.537 112.329 271.38 110.056 274.18C107.782 276.979 105.449 279.734 103.063 282.471L102.534 281.037Z" fill="#6F6F6F"/>
<path d="M100.98 277.14C103.282 274.522 105.477 271.825 107.578 269.058C109.68 266.291 111.692 263.454 113.701 260.555C128.023 238.019 147.408 221.544 166.447 204.233C183.26 189.003 199.412 170.735 205.244 147.699C207.762 137.8 207.761 126.69 200.324 123.15C198.282 122.325 194.864 123.437 193.709 126.388C191.4 132.289 191.966 139.692 186.792 143.545C176.201 151.33 162.387 151.222 158.141 140.274C152.513 125.983 156.238 105.123 170.133 90.3003C182.665 76.8699 198.24 68.4104 212.339 66.529C197.818 71.1225 182.534 77.3189 170.109 91.392C155.816 107.835 151.323 136.126 165.322 144.44C170.109 147.217 177.028 146.725 183.178 142.554C188.221 139.15 190.655 133.073 191.387 127.279C191.964 123.027 195.894 120.663 198.918 120.898C200.972 121.177 202.89 122.179 203.938 124.141C215.497 144.36 196.143 176.135 177.437 194.828C155.267 216.817 131.494 234.45 114.726 261.534C112.674 264.486 110.603 267.375 108.428 270.195C106.253 273.015 103.975 275.765 101.574 278.438L100.98 277.14Z" fill="#6F6F6F"/>
<path d="M99.1392 273.71C101.567 271.018 103.832 268.214 105.957 265.317C123.415 235.136 149.549 216.319 173.827 193.493C189.314 178.82 203.947 158.728 204.404 137.69C204.458 135.231 203.772 133.284 202.716 131.593C201.536 130.079 198.758 129.491 197.738 131.722C190.992 146.262 183.005 162.02 169.521 168.31C172.871 164.913 178.265 156.781 172.685 156.699C150.961 156.854 146.935 129.952 156.536 106.886C165.619 85.346 186.066 71.3641 203.651 66.1808C186.388 73.2939 166.353 85.1073 157.872 106.858C152.102 121.08 151.525 136.46 157.738 146.509C162.073 153.643 170.705 152.867 178.074 154.402C179.522 154.744 180.816 156.629 181.43 156.293C190.163 150.872 191.992 139.29 196.075 130.093C196.963 128.312 199.186 126.503 200.874 127.039C202.68 127.671 203.986 129.009 204.546 131.133C206.866 141.636 203.446 153.872 197.134 165.151C181.857 192.506 158.216 208.342 136.792 228.203C124.906 239.127 116.115 252.841 106.842 266.183C104.663 269.164 102.344 272.054 99.8555 274.833L99.1392 273.71Z" fill="#6F6F6F"/>
<path d="M96.8876 270.81C99.3101 268.066 101.55 265.211 103.635 262.261C121.144 231.64 148.007 213.665 172.538 191.292C186.043 178.887 199.149 162.54 201.259 143.666C201.414 142.122 201.08 140.738 199.875 140.316C199.392 140.202 198.532 140.617 198.157 141.147C175.877 177.31 133 194.526 110.113 174.831C110.972 174.416 111.563 175.174 112.165 175.385C127.57 181.771 147.718 182.27 164.582 166.193C166.938 163.933 164.188 161.978 162.619 161.538C142.93 156.683 145.135 127.869 154.476 105.962C162.659 87.0109 179.727 72.7678 195.518 66.9483C179.679 74.9549 162.403 87.6372 154.81 107.347C146.322 129.111 147.345 154.703 165.316 160.389C166.885 160.828 168.782 162.925 167.535 164.417C157.663 177.268 142.807 179.118 130.738 181.283C154.09 185.217 182.54 166.862 198.347 137.963C198.98 136.807 200.328 136.232 201.044 136.814C202.363 137.606 202.804 139.634 202.643 141.451C201.672 152.625 196.584 163.24 189.939 172.868C175.408 193.343 156.162 207.209 137.86 222.397C124.628 233.355 114.839 247.943 105.124 262.611C102.907 265.76 100.479 268.808 97.7801 271.73L96.8876 270.81Z" fill="#6F6F6F"/>
<path d="M94.158 268.426C96.579 265.652 98.7977 262.777 100.853 259.817C116.022 232.696 139.484 215.012 162.098 197.198C175.076 186.864 189.456 173.495 193.846 155.911C194.234 154.835 192.277 155.472 191.531 156.257C170.958 175.172 147.376 187.193 126.06 184.358C108.015 181.952 96.908 167.648 83.397 157.793C87.8483 154.172 92.1687 156.566 95.1588 158.715C104.833 166.291 113.611 175.922 127.193 176.93C136.287 177.635 148.801 177.498 157.154 167.584C150.363 161.514 142.229 155.746 142.627 142.991C143.645 112.93 162.373 78.326 189.702 67.1214C162.325 80.5134 143.507 113.654 144.788 144.188C145.38 156.077 153.663 160.576 159.476 166.964C155.197 173.787 147.273 175.145 141.288 176.686C120.516 182.362 107.691 168.889 93.434 159.82C92.5986 159.141 91.393 158.719 90.0444 159.294C100.805 172.76 114.281 184.256 133.233 184.06C153.283 183.641 174.651 172.884 191.716 153.347C192.963 151.855 194.335 150.186 195.916 150.079C198.226 150.006 196.8 154.135 195.905 156.191C191.133 169.012 182.636 179.923 172.845 188.948C157.969 202.75 142.796 213.527 127.926 227.056C117.395 236.593 109.841 248.826 101.804 260.559C99.7673 263.501 97.5923 266.362 95.2555 269.126L94.158 268.426Z" fill="#6F6F6F"/>
<path d="M90.9742 266.366C93.8602 263.302 96.3743 260.073 98.631 256.717C113.334 227.904 138.41 212.147 161.355 194.103C169.128 187.912 177.401 181.015 181.498 171.006C182.011 169.755 179.932 170.567 179.193 171.079C153.282 186.158 126.858 191.374 107.128 178.686C97.2033 172.294 89.3392 160.351 74.5904 163.934C73.7386 164.075 72.4043 164.103 72.5412 163.381C74.3812 156.817 81.064 150.575 86.3777 151.555C96.6476 153.227 101.885 163.314 110.135 168.625C120.304 174.938 132.962 178.271 147.163 172.02C149.242 171.208 150.636 168.45 148.961 167.368C132.46 156.747 137.783 129.394 148.092 106.924C156.358 89.1862 170.111 75.6257 185.342 66.5998C185.586 66.5201 185.33 67.1459 185.574 67.0662C172.416 75.5529 159.813 86.4348 151.582 102.534C139.301 126.459 132.943 156.861 152.119 167.154C153.674 168.138 151.321 170.396 149.969 171.243C144.441 174.533 139.33 175.385 133.862 175.945C114.669 177.586 104.553 163.259 91.4116 154.254C88.6651 152.302 84.4357 151.646 80.7369 154.477C78.7654 155.932 74.5601 159.742 75.8884 159.987C90.8522 163.247 100.057 174.889 113.496 181.357C134.382 191.093 160.519 182.311 184.399 165.86C186.12 164.757 186.561 166.782 185.429 168.642C174.965 187.095 158.728 197.805 143.45 209.015C126.075 221.858 110.809 238.079 99.2017 258.147C97.1164 261.162 94.835 264.074 92.299 266.863L90.9742 266.366Z" fill="#6F6F6F"/>
<path d="M86.9909 264.977C91.0651 260.262 94.8821 255.168 98.3511 249.804C104.773 241.441 109.23 231.456 117.144 224.003C132.848 209.273 151.416 202.142 164.995 184.854C165.87 183.621 164.429 183.006 163.578 183.148C133.918 193.484 109.749 185.238 90.102 169.56C84.9776 165.676 77.9312 166.616 70.451 170.813C68.4871 171.994 66.5887 170.175 67.1239 167.833C68.9801 160.457 74.6985 153.719 80.9412 150.738C86.2019 148.348 90.2728 150.543 93.6117 152.977C100.057 157.379 105.259 163.27 111.705 167.671C118.514 172.091 126.096 174.362 135.451 173.076C137.879 172.827 142.872 171.607 142.069 169.566C137.824 158.624 131.622 148.59 135.108 133.098C141.658 104.825 160.401 78.4051 183.587 65.0309C159.009 81.1611 139.867 109.201 135.567 139.856C133.836 152.608 139.116 160.505 144.884 168.243C145.943 169.659 143.36 171.448 142.015 172.022C133.214 175.7 125.489 174.424 118.281 171.624C109.991 168.5 104.307 162.496 98.1345 156.651C93.5041 152.335 87.9033 148.064 80.1849 152.067C74.9185 154.731 69.9674 159.593 68.498 165.896C68.2244 167.339 68.9207 168.738 70.0217 168.244C77.4844 164.866 84.0129 165.448 89.6433 168.355C99.94 173.941 108.243 182.072 119.8 185.351C134.971 189.62 151.652 185.678 168.999 178.945C170.219 178.547 172.392 178.923 171.142 180.685C165.882 188.628 158.378 193.917 151.35 199.591C137.663 210.685 121.75 218.305 110.873 233.902C107.243 239.282 103.738 244.487 100.051 249.755C96.4946 255.202 92.6297 260.387 88.5426 265.334L86.9909 264.977Z" fill="#6F6F6F"/>
<path d="M82.2511 263.997C86.0886 259.668 89.7251 255.083 92.9202 250.234C96.6889 245.013 99.7168 239.424 103.107 233.852C111.524 219.872 125.1 213.691 136.557 204.679C140.62 201.596 145.641 199.013 147.324 193.997C148.353 191.225 144.474 191.405 142.535 191.495C123.271 191.946 107.927 184.758 94.0998 174.638C87.3051 169.675 78.1792 171.699 68.8866 175.809C65.0972 177.449 63.7639 171.926 65.5542 167.552C68.2484 160.581 72.2813 153.311 78.6408 150.427C93.0792 143.559 100.035 157.812 108.859 164.145C112.791 167.062 116.724 169.978 121.668 170.941C125.886 171.869 130.812 173.649 135.625 169.509C135.994 169.254 136.13 168.532 136.012 168.436C127.193 150.727 129.915 125.74 143.483 103.179C153.917 85.564 167.89 72.2127 183.375 61.7541C183.5 61.578 183.363 62.2992 183.238 62.4753C159.646 78.2827 139.843 103.552 133.028 132.986C129.817 147.029 132.84 158.366 138.445 167.913C139.379 169.505 136.56 171.1 135.096 171.577C127.666 173.59 121.657 171.486 115.659 168.835C107.027 164.877 101.374 157.511 93.9848 152.064C90.0459 149.42 85.2505 147.191 79.3669 150.461C73.6024 153.828 68.5162 159.411 66.1908 166.126C65.4117 168.546 65.2394 170.904 65.9239 172.847C66.6082 174.791 68.7798 175.167 70.4991 174.065C78.2444 168.7 86.0024 168.339 91.4881 172.239C108.891 184.985 128.102 192.539 153.238 189.363C154.088 189.221 154.796 190.074 154.166 191.227C152.275 194.686 149.205 196.634 146.492 198.871C132.078 210.2 115.32 217.959 104.66 234.835C101.276 240.134 98.1292 245.627 94.3139 250.904C91.2209 255.589 87.7595 260.028 84.0283 264.279L82.2511 263.997Z" fill="#6F6F6F"/>
<path d="M76.9008 263.086C80.1217 259.627 83.015 255.951 85.625 252.106C97.9506 229.861 115.006 213.75 133.851 198.815C134.713 198.128 133.904 196.361 132.941 196.133C117.662 191.77 104.625 184.511 91.2368 176.69C85.4974 173.415 78.0456 176.519 70.719 179.447C66.5681 181.069 63.243 178.091 63.0999 173.536C62.7958 165.243 69.0215 157.26 75.0753 151.634C80.7544 146.536 87.3081 145.756 92.09 148.529C104.039 155.737 111.587 170.468 128.198 169.254C130.142 168.892 131.641 166.779 130.957 164.837C116.002 128.831 148.19 79.2323 184.115 58.1933C184.115 58.1933 183.496 58.8007 183.609 59.17C158.793 75.9146 134.971 102.622 129.17 135.642C127.09 147.824 129.059 157.469 133.104 166.303C133.574 166.962 133.057 168.484 132.076 169.075C122.912 173.007 116.369 167.693 110.16 163.76C102.636 159.037 97.8415 151.259 89.1997 147.847C79.7135 144.304 69.0452 156.17 64.6871 167.335C63.7836 169.93 63.1236 172.446 63.8018 174.661C64.5871 177.519 67.0793 179.82 69.6543 178.305C83.3855 170.314 93.8118 175.175 102.501 181.955C112.499 189.797 125.405 191.956 138.174 194.835C140.583 195.404 139.423 198.624 137.33 200.253C125.633 209.342 112.662 215.731 103.184 228.563C97.4453 236.388 92.6588 244.985 87.1959 253.125C84.7545 256.723 82.0084 260.159 78.8814 263.383L76.9008 263.086Z" fill="#6F6F6F"/>
<path d="M71.0215 261.97C74.5157 258.501 78.3447 254.953 80.7404 250.519C90.2461 230.779 104.872 214.919 121.364 202.24C124.194 200.101 121.352 197.237 119.556 196.334C111.172 192.298 103.275 188.104 96.0088 182.757C89.6935 178.183 81.3157 179.422 72.5339 182.553C68.1458 183.982 63.5735 182.765 62.5859 178.08C61.0451 171.003 64.8733 161.908 69.8612 155.141C73.6009 150.134 78.7792 145.741 83.869 145.437C97.3247 144.438 102.362 157.683 112.287 163.246C115.873 165.327 121.944 169.98 126.427 164.19C114.573 124.883 148.323 75.4594 185.346 53.6585C185.59 53.5789 184.716 54.811 184.716 54.811C148.281 77.3675 115.137 126.729 127.854 165.349C128.199 166.184 126.843 167.302 125.868 167.62C118.471 168.269 113.601 164.037 108.226 160.78C99.3953 154.996 92.9366 140.319 78.4827 148.274C69.5405 153.216 63.0009 164.548 62.4195 174.616C62.0751 179.329 65.512 182.675 69.7693 181.694C78.0341 180.086 86.4831 175.575 93.0478 179.797C102.604 185.616 111.44 191.128 122.113 195.636C124.153 196.461 127.275 197.609 126.115 200.828C125.343 202.975 123.619 204.348 121.9 205.449C108.868 214.836 95.3355 224.926 88.4339 241.789C87.156 244.912 84.9147 247.807 83.0472 250.621C80.1499 254.888 76.7854 258.808 73.1748 262.384L71.0215 261.97Z" fill="#6F6F6F"/>
<path d="M64.8188 260.218C67.9036 257.111 71.0243 253.86 73.7909 250.304C76.5573 246.748 78.9802 242.892 80.7589 238.612C86.6339 224.029 97.9922 213.299 109.547 204.668C111.638 203.041 112.066 200.062 110.889 198.552C101.549 188.749 90.1113 180.846 74.0526 185.264C65.2897 187.848 58.6824 180.264 61.6934 169.684C64.5798 159.279 71.9222 149.721 81.0828 145.521C88.2889 142.227 93.6484 146.026 98.4075 149.614C105.312 154.667 111.45 167.135 122.084 161.914C122.94 161.501 122.987 159.322 122.773 158.039C114.142 115.554 151.757 70.7175 186.457 48.7348C186.202 49.3587 186.309 50.0001 185.941 50.2552C150.985 72.8618 114.333 117.926 123.95 159.549C124.289 160.656 124.247 162.562 122.899 163.407C117.873 166.531 113.844 162.705 110.386 160.451C102.27 155.522 97.1657 145.556 86.7866 144.61C75.8014 143.725 64.6037 158.189 61.5394 171.221C59.2887 180.202 65.2185 185.572 72.6151 184.651C79.6492 183.712 86.7427 180.05 92.3514 183.496C100.462 188.697 110.924 191.374 115.429 201.13C115.655 201.868 115.019 203.292 114.033 204.154C104.557 211.702 94.1371 218.205 87.5852 230.345C83.8074 237.254 81.1227 243.943 76.4679 250.141C73.6473 254.018 70.4249 257.571 67.0873 260.824L64.8188 260.218Z" fill="#6F6F6F"/>
<path d="M58.5292 257.851C61.5958 255.118 64.6422 252.211 67.2754 248.995C69.9093 245.779 72.1299 242.253 73.548 238.282C78.1848 224.884 87.9764 213.457 98.3202 204.415C99.5486 203.475 100.67 201.894 100.581 200.438C100.129 193.426 94.5145 190.528 89.3449 189.375C82.49 187.96 75.1126 188.337 68.1331 187.099C64.768 186.304 61.7886 184.437 61.0343 180.226C58.6768 166.407 68.7464 147.731 82.2598 142.925C88.8357 140.513 93.7203 143.65 98.1184 146.944C104.184 151.317 108.357 159.412 116.696 159.263C118.506 159.349 119.171 156.566 119.088 154.838C115.469 110.095 152.273 67.45 187.091 43.9562C187.08 44.5003 186.937 45.4919 186.694 45.5711C150.416 69.541 114.793 113.422 119.973 158.601C120.068 159.786 118.715 160.902 117.753 160.675C107.64 159.106 102.048 149.582 93.697 144.738C89.2811 142.259 83.8507 142.002 78.213 145.729C69.2638 151.749 62.024 162.481 60.7018 173.312C58.763 190.285 76.1162 186.66 86.7398 186.982C94.1052 187.15 99.4412 191.76 103.911 197.328C105.08 199.108 105.134 202.197 102.92 203.998C92.0955 212.926 81.9596 223.52 76.6173 237.444C75.0415 241.711 72.7525 245.596 70.0228 249.121C67.2932 252.646 64.1229 255.811 60.8177 258.653L58.5292 257.851Z" fill="#6F6F6F"/>
<path d="M52.2746 254.911C57.6453 250.447 61.7909 244.905 65.187 238.853C66.885 235.827 68.396 232.674 69.7911 229.471C72.8869 219.424 79.3319 211.659 86.7318 204.391C89.4474 201.618 90.384 197.4 88.3736 195.491C82.8168 190.149 73.845 191.991 66.9124 188.851C61.2967 186.226 57.9336 179.9 59.8067 171.464C61.9758 160.503 69.1976 150.325 77.9022 144.117C92.0025 133.994 100.389 147.995 109.557 153.78C110.749 154.472 112.184 155.084 113.886 154.53C115.226 153.958 115.866 152.265 116.02 150.731C117.744 132.494 121.277 114.342 131.913 96.98C146.439 72.8193 166.848 55.6489 186.884 39.005C186.872 39.5486 186.973 40.4602 186.605 40.7148C152.861 66.141 116.87 106.061 117.23 150.607C117.195 152.238 117.029 154.316 115.552 155.606C113.098 157.485 110.838 155.927 109.172 154.85C102.127 151.342 98.1944 143.447 90.1472 141.614C84.3831 140.253 77.4276 143.732 71.7415 149.901C64.6974 157.457 59.1718 167.353 59.9436 176.277C61.2737 192.845 79.229 188.618 90.2355 193.13C93.4617 194.644 95.7686 199.559 91.5768 203.623C82.6947 212.452 74.2751 222.211 70.3937 234.27C68.9073 238.733 66.5889 242.659 63.8184 246.211C61.0479 249.764 57.825 252.942 54.5308 255.912L52.2746 254.911Z" fill="#6F6F6F"/>
<path d="M46.2077 251.34C51.6609 246.219 56.2688 240.349 59.8558 233.862C61.6494 230.619 63.1879 227.22 64.4539 223.688C66.0243 219.591 66.5986 215.36 68.0145 211.259C69.1697 208.051 72.5828 206.401 74.467 202.956C75.8472 200.485 76.3922 197.611 74.8512 196.36C69.8733 192.318 63.4022 190.38 60.3014 184.071C59.0453 181.697 58.3014 178.968 58.2602 175.92C58.2191 172.873 58.88 169.506 60.4368 165.865C65.5141 154.235 74.2296 141.691 85.1445 138.946C95.2121 136.342 100.463 144.475 107 148.953C109.139 150.413 112.54 149.306 113.352 145.267C116.852 128.488 119.968 112.779 129.115 96.9925C143.915 70.8725 165.4 53.4967 185.356 34.3266C185.587 34.7904 185.818 35.2546 186.05 35.7186C152.4 63.3913 116.956 101.49 114.134 148.113C113.82 151.451 110.312 151.919 108.529 150.747C101.5 146.699 96.9664 138.872 87.5504 139.241C77.4115 139.576 67.653 150.169 62.5817 161.526C59.7913 167.828 58.2098 174.005 59.2886 179.856C61.0733 192.082 74.3942 189.633 80.0186 197.239C83.77 202.219 73.7622 207.635 70.8651 213.297C68.8447 217.46 68.152 221.595 66.4165 225.777C65.0763 229.161 63.5258 232.472 61.7508 235.645C58.2004 241.992 53.7526 247.789 48.3819 252.572L46.2077 251.34Z" fill="#6F6F6F"/>
<path d="M40.5189 247.141C48.9939 238.822 57.6514 228.729 58.639 216.551C59.0119 213.264 58.9597 210.115 59.2097 206.935C59.4596 203.755 60.0116 200.545 61.5977 197.15C62.0993 196.461 61.753 195.623 61.5206 195.156C60.0478 190.636 58.1253 186.103 57.2824 181.208C56.4395 176.312 56.6744 171.049 59.5164 165.072C61.4143 160.951 63.586 157.168 65.9801 153.679C71.5074 145.81 78.5364 138.537 86.5372 136.472C94.6564 134.502 99.7265 139.723 105.809 142.727C108.788 144.317 111.18 139.632 111.974 136.41C113.85 127.716 116.076 119.581 119.51 111.323C126.242 95.5246 135.355 81.1069 146.612 67.877C158.236 54.3929 170.405 43.5609 182.983 30.5753C183.107 30.3998 183.327 31.4063 183.806 31.5196C168.244 48.7104 150.461 62.7174 136.664 81.8934C123.98 99.7636 116.318 119.502 112.003 140.576C111.198 144.341 108.024 146.183 105.762 144.899C98.9684 141.317 93.4599 134.084 83.73 138.06C75.8243 141.307 69.2808 148.421 64.3921 156.211C62.5482 159.203 60.9976 162.347 59.8333 165.636C58.6692 168.926 57.8912 172.36 57.5926 175.937C57.1875 180.717 58.5293 184.154 60.3963 187.238C62.0773 191.452 67.3367 193.512 66.2416 199.527C65.8332 201.681 63.6304 203.206 63.2219 205.36C62.4049 209.668 62.0797 213.546 60.9988 217.775C60.0083 221.663 58.6783 225.48 56.9938 229.143C53.6246 236.469 48.8366 243.177 42.5083 248.599L40.5189 247.141Z" fill="#6F6F6F"/>
<path d="M35.4516 242.48C41.2118 236.568 47.7232 230.813 50.5463 222.892C54.1273 213.378 52.2615 204.963 52.3376 195.916C52.2181 184.779 52.9451 173.5 58.8638 161.744C60.9612 157.65 63.3015 153.922 65.8336 150.488C75.9644 134.498 91.9776 129.555 104.28 134.573C105.718 134.913 107.696 132.653 108.459 130.789C118.787 104.67 130.654 79.8004 150.638 58.4836C160.754 47.6499 169.882 37.946 179.525 26.7282C179.525 26.7282 180.235 27.3048 180.709 27.6894C178.105 31.0957 175.506 34.2306 172.428 37.2523C145.713 63.3185 121.71 92.1377 111.276 128.659C110.099 132.947 106.329 140.1 103.25 137.601C91.7464 129.091 73.5016 136.915 63.8266 154.128C61.3031 158.024 59.2007 162.15 57.6576 166.508C56.1149 170.867 55.1315 175.459 54.8456 180.287C54.7749 183.542 55.1957 186.367 54.8821 189.701C53.8351 199.064 55.3574 206.648 54.5534 215.932C53.702 227.385 44.9472 236.564 37.2169 244.066L35.4516 242.48Z" fill="#6F6F6F"/>
<path d="M30.8634 237.642C38.5746 230.766 47.2093 221.494 47.3265 210.552C47.3367 193.452 46.388 176.125 57.1289 158.629C59.4183 154.922 61.8828 151.457 64.4876 148.19C75.2677 133.34 89.5196 126.143 104.5 124.229C106.435 123.869 108.069 120.779 109.087 118.294C122.791 86.371 143.854 59.5919 166.487 34.8171C172.254 27.2868 175.302 23.04 175.302 23.04L176.732 24.2014C173.694 28.0711 171.072 32.2902 167.498 36.0114C141.73 63.1102 121.348 91.8217 107.116 125.801C106.732 126.869 105.382 127.981 104.66 127.947C93.5742 128.055 81.7307 129.755 71.8312 141.018C68.8273 144.063 65.9667 147.45 63.3024 151.144C60.638 154.839 58.1686 158.829 55.9458 163.187C46.7673 180.848 49.5684 196.091 49.0907 212.535C48.6122 223.461 40.1078 232.287 32.4819 239.274L30.8634 237.642Z" fill="#6F6F6F"/>
<path d="M26.5467 232.778C34.5581 226.905 41.3802 217.821 42.6928 207.3C44.1593 195.248 43.1936 184.258 47.5536 172.072C50.8883 162.732 55.7664 154.43 61.5648 146.875C64.464 143.098 67.5937 139.507 70.8786 136.126C80.7415 124.798 92.9966 120.675 104.601 113.265C106.311 112.17 107.796 110.34 108.808 108.127C124.019 78.816 143.439 55.4034 163.012 31.093C168.306 23.7762 171.308 19.5476 171.308 19.5476L172.739 20.7088C172.739 20.7088 169.732 24.9391 164.242 32.3516C144.261 56.3471 124.227 80.3636 109.974 109.901C107.826 114.503 104.613 118.24 100.494 119.311C88.9729 122.926 77.7475 129.541 68.4626 140.307C65.7214 143.352 63.0965 146.555 60.6241 149.955C58.1518 153.354 55.832 156.951 53.701 160.785C45.0568 176.114 44.7328 191.024 44.6514 205.856C44.5283 217.066 36.9487 227.743 28.0907 234.41L26.5467 232.778Z" fill="#6F6F6F"/>
<path d="M22.3774 227.967C37.2686 218.302 39.4678 200.229 41.7382 184.42C43.7136 170.405 49.4103 158.169 57.1128 147.15C59.6801 143.476 62.4708 139.938 65.4203 136.514C76.4336 122.939 89.8757 113.99 103.087 104.577C104.803 103.212 106.524 101.575 107.773 99.5541C123.621 74.0786 141.221 51.128 159.159 27.5342C164.316 20.2794 167.318 16.0515 167.318 16.0515L168.748 17.2124C168.748 17.2124 165.746 21.4406 160.562 28.7076C143.629 51.1516 125.709 72.1881 111.547 97.6532C108.79 102.587 104.974 106.386 100.691 109.529C89.5626 117.321 78.2091 124.38 68.5802 135.217C65.8329 138.171 63.1499 141.256 60.5495 144.525C46.8066 161.779 41.6671 182.155 40.5151 201.906C39.7945 212.906 32.4705 222.959 23.8673 229.577L22.3774 227.967Z" fill="#6F6F6F"/>
<path d="M18.2763 223.265C26.6934 216.858 34.1171 207.716 35.3168 196.832C37.8909 175.345 47.1195 156.568 59.4672 139.702C62.5542 135.486 65.8361 131.389 69.2578 127.399C79.1043 115.723 90.3908 106.131 101.559 96.4425C109.042 90.106 114.525 81.5955 120.003 73.3558C131.324 56.6226 143.355 40.4651 155.181 24.0351C160.326 16.7886 163.327 12.5615 163.327 12.5615L164.757 13.7222C164.757 13.7222 161.756 17.9496 156.611 25.1961C143.657 43.1919 130.158 60.3647 118.074 78.9608C113.212 86.5964 108.107 94.3115 101.358 100.14C89.9532 109.636 78.56 118.59 68.4598 130.227C65.7582 133.254 63.1253 136.362 60.5768 139.578C58.0286 142.793 55.5645 146.118 53.2015 149.577C41.7558 166.485 39.6754 184.651 35.2996 203.161C33.1707 212.463 26.4036 219.105 19.7458 224.829L18.2763 223.265Z" fill="#6F6F6F"/>
</svg>
