<svg width="255" height="237" viewBox="0 0 255 237" fill="none" xmlns="http://www.w3.org/2000/svg">
<path d="M-28.6326 147.915C-22.9136 146.918 -17.1969 145.83 -11.4921 144.644C-5.7878 143.459 -0.0951848 142.176 5.57552 140.79C33.8531 133.501 61.9068 128.973 91.0936 124.472C119.609 119.985 151.347 108.226 161.903 84.6918C168.855 69.5181 158.715 56.9335 142.035 51.8484C139.101 50.9872 140.501 47.8185 142.605 46.4344C149.805 41.3892 158.913 40.9311 167.005 42.5532C174.343 43.8832 180.124 46.1219 185.774 49.5467C197.156 56.7031 210.898 61.7498 217.655 70.9629C214.807 69.5852 212.17 68.1515 209.45 66.4113C198.237 59.0455 188.911 51.9981 175.84 46.9366C167.755 43.6684 156.186 40.8371 147.553 47.2514C145.659 48.5793 146.406 50.5174 148.037 51.5614C159.423 57.8947 167.272 66.9808 164.784 78.6609C159.555 102.747 126.917 118.692 97.9774 124.114C69.8789 129.312 42.2039 133.575 14.49 140.445C9.63122 141.624 4.83609 142.761 0.0275153 143.833C-9.58939 145.978 -19.2581 147.866 -28.9323 149.58L-28.6326 147.915Z" fill="#6F6F6F"/>
<path d="M-27.5839 143.429C-21.9013 142.552 -16.2589 141.543 -10.6534 140.401C-5.04847 139.26 0.520167 137.986 6.05928 136.583C30.3412 130.493 53.9007 126.835 79.4709 123.957C111.381 120.373 147.854 110.31 159.682 83.9697C162.143 78.0514 161.79 72.5551 159.254 67.3127C155.428 59.7843 145.411 56.8671 134.033 58.0952C131.219 58.5172 128.326 57.8094 127.328 55.7738C126.582 53.8358 127.389 51.8116 128.657 49.829C133.684 42.5681 143.648 38.5935 153.556 37.7578C160.818 37.1348 167.571 37.9633 173.603 40.2992C189.022 45.7208 204.94 52.1596 214 62.4018C195.539 52.3665 178.784 36.1212 151.113 39.5603C142.631 40.6733 131.53 45.4444 132.168 52.8375C132.329 54.2742 133.751 55.3746 135.346 55.4421C151.71 56.0075 165.392 65.0162 161.933 78.1067C151.17 119.29 87.7805 123.876 44.4018 130.028C33.7775 131.548 23.7797 133.723 13.3551 136.193C8.63394 137.309 4.07842 138.43 -0.477818 139.489C-9.59007 141.606 -18.7689 143.44 -27.9923 145.027L-27.5839 143.429Z" fill="#6F6F6F"/>
<path d="M-26.3596 139.118C-20.9343 138.343 -15.5772 137.365 -10.2723 136.213C-4.96789 135.061 0.284981 133.735 5.68469 132.37C29.5642 125.931 53.3263 123.864 78.1799 121.67C109.164 118.827 147.02 108.887 157.378 82.9395C161.238 73.8527 156.886 61.8601 143.119 62.5752C136.906 62.9183 130.926 67.4736 124.219 65.9755C119.188 64.8517 117.781 60.4592 118.554 56.6357C121.21 44.7459 136.651 36.0211 151.807 34.6067C159.07 33.9835 165.361 34.7708 171.69 36.5349C185.984 40.2834 200.145 45.2177 208.793 53.9263C192.384 44.8232 175.1 34.1446 151.507 36.0021C142.901 36.655 134.914 39.6087 128.679 44.8899C123.581 49.3745 119.694 55.0156 121.979 60.1606C123.476 63.2139 128.675 64.1284 132.584 62.756C142.421 59.1441 153.158 60.5537 157.281 67.5096C160.319 72.9467 160.586 78.9592 157.284 85.1021C138.276 121.58 85.8595 121.758 45.5534 125.938C29.9771 127.465 15.44 131.18 0.756905 135.078C-3.78546 136.239 -8.35265 137.278 -12.9465 138.203C-17.5399 139.128 -22.1603 139.939 -26.8079 140.645L-26.3596 139.118Z" fill="#6F6F6F"/>
<path d="M-25.1495 134.991C-21.394 134.347 -17.6528 133.638 -13.9256 132.844C-10.1979 132.05 -6.48377 131.173 -2.775 130.197C11.2601 126.541 24.9156 122.896 39.6927 121.748C76.1311 119.092 116.448 121.65 146.025 95.9986C152.767 90.0888 156.031 82.9696 155.516 76.0367C155.156 72.1867 153.284 68.5755 148.043 67.5081C141.587 66.1073 137.828 71.3854 132.531 73.457C124.544 76.4106 116.67 73.0866 113.503 68.0125C107.797 58.5193 116.118 46.762 127.102 39.8845C152.312 23.9482 184.497 33.9382 202.613 46.0386C181.679 35.1833 148.959 23.1992 123.895 43.8645C115.218 50.9487 108.618 62.4108 118.031 68.9417C124.934 73.6764 134.605 69.4507 142.679 65.9808C147.724 63.812 152.621 66.9449 154.871 70.29C159.496 77.4411 155.974 86.1092 149.731 93.0365C134.294 110.146 108.874 116.93 84.3126 119.375C53.8317 122.414 24.8737 122.743 -4.06557 132.184C-7.60679 133.063 -11.1635 133.841 -14.745 134.544C-18.3266 135.248 -21.9322 135.878 -25.571 136.46L-25.1495 134.991Z" fill="#6F6F6F"/>
<path d="M-24.2165 131.043C-20.7249 130.5 -17.2744 129.826 -13.8603 129.036C-10.4458 128.246 -7.06392 127.342 -3.64737 126.389C21.8307 118.129 47.8924 117.914 74.1678 116.821C97.3373 115.899 121.778 112.17 140.476 97.9727C148.519 91.8801 155.189 83.194 151.111 75.5681C149.903 73.5888 146.384 72.2258 143.649 73.7778C138.18 76.8816 134.207 83.0393 127.578 82.6709C114.069 81.8372 102.612 72.7279 105.643 61.3959C109.529 46.5472 125.162 32.6743 145.653 30.1646C164.17 27.8535 182.241 31.4159 195.131 39.1563C180.26 33.2598 163.791 28.1187 144.977 31.003C123.181 34.5184 102.447 53.699 109.132 69.3433C111.458 74.6418 117.524 78.7776 125.158 79.5352C131.408 80.1691 137.088 77.009 141.177 72.9578C144.212 70.0106 148.909 70.73 151.291 72.8893C152.836 74.4498 153.834 76.4855 153.531 78.7041C151.032 102.061 115.809 114.257 88.9825 116.649C57.2859 119.354 26.869 117.607 -3.37976 127.824C-6.86353 128.791 -10.3265 129.696 -13.8336 130.48C-17.3408 131.264 -20.8925 131.925 -24.5001 132.446L-24.2165 131.043Z" fill="#6F6F6F"/>
<path d="M-23.8124 127.264C-20.1754 126.746 -16.6065 126.034 -13.0987 125.159C19.5486 112.983 52.607 115.34 86.5244 113.358C108.227 112.005 132.469 105.864 145.468 89.7341C146.987 87.8488 147.583 85.8808 147.719 83.8719C147.643 81.9191 145.681 79.6476 143.494 80.7243C129.153 87.6761 113.047 94.7698 98.0413 90.8825C102.869 90.4161 112.241 87.5859 107.641 83.8809C89.4503 69.8276 102.231 46.1925 124.065 34.446C144.552 23.5526 169.972 25.9755 187.732 33.4026C169.083 27.6925 145.306 23.8444 125.194 35.2957C111.858 42.6366 102.153 54.27 101.301 66.1712C100.633 74.5706 108.29 79.5969 113.509 85.603C114.51 86.8154 114.458 89.1317 115.171 89.2702C125.698 90.7358 134.168 82.8845 143.086 78.367C144.894 77.5555 147.831 77.5935 148.915 79.113C150.041 80.7858 150.326 82.6827 149.519 84.7067C145.153 94.422 134.964 101.745 122.94 106.434C93.8061 117.827 64.6118 114.767 34.8512 116.297C18.3971 117.072 2.84726 122.044 -12.8805 126.413C-16.4841 127.318 -20.1487 128.062 -23.889 128.608L-23.8124 127.264Z" fill="#6F6F6F"/>
<path d="M-24.1069 123.62C-20.4462 123.058 -16.8697 122.29 -13.3661 121.348C19.5643 108.867 52.7012 112.354 86.5322 110.888C105.211 110.014 125.919 105.802 138.989 92.4487C140.044 91.3451 140.595 90.047 139.845 88.9318C139.511 88.5278 138.547 88.2917 137.916 88.4602C97.693 102.155 51.6808 87.635 44.4331 57.3427C45.3971 57.5787 45.4347 58.5551 45.8099 59.1129C54.8057 74.1401 71.2788 87.6656 94.9544 86.1151C98.2706 85.8875 97.1528 82.5686 96.1099 81.2026C82.6304 64.5763 101.737 43.5284 122.644 32.5223C140.816 23.0686 163.561 23.0816 180.195 28.8362C162.211 24.7572 140.227 23.3902 122.093 33.8209C101.981 45.2719 87.4924 65.9097 99.0437 82.0639C100.087 83.4299 100.409 86.3034 98.4774 86.6544C82.5559 90.2462 69.0806 82.0041 57.7358 75.8245C74.8168 94.1203 109.503 98.3455 139.984 86.0995C141.203 85.6096 142.67 86.0404 142.917 86.9607C143.54 88.4388 142.693 90.3093 141.469 91.6222C133.963 99.7092 123.365 104.675 112.062 107.856C87.6925 114.361 63.3599 112.634 39.0202 112.553C21.4369 112.477 4.54421 117.48 -12.3356 122.592C-16.0688 123.604 -19.9163 124.399 -23.915 124.919L-24.1069 123.62Z" fill="#6F6F6F"/>
<path d="M-25.1933 120.086C-21.5158 119.5 -17.9465 118.703 -14.4626 117.733C14.4165 106.46 44.5412 107.956 74.0393 108.798C91.0336 109.195 111.014 108.137 125.206 97.2791C126.174 96.6919 124.163 95.9131 123.071 96.0403C94.6122 97.3881 67.7816 91.395 51.7403 75.2884C38.1634 61.6478 37.4919 43.2472 32.1534 26.75C38.0281 26.8264 40.1892 31.5111 41.3895 35.137C44.9012 47.3534 46.4353 60.591 57.1345 70.2313C64.2814 76.7094 74.7778 84.7594 87.6717 82.4693C85.6569 73.3059 82.3441 63.5028 90.32 53.8109C109.182 31.0191 145.508 16.2271 174.968 25.2996C144.157 17.9034 108.635 31.4944 91.4005 56.1532C84.7678 65.8157 88.9659 74.725 89.9748 83.4991C82.3256 86.0337 74.9168 81.9277 69.0118 79.2286C48.3222 70.117 45.7222 51.2448 39.2919 34.8748C39.0031 33.801 38.2529 32.6858 36.786 32.2553C37.6714 49.7764 41.9969 67.5302 57.8886 79.7312C74.8264 92.4744 99.0578 98.0102 124.969 93.8897C126.901 93.5387 129.043 93.1313 130.424 94.0783C132.389 95.5268 128.728 97.8191 126.751 98.8403C115.095 105.733 101.485 108.708 87.927 109.367C67.2749 110.439 48.1877 108.957 27.7042 109.82C13.2236 110.396 -0.394502 115.017 -14.1154 118.933C-17.5743 119.901 -21.0989 120.715 -24.7002 121.349L-25.1933 120.086Z" fill="#6F6F6F"/>
<path d="M-27.1622 116.612C-22.9169 116.102 -18.8825 115.221 -14.9868 114.072C14.5646 101.159 44.9296 105.222 74.8889 106.105C85.0855 106.343 96.1223 106.357 105.546 101.211C106.724 100.568 104.503 99.8447 103.58 99.7624C72.9267 94.6253 47.7654 81.4458 38.9306 58.6475C34.4924 47.1713 35.1039 32.7039 20.6569 25.8722C19.8617 25.4269 18.7325 24.5773 19.2801 24.102C24.7537 20.1748 34.0722 19.6608 37.9137 23.897C45.473 31.9095 43.7849 43.2115 47.4763 52.7492C52.1658 64.3221 60.7194 75.1933 76.3105 79.5821C78.5316 80.3045 81.3485 79.0592 80.6024 77.1211C73.2191 58.0456 94.0738 40.1484 116.155 29.3221C133.693 20.8595 153.299 19.2446 171.414 22.1369C171.666 22.2345 171.077 22.5561 171.328 22.6534C155.264 20.6928 138.225 20.9656 121.7 28.1713C97.1014 38.8465 73.5533 58.4497 83.3635 79.0147C84.069 80.7996 80.7527 81.0269 79.1171 80.8057C72.5329 79.7676 67.7612 77.0952 62.8654 73.9627C45.8788 62.7118 46.0437 44.9103 40.4914 29.2925C39.3734 25.9735 36.2407 22.699 31.4579 22.4959C28.9407 22.3455 23.1485 22.5761 24.1088 23.6353C34.6278 35.9545 35.3146 51.0624 42.6377 64.8924C54.2073 86.1389 81.2709 96.3445 111.054 99.0829C113.151 99.3453 112.303 101.216 110.244 101.93C90.4433 109.516 70.478 107.282 51.0114 106.065C28.8178 104.754 6.35339 107.461 -15.3682 115.562C-18.9166 116.556 -22.5666 117.342 -26.3548 117.866L-27.1622 116.612Z" fill="#6F6F6F"/>
<path d="M-29.9252 113.067C-23.6935 112.043 -17.4476 110.554 -11.3307 108.626C-0.947305 106.283 8.76874 101.388 19.8507 100.732C41.8047 99.4772 61.5827 106.037 83.3001 101.391C84.7706 100.999 83.9382 99.5769 83.1428 99.1314C52.1813 87.8288 36.9651 65.5824 29.9875 40.4794C28.0438 34.0927 21.5989 30.2223 12.8359 28.6154C10.4871 28.2557 9.99569 25.5914 11.8489 24.1103C17.8287 19.5548 26.6486 18.0229 33.649 19.7719C39.4748 21.3409 41.5533 25.7188 42.8774 29.8048C45.6123 37.4605 46.4153 45.4668 49.1502 53.1225C52.1775 61.0288 57.1411 67.7612 65.7207 72.8701C67.8967 74.2623 72.7962 76.5717 73.3516 74.451C76.3823 63.1188 77.2339 51.2178 89.4491 41.3809C111.898 23.551 143.411 15.1405 170.793 19.8351C140.593 16.3857 107.775 25.8023 85.7724 46.9662C76.6676 55.8084 76.3304 65.435 76.4954 75.2562C76.5292 77.056 73.2991 76.7671 71.8322 76.3363C62.277 73.4608 56.5973 67.413 52.2641 60.513C47.2219 52.651 46.0853 44.2402 44.4461 35.6345C43.1743 29.2327 41.0659 22.2319 32.2198 20.3179C26.2249 18.9586 19.1721 19.5256 14.16 23.4939C13.0646 24.444 12.8058 25.9928 14.0213 26.3261C22.2782 28.5617 27.3767 33.2845 30.3294 39.2377C35.5665 50.336 37.611 62.1219 45.2867 72.2406C55.382 85.4951 71.6712 93.3148 90.1922 99.3878C91.4492 99.8745 93.036 101.589 90.9353 102.149C81.7738 104.923 72.335 104.154 63.0617 103.998C44.9754 103.728 27.1183 99.2866 8.67238 104.374C2.41111 106.21 -3.63999 107.989 -9.88106 109.699C-16.121 111.635 -22.4615 113.164 -28.8432 114.361L-29.9252 113.067Z" fill="#6F6F6F"/>
<path d="M-33.3766 109.32C-27.5723 108.443 -21.7811 107.234 -16.2002 105.53C-9.91671 103.909 -4.03063 101.516 2.14799 99.3741C17.5741 93.9417 32.6215 97.9821 47.6015 98.4237C52.8463 98.6681 58.5897 99.9304 63.0087 97.1067C65.5333 95.6106 62.187 93.2153 60.5137 92.0177C44.1611 79.7756 35.6711 64.1195 30.2088 47.1621C27.5192 38.837 18.6845 34.4537 8.45758 31.5927C4.30867 30.3981 6.51434 25.2059 10.6374 22.9544C17.0749 19.2632 24.8107 16.2125 31.8521 18.1146C48.032 22.1815 45.275 37.8799 48.8353 48.6036C50.3659 53.4567 51.8968 58.3096 55.4458 62.2948C58.4095 65.7789 61.4518 70.3931 67.9569 70.3008C68.4183 70.3419 68.9662 69.8667 68.925 69.7135C72.2038 50.0944 89.4906 32.3272 114.374 23.5483C133.668 16.5903 153.356 15.2817 172.568 17.2243C172.778 17.1684 172.23 17.6433 172.02 17.6995C142.826 14.6395 111.111 21.4596 87.7352 40.0302C76.6159 48.9173 72.3279 59.7623 71.2704 70.8965C71.0939 72.7522 67.7813 72.1563 66.2733 71.5724C58.8603 68.2894 55.1087 62.7137 51.6947 56.7194C46.8665 47.9783 46.5739 38.5198 43.6777 29.4274C41.9782 24.7839 39.3147 19.9044 32.438 18.6157C25.6031 17.4805 18.002 18.5226 12.0263 22.2548C9.92162 23.6384 8.36104 25.3709 7.7646 27.3385C7.16802 29.3064 8.75496 31.0203 10.8522 31.2826C20.5422 32.1492 27.2348 36.9399 29.471 43.5776C36.34 64.928 47.8386 83.3982 70.7305 97.348C71.5258 97.7937 71.6043 98.9234 70.3853 99.4134C66.7278 100.883 62.9949 100.4 59.3857 100.376C40.5457 99.8138 21.8933 94.9269 2.8545 101.159C-3.15574 103.092 -9.08304 105.331 -15.4383 106.965C-20.8356 108.608 -26.3925 109.818 -32.0617 110.703L-33.3766 109.32Z" fill="#6F6F6F"/>
<path d="M-37.3417 105.219C-32.5729 104.619 -27.9473 103.635 -23.4559 102.333C0.207484 92.9871 24.1345 91.5338 48.8497 92.1722C49.9825 92.1987 50.3688 90.2867 49.7011 89.4785C39.5645 76.0708 33.0404 61.863 26.5617 46.9858C23.7368 40.6696 15.6485 38.2246 7.77039 35.7233C3.32864 34.2781 2.34219 29.7733 4.96069 26.1147C9.69099 19.4264 19.6889 17.2511 28.1262 16.808C35.933 16.5329 41.8755 20.2087 44.2013 25.507C49.8474 38.9623 47.2965 55.4276 61.8976 65.3423C63.7396 66.3306 66.2603 65.6575 66.8568 63.6899C76.0103 25.732 132.703 7.97006 175.35 15.0028C175.35 15.0028 174.469 15.0739 174.341 15.4367C143.552 12.3092 107.606 17.628 82.9132 39.6738C73.8533 47.8467 69.7002 56.6826 67.7686 66.2415C67.765 67.0645 66.4181 67.9173 65.2437 67.7375C55.2274 64.8205 52.9573 56.3832 50.1365 49.2437C46.6924 40.6265 47.3639 31.4041 42.1983 23.082C36.4061 14.1049 20.3645 16.4132 10.0137 22.2997C7.69928 23.7395 5.636 25.2767 4.87089 27.454C3.80917 30.2035 4.50672 33.6348 7.56805 34.1329C23.8383 36.8609 29.6234 47.4838 32.8045 58.473C36.4398 71.15 45.9198 81.2802 54.8523 91.8854C56.5217 93.9059 53.618 95.6676 50.891 95.5734C35.6596 95.0349 20.9876 91.5514 5.35901 95.3941C-4.13644 97.7639 -13.3009 101.361 -22.7557 104.158C-26.9578 105.377 -31.3162 106.27 -35.8653 106.748L-37.3417 105.219Z" fill="#6F6F6F"/>
<path d="M-41.5911 100.607C-36.5866 100.177 -31.2558 99.9053 -26.5891 98.0018C-6.78114 88.7692 14.9701 85.9233 36.3688 86.7893C40.0188 86.9658 39.3661 82.8653 38.4097 80.9831C33.8327 72.3394 29.7586 63.8905 26.9036 54.9513C24.3791 47.2397 16.6358 42.7295 7.41821 39.4348C2.89395 37.6826 -0.193647 33.7385 1.79821 29.4251C4.76588 22.8784 13.4317 18.2635 21.6664 16.2302C27.8001 14.7576 34.7667 14.7068 39.2011 17.7983C51.041 25.819 47.2858 39.4817 52.2305 50.3295C53.9752 54.3032 56.2483 61.9173 63.474 60.3178C77.2038 21.7961 135.108 5.1906 179.14 12.3473C179.391 12.4445 177.92 12.837 177.92 12.837C133.927 6.65696 76.5661 23.6105 63.9687 62.1588C63.7548 63.0379 61.9504 63.026 60.945 62.6371C54.3759 58.3066 52.8531 51.8074 50.3204 45.7424C46.4227 35.4373 49.8513 19.7243 32.9956 16.4951C22.5552 14.5135 10.2804 19.1049 3.74164 26.6046C0.62016 30.0684 1.47944 34.9362 5.6251 36.954C13.4958 41.1013 23.2646 43.0977 26.2095 50.6974C30.6925 61.5039 34.7593 71.5991 40.9644 82.1102C42.1721 84.0895 44.0895 87.0309 41.1858 88.7926C39.2504 89.9668 36.984 89.9138 34.8871 89.6514C18.3579 88.4727 0.988596 87.518 -14.9141 96.2017C-17.8593 97.8097 -21.4717 98.6095 -24.7241 99.5915C-29.7093 101.036 -34.8762 101.903 -40.0418 102.34L-41.5911 100.607Z" fill="#6F6F6F"/>
<path d="M-45.8756 95.3565C-41.4274 94.9419 -36.8621 94.4386 -32.4099 93.4642C-27.958 92.4896 -23.6121 91.0557 -19.5503 88.8677C-5.86442 81.2905 10.0873 80.3217 24.9394 81.1259C27.6665 81.2199 29.8164 79.1665 29.7415 77.2136C27.8316 63.4185 23.0261 49.7388 6.94325 42.6862C-1.93671 38.9723 -2.89725 28.7059 5.98644 22.3888C14.6598 16.1277 26.5485 13.448 36.7339 16.1556C44.7396 18.2938 46.9342 24.7785 48.7537 30.7051C51.4849 39.184 49.1139 52.9703 61.1454 55.8429C62.1094 56.0789 63.46 54.4029 64.0528 53.2585C82.4009 14.3261 140.823 3.83047 183.058 9.32962C182.469 9.65105 182.173 10.2241 181.711 10.1824C138.888 5.00506 81.1332 16.3091 64.1277 55.2117C63.7453 56.3002 62.5634 57.767 60.9278 57.5458C54.8466 56.7023 53.7812 51.0675 52.2466 47.0378C48.4277 37.863 50.1573 26.7138 42.0501 19.1768C33.3988 11.2916 15.3354 15.2905 4.9325 23.493C-2.35302 29.0546 -0.627123 37.1438 6.11057 41.2649C12.5557 45.135 20.689 46.9107 23.3039 53.2827C26.9541 62.6672 34.0896 71.6146 31.9851 82.2061C31.73 82.9317 30.3419 83.6311 28.999 83.6607C16.5364 83.3698 3.91284 81.642 -8.86885 86.8616C-16.184 89.8005 -22.453 93.2823 -30.0736 95.0903C-34.7645 96.2805 -39.5957 96.9538 -44.343 97.3171L-45.8756 95.3565Z" fill="#6F6F6F"/>
<path d="M-49.954 89.5981C-45.741 89.464 -41.4411 89.1813 -37.3 88.3853C-33.1588 87.5893 -29.1763 86.28 -25.598 84.0956C-13.6471 76.6272 1.43018 74.0829 15.5322 73.7723C17.1267 73.8399 19.0174 73.3355 19.8201 72.1345C23.6652 66.34 20.7127 60.3866 17.0815 56.0945C12.1969 50.4925 5.79688 45.9526 0.702222 40.4067C-1.63473 37.5777 -3.00419 34.1612 -1.09875 30.3644C5.25255 17.9818 24.9292 9.93497 39.1322 15.0228C46.0877 17.4414 48.286 23.1026 49.9819 28.5693C52.4242 35.9741 51.0401 45.058 58.1077 50.4063C59.5709 51.6599 61.8029 49.9134 62.7746 48.503C86.698 11.0418 143.185 1.7209 186.474 6.11603C186.136 6.53534 185.419 7.21964 185.168 7.12211C140.371 2.14283 84.1279 13.2076 61.2479 52.034C60.6137 53.0255 58.8094 53.014 58.1418 52.2056C50.6235 44.3466 51.6814 33.2122 47.611 23.9401C45.4087 19.1019 41.0196 15.341 34.0565 14.5686C22.9407 13.4246 10.4183 17.0955 2.78789 24.7226C-9.0596 36.7634 7.64611 45.2941 16.3424 52.5098C22.4047 57.4685 24.0933 64.5816 24.4796 71.8772C24.3858 74.0397 22.57 76.4975 19.6326 76.4594C5.19662 76.3661 -9.66698 78.0311 -22.5252 85.4496C-26.4133 87.7625 -30.6694 89.3094 -35.0771 90.2846C-39.4847 91.2602 -44.0441 91.6638 -48.5215 91.7262L-49.954 89.5981Z" fill="#6F6F6F"/>
<path d="M-53.6671 83.43C-46.477 83.4486 -39.6643 81.818 -33.1708 79.295C-29.9242 78.0333 -26.7572 76.549 -23.6574 74.95C-15.0074 69.0945 -4.92688 67.2263 5.65229 66.3761C9.59903 65.9801 12.9265 63.2835 12.3939 60.4659C10.9609 52.6275 2.33599 48.188 -1.57672 41.1758C-4.69814 35.4318 -3.70017 28.2596 2.95508 22.8665C11.3808 15.685 23.5659 12.4328 34.5991 13.27C52.5126 14.5723 51.0946 31.0642 55.2851 41.6198C55.8667 42.9447 56.6998 44.3665 58.4589 45.0478C59.9256 45.4785 61.4827 44.5696 62.5368 43.4662C74.9767 30.2805 88.8798 18.349 108.256 11.698C134.989 2.26098 162.436 2.17 189.252 2.24748C188.914 2.66669 188.449 3.44839 187.987 3.40718C144.394 1.23028 90.1809 8.95833 63.6244 44.1621C62.6116 45.4191 61.22 46.9414 59.2052 46.9857C56.0164 46.8505 55.0634 44.1449 54.317 42.2067C50.5317 34.8315 51.9983 26.0547 46.3634 19.3371C42.3568 14.4874 34.4335 12.6558 25.951 13.7688C15.4959 15.0795 4.90142 19.2224 0.167038 26.734C-8.70868 40.6129 8.87827 49.0725 15.3761 59.8343C17.1656 63.1384 16.1339 68.5112 10.1728 68.9511C-2.58942 70.0556 -15.525 72.1924 -26.0475 79.113C-29.9833 81.6416 -34.2921 83.2024 -38.7544 84.1737C-43.2168 85.1445 -47.8324 85.5257 -52.3819 85.6962L-53.6671 83.43Z" fill="#6F6F6F"/>
<path d="M-56.8345 76.8945C-49.1734 76.4508 -41.7697 74.8639 -34.8484 72.1221C-31.3876 70.7512 -28.0478 69.0915 -24.8548 67.1468C-21.067 64.9597 -18.0318 62.0122 -14.3703 59.7195C-11.4667 57.9578 -7.6103 58.9014 -3.95239 57.4323C-1.30382 56.3963 0.887007 54.4966 0.350697 52.5022C-1.38262 46.0589 -5.63671 40.2886 -4.42852 33.2962C-4.04815 30.6065 -3.02445 27.974 -1.22041 25.5527C0.58386 23.1315 3.16959 20.9202 6.6717 19.0815C17.945 13.2776 32.8196 9.14307 43.6244 14.1518C53.6331 18.715 53.1268 28.5511 55.903 36.36C56.8146 38.912 60.3338 40.2747 63.4511 37.6338C76.51 26.7492 88.6014 16.4521 105.795 10.0549C133.961 -0.750955 162.454 -0.298698 190.748 -2.25992C190.662 -1.74357 190.575 -1.22737 190.489 -0.711261C145.587 -1.0586 92.8893 5.6069 62.3893 40.3836C60.1125 42.8002 56.8897 40.865 56.102 38.7731C52.6541 30.979 53.5772 21.8541 45.4625 15.9631C36.7628 9.57065 22.1918 11.4864 11.0873 17.081C4.94588 20.1997 -0.107351 24.0149 -2.73353 29.3194C-8.61593 40.097 4.02687 46.9172 4.15085 56.5848C4.28955 62.9601 -7.36642 60.6452 -13.2113 63.1916C-17.4166 65.1361 -20.4929 67.9302 -24.471 70.0763C-27.6362 71.8548 -30.9336 73.4381 -34.3363 74.7661C-41.1423 77.4218 -48.3682 79.0564 -55.7559 79.2893L-56.8345 76.8945Z" fill="#6F6F6F"/>
<path d="M-59.3272 70.1101C-47.1962 69.1359 -33.8408 66.8868 -25.6589 57.9616C-23.361 55.622 -21.503 53.1118 -19.3732 50.7758C-17.2432 48.4398 -14.8416 46.2783 -11.4612 44.6509C-10.6242 44.4385 -10.4091 43.5527 -10.3219 43.0326C-8.82775 38.5117 -7.70247 33.6849 -5.45273 29.2822C-3.20336 24.8796 0.17221 20.8957 6.16505 18.0632C10.2449 16.0698 14.3507 14.5222 18.4652 13.3513C27.8527 10.7947 38.1392 9.69368 46.0965 13.3248C54.0947 17.1092 55.1941 24.5436 58.4804 30.9013C60.0185 34.1082 64.8544 31.9953 67.465 29.983C74.2891 24.3799 81.0682 19.4468 88.935 15.2096C104.121 7.21035 120.47 1.86003 137.9 -1.1475C155.791 -4.11372 172.538 -4.63713 190.928 -6.58578C191.138 -6.64184 190.714 -5.70653 191.048 -5.30257C167.616 -2.00808 144.244 -2.67596 121.093 3.33828C99.664 9.05729 81.3193 19.5438 64.974 33.2785C62.0251 35.7096 58.251 35.0729 57.1295 32.5772C53.5955 25.2992 53.3443 15.9942 42.7835 12.729C34.1928 10.0896 24.4087 11.3853 15.6051 14.2985C12.2517 15.4397 9.05287 16.8934 6.08988 18.7147C3.12738 20.5362 0.401088 22.7253 -2.01005 25.3417C-5.23626 28.8336 -6.18634 32.417 -6.48329 36.0684C-7.61827 40.4858 -4.45206 45.56 -9.00266 49.5696C-10.6458 50.9946 -13.4144 50.747 -15.0577 52.1723C-18.3441 55.0224 -20.959 57.8579 -24.4191 60.473C-27.5977 62.8791 -31.0183 65.007 -34.643 66.7804C-41.8925 70.3273 -49.9588 72.4566 -58.5397 72.5624L-59.3272 70.1101Z" fill="#6F6F6F"/>
<path d="M-60.979 63.3816C-52.5744 62.5157 -43.6349 62.267 -36.4804 57.8914C-27.7281 52.7605 -24.2092 44.9156 -18.6796 37.8492C-12.0505 29.0098 -4.62655 20.6158 7.44229 15.2578C11.6751 13.4149 15.8908 12.0203 20.0902 10.9831C38.2501 5.06191 54.6704 11.6958 61.9597 23.7262C62.9616 24.9387 65.9852 24.4607 67.7523 23.4957C92.1973 9.73704 117.179 -2.02725 146.823 -5.66452C161.855 -7.53923 175.376 -9.17465 190.244 -11.6625C190.244 -11.6625 190.491 -10.7421 190.656 -10.1285C186.413 -9.16064 182.339 -8.40218 177.931 -8.04753C139.77 -5.09736 102.221 1.80034 71.4021 23.6725C67.8233 26.272 60.339 29.4207 59.266 25.4321C54.7564 11.18 34.7232 5.34559 16.207 12.5287C11.736 13.9351 7.47932 15.7991 3.55143 18.2137C-0.376071 20.6283 -3.97525 23.5943 -7.13251 27.2041C-9.15834 29.718 -10.5125 32.2169 -12.7895 34.6334C-19.3247 41.31 -22.6298 48.2757 -28.9137 55.0501C-36.5475 63.5003 -49.4383 64.9674 -60.456 65.7894L-60.979 63.3816Z" fill="#6F6F6F"/>
<path d="M-62.1257 56.8157C-51.4998 56.474 -38.651 54.8533 -31.9395 46.3205C-21.5967 32.8728 -11.9213 18.6163 7.66534 11.9093C11.8266 10.4968 15.9886 9.3905 20.1491 8.53175C38.1692 3.9323 54.4769 7.63657 68.2038 15.9757C70.0458 16.9639 73.2833 15.6064 75.6393 14.32C106.432 -1.79041 140.29 -9.01829 174.253 -13.6372C183.644 -15.7721 188.768 -17.11 188.768 -17.11L189.265 -15.2566C184.378 -14.2081 179.628 -12.6118 174.38 -12.0332C136.38 -7.64632 101.926 1.54944 69.4492 18.9318C68.4815 19.5186 66.6772 19.5071 66.0918 19.0056C56.7244 11.8047 45.7582 5.35934 30.6447 7.71508C26.2845 8.13622 21.8372 8.92125 17.3685 10.0775C12.8999 11.2337 8.41664 12.7497 3.91723 14.7178C-14.4575 22.5817 -21.3194 36.4158 -31.6584 49.0408C-38.6625 57.3225 -51.1327 58.6777 -61.7547 59.1636L-62.1257 56.8157Z" fill="#6F6F6F"/>
<path d="M-63.0085 50.4044C-52.7353 51.0488 -41.5181 48.3836 -34.0563 40.9662C-25.5403 32.4453 -19.7067 23.1607 -8.68094 16.4363C-0.236292 11.2775 8.87632 7.95021 18.3099 5.81609C23.0265 4.74908 27.8234 3.98088 32.6244 3.47854C47.7498 1.04645 60.5275 5.85724 74.7459 7.65283C76.8434 7.91535 79.1951 7.45203 81.3824 6.37527C111.867 -6.69371 142.319 -12.3545 173.441 -18.6215C182.307 -20.8999 187.384 -22.2543 187.384 -22.2543L187.882 -20.4001C187.882 -20.4001 182.802 -19.0466 173.713 -16.8218C142.439 -11.0708 111.106 -5.33942 81.2886 8.53823C76.7041 10.7482 71.7485 11.5775 67.6443 9.71312C55.7895 4.98488 42.37 2.8118 28.0696 5.18143C23.928 5.77595 19.7888 6.57184 15.6591 7.62227C11.5289 8.6728 7.40821 9.97827 3.30187 11.5947C-13.2197 17.9771 -22.5048 29.499 -31.5385 41.1173C-38.4188 49.8593 -51.234 53.2797 -62.6987 52.7038L-63.0085 50.4044Z" fill="#6F6F6F"/>
<path d="M-63.7923 44.1272C-45.4489 46.3093 -32.6753 33.5279 -21.2106 22.5758C-11.0788 12.8426 1.10105 6.95588 14.2298 3.3452C18.6058 2.1415 23.0876 1.19077 27.6339 0.434657C45.0866 -3.0107 61.7808 -1.21824 78.5612 0.0581205C80.8272 0.110822 83.262 -0.0460122 85.532 -0.815961C114.239 -10.4508 142.889 -16.9464 172.212 -23.7262C180.927 -26.0468 186.003 -27.4011 186.003 -27.4011L186.502 -25.5468C186.502 -25.5468 181.426 -24.1921 172.681 -21.8798C144.896 -15.3444 117.135 -10.5658 89.8496 0.169023C84.5528 2.2407 79.0527 2.72179 73.5567 2.38C59.5036 1.19805 45.7055 -0.709518 31.0706 1.49036C26.9786 2.00939 22.8604 2.67462 18.702 3.53787C-3.26715 8.08559 -19.9012 20.7465 -32.8103 35.537C-40.0659 43.7215 -52.2917 46.8201 -63.5146 46.3734L-63.7923 44.1272Z" fill="#6F6F6F"/>
<path d="M-64.5864 37.976C-53.6449 38.4657 -41.8838 36.1491 -34.2945 28.3687C-19.1387 13.1432 -0.0353643 4.42743 20.5304 -0.732635C25.6719 -2.02274 30.9048 -3.09017 36.1904 -3.98215C51.5184 -6.70112 66.7942 -6.83197 82.0293 -7.1164C92.1436 -7.18518 101.894 -10.2808 111.475 -13.1665C131.1 -18.8979 150.972 -23.7082 170.835 -28.8686C179.537 -31.1912 184.613 -32.5458 184.613 -32.5458L185.112 -30.6915C185.112 -30.6915 180.036 -29.3368 171.334 -27.0143C149.576 -21.3629 127.858 -16.7174 106.467 -10.0215C97.7671 -7.20654 88.816 -4.48854 79.6246 -4.33761C64.3071 -4.35986 49.3272 -4.80131 33.8098 -2.27979C29.7117 -1.6731 25.622 -0.957511 21.5377 -0.101045C17.4532 0.755284 13.3745 1.75238 9.29857 2.9227C-10.536 8.70968 -23.2687 21.6443 -38.136 33.3401C-45.5487 39.2647 -55.2467 40.0444 -64.2979 40.1736L-64.5864 37.976Z" fill="#6F6F6F"/>
</svg>
