<svg width="189" height="187" viewBox="0 0 189 187" fill="none" xmlns="http://www.w3.org/2000/svg">
<path d="M139.086 294.887C143.628 290.576 148.099 286.188 152.486 281.727C156.874 277.265 161.177 272.729 165.383 268.118C186.078 244.812 208.625 223.967 232.239 202.457C255.243 181.367 275.8 152.193 268 125.956C263.106 108.952 244.347 104.505 225.141 110.346C221.787 111.402 220.717 107.882 221.629 105.439C224.518 96.8178 232.594 90.9027 241.282 87.3569C249.055 84.0231 256.068 82.4001 263.843 81.8554C279.7 80.9754 296.163 76.8853 309.28 80.546C305.621 81.1137 302.114 81.507 298.302 81.692C282.446 82.2929 268.57 82.0174 252.716 85.6871C242.807 87.8413 230.004 92.4793 226.811 103.124C226.051 105.392 228.187 106.572 230.474 106.461C245.72 104.885 259.75 107.776 266.165 119.127C279.299 142.594 261.032 175.842 238.334 197.977C216.245 219.414 193.85 239.805 173.364 262.417C169.754 266.36 166.17 270.229 162.527 274.051C155.24 281.696 147.713 289.156 140.052 296.473L139.086 294.887Z" fill="#6F6F6F"/>
<path d="M136.703 290.474C141.3 286.285 145.762 282.01 150.09 277.645C154.419 273.281 158.614 268.827 162.686 264.283C180.582 244.412 199.626 227.029 221.108 209.081C247.923 186.69 274.121 156.071 265.403 126.699C263.262 120.218 258.836 115.802 252.582 112.924C243.43 108.904 231.998 112.527 222.399 120.469C220.114 122.533 216.913 123.692 214.473 122.583C212.337 121.403 211.572 119.209 211.265 116.768C210.494 107.599 216.737 98.2016 225.27 91.483C231.517 86.5492 238.375 83.1481 245.692 81.454C263.985 76.6616 283.498 72.4241 299.511 75.5536C274.964 78.3057 247.363 74.7892 224.358 94.4844C217.35 100.571 210.65 111.33 216.755 117.172C217.975 118.284 220.11 118.348 221.634 117.437C237.178 107.98 256.541 107.264 263.109 120.393C283.884 161.624 228.727 203.969 193.229 235.485C184.545 243.215 176.929 251.117 169.137 259.526C165.607 263.332 162.234 267.042 158.813 270.7C151.971 278.015 144.858 285.133 137.517 292.069L136.703 290.474Z" fill="#6F6F6F"/>
<path d="M134.625 286.096C139.06 282.15 143.281 278.074 147.324 273.883C151.367 269.692 155.233 265.387 159.204 260.959C176.468 241.037 196.884 224.871 218.215 207.936C244.726 186.731 272.296 155.377 262.511 127.227C259.3 117.228 246.333 109.766 234.143 118.726C228.658 122.786 226.53 130.254 219.214 133.064C213.727 135.171 209.15 132.324 207.012 128.633C200.597 117.004 208.358 100.279 221.309 89.8872C227.556 84.9535 233.957 81.7976 241.121 79.4415C257.126 73.9232 273.894 69.4837 288.381 71.5713C266.427 73.8629 242.49 75.3578 222.073 91.245C214.607 97.0191 209.43 104.356 207.607 112.591C206.242 119.464 206.858 126.576 212.807 129.524C216.468 131.188 221.955 128.802 224.544 125.273C230.939 116.258 241.913 110.928 250.912 114.286C257.775 117.022 262.507 121.926 264.038 129.106C273.683 171.378 225.377 203.348 191.249 231.337C177.993 242.079 167.331 254.034 156.67 266.232C153.338 269.967 149.893 273.615 146.338 277.183C142.783 280.751 139.118 284.239 135.35 287.655L134.625 286.096Z" fill="#6F6F6F"/>
<path d="M132.669 281.882C135.659 279.059 138.587 276.19 141.439 273.259C144.292 270.327 147.069 267.333 149.769 264.26C160.011 252.659 169.912 241.299 182.711 231.361C214.403 207.004 253.568 184.684 261.766 145.118C263.587 136.046 261.293 128.067 255.646 122.538C252.441 119.513 248.018 117.607 242.379 119.889C235.367 122.628 235.831 129.357 232.481 134.318C227.304 141.655 217.547 143.634 210.836 141.281C198.482 136.747 197.401 121.79 202.421 109.328C213.83 80.5973 251.024 69.4766 276.791 68.6742C249.349 72.2361 210.172 82.0021 202.426 114.628C199.692 125.864 202.144 139.527 215.714 139.316C225.624 139.114 231.41 129.683 236.282 121.859C239.327 116.968 246.188 116.636 250.763 118.088C260.372 121.305 263.583 130.746 262.982 140.372C261.479 164.158 243.049 185.306 222.176 202.275C196.274 223.339 169.76 241.195 150.059 266.717C147.443 269.607 144.736 272.421 141.951 275.188C139.166 277.955 136.304 280.675 133.376 283.374L132.669 281.882Z" fill="#6F6F6F"/>
<path d="M130.588 277.989C133.409 275.412 136.095 272.75 138.661 270.011C141.227 267.273 143.678 264.459 146.124 261.582C163.506 239.156 187.43 223.155 210.896 206.283C231.619 191.441 251.424 173.463 258.111 150.151C261 140.135 260.684 128.768 251.227 124.818C248.634 123.884 244.366 124.872 242.996 127.84C240.257 133.775 241.179 141.375 234.778 145.089C221.673 152.587 204.29 151.867 198.638 140.479C191.153 125.61 195.25 104.432 212.314 89.8789C227.702 76.6904 247.059 68.7218 264.744 67.4183C246.604 71.4779 227.55 77.144 212.315 90.9948C194.796 107.188 189.942 135.935 207.79 145.057C213.892 148.11 222.583 147.912 230.203 143.915C236.451 140.655 239.343 134.545 240.1 128.649C240.705 124.324 245.583 122.079 249.395 122.452C251.987 122.828 254.428 123.938 255.802 125.991C270.917 147.187 247.464 178.844 224.458 197.144C197.185 218.665 167.773 235.657 147.442 262.628C144.943 265.558 142.419 268.422 139.762 271.212C137.105 274.001 134.317 276.715 131.372 279.344L130.588 277.989Z" fill="#6F6F6F"/>
<path d="M128.14 274.565C131.116 271.92 133.882 269.154 136.471 266.287C157.557 236.21 189.865 218.128 219.73 195.869C238.776 181.555 256.597 161.664 256.578 140.184C256.575 137.673 255.658 135.653 254.284 133.878C252.758 132.279 249.251 131.556 248.033 133.791C239.965 148.354 230.374 164.107 213.607 169.942C217.721 166.618 224.27 158.545 217.256 158.215C189.962 157.417 184.143 129.746 195.557 106.595C206.363 84.9803 231.661 71.5905 253.613 67.0671C232.12 73.5769 207.277 84.7685 197.234 106.625C190.386 120.906 190.095 136.599 198.186 147.143C203.834 154.625 214.66 154.212 223.963 156.104C225.792 156.518 227.471 158.501 228.234 158.185C239.055 153.029 241.026 141.272 245.896 132.053C246.962 130.271 249.705 128.521 251.84 129.142C254.128 129.868 255.807 131.293 256.571 133.488C259.783 144.325 255.83 156.68 248.216 167.929C229.792 195.213 200.531 210.358 174.171 229.713C159.543 240.354 148.883 253.983 137.607 267.211C134.953 270.162 132.12 273.013 129.072 275.744L128.14 274.565Z" fill="#6F6F6F"/>
<path d="M125.156 271.669C128.12 268.974 130.852 266.155 133.386 263.235C154.508 232.729 187.731 215.552 217.901 193.78C234.51 181.704 250.505 165.585 252.622 146.4C252.773 144.83 252.314 143.402 250.789 142.917C250.179 142.78 249.112 143.166 248.655 143.691C221.7 179.646 168.348 195.344 139.055 174.222C140.122 173.836 140.885 174.636 141.647 174.878C161.17 182.078 186.482 183.473 207.204 167.795C210.099 165.59 206.59 163.472 204.608 162.955C179.749 157.129 181.704 127.797 192.815 105.833C202.556 86.8368 223.585 73.0402 243.249 67.7908C223.587 75.2719 202.252 87.4652 193.274 107.262C183.23 129.118 185.237 155.301 207.961 161.899C209.944 162.417 212.385 164.642 210.862 166.111C198.828 178.802 180.228 180.038 165.134 181.718C194.566 186.764 229.772 169.268 248.804 140.447C249.566 139.294 251.243 138.766 252.158 139.392C253.836 140.259 254.448 142.349 254.297 144.198C253.392 155.569 247.303 166.186 239.231 175.728C221.563 196.001 197.789 209.317 175.236 224.024C158.932 234.635 147.052 249.104 135.267 263.658C132.572 266.777 129.609 269.782 126.302 272.648L125.156 271.669Z" fill="#6F6F6F"/>
<path d="M121.513 269.355C124.474 266.629 127.178 263.79 129.674 260.858C147.952 233.829 176.907 216.803 204.794 199.605C220.794 189.623 238.469 176.603 243.484 158.84C243.941 157.758 241.502 158.322 240.588 159.092C215.294 177.503 186.029 188.741 159.19 184.909C136.469 181.658 122.123 166.563 104.884 155.905C110.369 152.403 115.861 155.038 119.675 157.364C132.033 165.525 143.325 175.746 160.403 177.374C171.84 178.494 187.545 178.904 197.752 169.147C189.055 162.65 178.681 156.401 178.822 143.394C179.251 112.741 201.785 78.227 235.778 67.9867C201.788 80.4588 179.099 113.474 181.567 144.711C182.646 156.879 193.171 161.836 200.649 168.616C195.47 175.395 185.56 176.433 178.09 177.744C152.175 182.627 135.694 168.305 117.541 158.416C116.473 157.687 114.948 157.203 113.271 157.73C127.159 171.955 144.4 184.287 168.186 184.92C193.345 185.374 219.866 175.328 240.737 156.128C242.261 154.659 243.936 153.015 245.919 152.975C248.815 153.002 247.142 157.156 246.077 159.217C240.447 172.099 230.089 182.868 218.051 191.653C199.767 205.094 181.022 215.432 162.738 228.593C149.786 237.869 140.648 250.03 130.89 261.658C128.416 264.573 125.766 267.398 122.91 270.118L121.513 269.355Z" fill="#6F6F6F"/>
<path d="M117.102 267.621C120.645 264.615 123.716 261.423 126.459 258.09C144.135 229.272 175.226 214.262 203.57 196.819C213.171 190.83 223.38 184.141 228.25 174.085C228.859 172.828 226.268 173.567 225.353 174.058C193.194 188.338 160.112 192.509 134.941 178.664C122.279 171.689 112.052 159.128 93.6053 162.143C92.538 162.25 90.8607 162.22 91.0126 161.487C93.1411 154.856 101.369 148.766 108.079 150.003C121.041 152.165 127.912 162.712 138.438 168.507C151.404 175.411 167.418 179.377 185.1 173.61C187.691 172.87 189.366 170.111 187.23 168.931C166.178 157.342 172.099 129.603 184.429 107.077C194.323 89.301 211.236 76.0386 230.135 67.4788C230.439 67.4081 230.135 68.0368 230.44 67.966C214.133 76.0657 198.59 86.6394 188.694 102.742C173.926 126.669 166.788 157.48 191.194 168.851C193.178 169.927 190.283 172.131 188.606 172.938C181.748 176.06 175.344 176.705 168.483 177.038C144.393 177.871 131.267 162.773 114.486 152.985C110.977 150.867 105.639 150.01 101.068 152.742C98.6297 154.144 93.4487 157.854 95.1261 158.164C114.036 162.157 125.941 174.469 143.024 181.676C169.565 192.553 202.187 184.722 231.752 168.95C233.886 167.898 234.498 169.988 233.127 171.84C220.489 190.252 200.371 200.489 181.475 211.281C159.987 223.649 141.247 239.567 127.217 259.578C124.68 262.569 121.893 265.448 118.783 268.188L117.102 267.621Z" fill="#6F6F6F"/>
<path d="M111.909 266.312C116.904 261.667 121.565 256.62 125.779 251.283C133.627 243.006 138.954 232.983 148.706 225.704C168.057 211.319 191.227 204.839 207.831 187.742C208.897 186.519 207.067 185.826 206 185.934C168.957 195.206 138.301 185.7 113.128 168.786C106.567 164.584 97.7244 165.236 88.4273 169.202C85.9886 170.325 83.5476 168.378 84.1551 166.005C86.2831 158.537 93.2906 151.893 101.064 149.117C107.619 146.902 112.805 149.329 117.077 151.967C125.314 156.757 132.029 163.016 140.267 167.806C148.962 172.629 158.571 175.288 170.31 174.384C173.36 174.236 179.61 173.208 178.541 171.084C172.889 159.696 164.798 149.152 168.748 133.449C176.193 104.8 199.04 78.5841 227.846 65.9172C197.365 81.3436 174.062 109.2 169.517 140.387C167.699 153.364 174.568 161.679 182.047 169.854C183.42 171.349 180.22 173.067 178.543 173.594C167.568 176.972 157.808 175.325 148.657 172.141C138.132 168.578 130.808 162.182 122.874 155.927C116.923 151.305 109.752 146.687 100.15 150.444C93.5962 152.938 87.5014 157.697 85.83 164.083C85.5263 165.549 86.4424 167.011 87.8143 166.554C97.1124 163.425 105.347 164.309 112.516 167.532C125.635 173.704 136.316 182.393 150.957 186.258C170.173 191.297 191.059 187.997 212.705 181.87C214.229 181.518 216.974 181.998 215.451 183.746C209.055 191.645 199.758 196.726 191.072 202.225C174.157 212.976 154.342 220.074 141.091 235.558C136.675 240.906 132.41 246.078 127.918 251.308C123.595 256.726 118.877 261.864 113.872 266.746L111.909 266.312Z" fill="#6F6F6F"/>
<path d="M105.919 265.25C110.629 260.987 115.078 256.453 118.964 251.629C123.562 246.45 127.217 240.861 131.328 235.305C141.531 221.363 158.451 215.633 172.623 206.912C177.651 203.934 183.901 201.511 185.878 196.449C187.095 193.656 182.216 193.669 179.777 193.676C155.533 193.289 136.009 185.252 118.312 174.281C109.616 168.9 98.1819 170.57 86.5971 174.367C81.872 175.88 80.037 170.166 82.1677 165.766C85.363 158.748 90.2355 151.482 98.1617 148.81C116.148 142.414 125.31 157.314 136.599 164.188C141.633 167.348 146.668 170.507 152.921 171.711C158.258 172.847 164.512 174.887 170.454 170.861C170.911 170.616 171.063 169.883 170.911 169.779C159.306 151.259 162.027 125.795 178.474 103.293C191.113 85.7183 208.33 72.6646 227.533 62.6393C227.685 62.4645 227.533 63.1969 227.381 63.3718C198.121 78.5159 173.9 103.515 166.151 133.351C162.505 147.588 166.633 159.329 173.96 169.351C175.182 171.022 171.676 172.531 169.847 172.954C160.548 174.688 152.922 172.268 145.295 169.29C134.313 164.856 126.987 157.065 117.529 151.163C112.494 148.282 106.393 145.788 99.0769 148.877C91.9137 152.07 85.667 157.561 82.9289 164.334C82.0162 166.778 81.866 169.184 82.7829 171.204C83.6994 173.224 86.4445 173.705 88.5783 172.653C98.1792 167.501 107.938 167.474 114.955 171.709C137.229 185.527 161.633 194.109 193.193 191.965C194.26 191.858 195.176 192.762 194.415 193.915C192.131 197.373 188.321 199.232 184.968 201.403C167.139 212.366 146.257 219.572 133.311 236.38C129.2 241.657 125.393 247.142 120.738 252.377C116.976 257.038 112.743 261.43 108.165 265.617L105.919 265.25Z" fill="#6F6F6F"/>
<path d="M99.1938 264.203C103.153 260.803 106.694 257.165 109.872 253.342C124.769 231.103 145.796 215.354 169.111 200.888C170.178 200.223 169.109 198.378 167.889 198.102C148.52 192.959 131.893 184.949 114.808 176.348C107.486 172.741 98.1871 175.591 89.0413 178.266C83.8585 179.745 79.586 176.548 79.2769 171.876C78.6592 163.369 86.2754 155.468 93.7417 149.972C100.751 145.002 108.984 144.491 115.086 147.543C130.34 155.452 140.265 170.873 161.154 170.363C163.593 170.077 165.421 167.98 164.505 165.96C144.649 128.423 183.789 79.0432 228.446 59.0798C228.446 59.0798 227.684 59.6747 227.837 60.0578C197.052 76.113 167.801 102.416 161.428 135.979C159.152 148.365 161.906 158.331 167.251 167.557C167.861 168.253 167.253 169.789 166.033 170.35C154.602 173.973 146.21 168.242 138.277 163.939C128.667 158.77 122.408 150.592 111.426 146.716C99.3767 142.669 86.2744 154.352 81.1008 165.595C80.0361 168.213 79.2759 170.761 80.1929 173.06C81.2628 176.021 84.4672 178.488 87.6678 177.05C104.738 169.471 118.008 174.909 129.145 182.237C141.961 190.71 158.278 193.491 174.444 197.003C177.494 197.692 176.124 200.939 173.534 202.515C159.057 211.308 142.9 217.28 131.324 230.004C124.317 237.765 118.531 246.359 111.88 254.455C108.906 258.033 105.545 261.431 101.697 264.595L99.1938 264.203Z" fill="#6F6F6F"/>
<path d="M91.8294 262.898C96.1336 259.498 100.857 256.033 103.75 251.597C115.168 231.794 133.145 216.192 153.566 203.931C157.07 201.864 153.408 198.805 151.12 197.8C140.443 193.296 130.376 188.651 121.069 182.853C112.983 177.888 102.463 178.789 91.4879 181.608C86 182.879 80.2049 181.43 78.8281 176.586C76.6867 169.269 81.2524 160.121 87.3451 153.409C91.915 148.445 98.3148 144.173 104.719 144.085C121.643 143.656 128.364 157.447 141.025 163.584C145.602 165.874 153.383 170.909 158.867 165.175C142.82 124.384 183.943 75.2431 229.971 54.5436C230.276 54.4728 229.21 55.6964 229.21 55.6964C183.945 77.1961 143.584 126.3 160.698 166.425C161.156 167.296 159.48 168.381 158.26 168.663C148.959 169.002 142.704 164.452 135.839 160.879C124.55 154.563 115.998 139.243 98.0129 146.754C86.8866 151.422 78.968 162.742 78.5204 173.03C78.2199 177.843 82.6446 181.423 87.9806 180.607C98.3477 179.323 108.865 175.075 117.255 179.69C129.459 186.073 140.748 192.11 154.322 197.199C156.915 198.133 160.881 199.448 159.511 202.694C158.599 204.859 156.465 206.19 154.331 207.242C138.178 216.283 121.414 226.023 113.196 242.992C111.674 246.135 108.932 249.002 106.659 251.803C103.13 256.046 99.0018 259.913 94.5541 263.417L91.8294 262.898Z" fill="#6F6F6F"/>
<path d="M83.9519 261.075C87.7535 258.025 91.5964 254.83 94.9841 251.306C98.3715 247.782 101.317 243.936 103.439 239.627C110.434 224.935 124.452 214.435 138.777 206.097C141.368 204.521 141.822 201.486 140.296 199.886C128.241 189.422 113.596 180.814 93.4724 184.635C82.4964 186.897 73.9505 178.83 77.4474 168.115C80.7923 157.575 89.7797 148.1 101.211 144.198C110.204 141.14 117.07 145.271 123.172 149.16C132.021 154.645 140.114 167.7 153.375 162.817C154.441 162.43 154.44 160.198 154.133 158.874C142.048 114.934 188.207 70.6267 231.338 49.6212C231.034 50.2496 231.187 50.9119 230.73 51.1571C187.294 72.791 142.355 117.375 155.66 160.474C156.119 161.623 156.12 163.576 154.444 164.383C148.195 167.364 143.007 163.263 138.583 160.8C128.21 155.388 121.491 144.945 108.378 143.516C94.5013 142.124 80.7915 156.458 77.2969 169.684C74.7132 178.793 82.3422 184.56 91.6425 183.943C100.485 183.291 109.326 179.849 116.495 183.631C126.869 189.321 140.137 192.528 146.093 202.729C146.399 203.496 145.637 204.927 144.418 205.768C132.685 213.088 119.73 219.295 111.812 231.452C107.244 238.369 104.049 245.108 98.355 251.257C94.9082 255.108 90.9456 258.608 86.8294 261.796L83.9519 261.075Z" fill="#6F6F6F"/>
<path d="M75.8861 258.701C79.6793 256.031 83.4421 253.182 86.6747 249.997C89.908 246.813 92.611 243.292 94.2884 239.279C99.7613 225.732 111.797 214.436 124.596 205.614C126.12 204.703 127.491 203.13 127.337 201.631C126.568 194.414 119.399 191.191 112.841 189.779C104.149 188.024 94.8475 188.085 86.0027 186.505C81.7326 185.54 77.919 183.493 76.8476 179.137C73.4801 164.849 85.6608 146.125 102.581 141.789C110.813 139.605 117.068 143.04 122.712 146.616C130.493 151.373 135.99 159.866 146.511 160.082C148.798 160.25 149.558 157.423 149.404 155.645C143.568 109.561 188.814 67.4177 232.097 44.843C232.097 45.4009 231.946 46.4125 231.641 46.483C186.529 69.4817 142.809 112.946 150.628 159.547C150.781 160.768 149.105 161.853 147.885 161.578C135.075 159.52 127.747 149.497 117.069 144.156C111.425 141.417 104.563 140.913 97.553 144.488C86.4277 150.272 77.5938 160.967 76.2319 172.025C74.2658 189.362 96.0667 186.408 109.485 187.208C118.787 187.706 125.653 192.674 131.452 198.586C132.978 200.465 133.134 203.638 130.391 205.389C116.981 214.073 104.487 224.499 98.1387 238.555C96.2707 242.864 93.4916 246.751 90.1461 250.249C86.8006 253.746 82.8888 256.854 78.7974 259.625L75.8861 258.701Z" fill="#6F6F6F"/>
<path d="M67.8626 255.753C74.5207 251.404 79.6005 245.894 83.7191 239.827C85.7784 236.793 87.5976 233.62 89.2692 230.391C92.8951 220.207 100.817 212.514 109.959 205.375C113.311 202.646 114.374 198.354 111.78 196.303C104.609 190.569 93.3269 192.064 84.48 188.531C77.3112 185.587 72.8831 178.939 75.01 170.354C77.4392 159.189 86.2736 149.052 97.094 143.06C114.62 133.283 125.611 148.039 137.357 154.388C138.883 155.151 140.713 155.843 142.847 155.349C144.524 154.821 145.285 153.111 145.436 151.541C147.096 132.88 151.043 114.388 163.988 97.0214C181.653 72.8419 206.948 56.1044 231.787 39.8913C231.787 40.4493 231.941 41.3903 231.484 41.6356C189.576 66.2649 145.242 105.686 146.961 151.467C146.962 153.141 146.812 155.269 144.983 156.529C141.935 158.35 139.037 156.65 136.901 155.47C127.901 151.554 122.71 143.268 112.492 141.03C105.172 139.376 96.4835 142.643 89.4753 148.729C80.7909 156.18 74.0913 166.102 75.3195 175.305C77.47 192.386 100.033 188.837 114.065 193.96C118.184 195.658 121.238 200.81 116.057 204.8C105.087 213.478 94.7278 223.131 90.1666 235.349C88.4155 239.868 85.5981 243.799 82.1989 247.326C78.7998 250.853 74.8185 253.976 70.7413 256.881L67.8626 255.753Z" fill="#6F6F6F"/>
<path d="M60.052 252.175C66.8004 247.15 72.4589 241.319 76.8094 234.807C78.9847 231.551 80.8332 228.125 82.3333 224.549C84.2023 220.406 84.8081 216.081 86.4816 211.926C87.851 208.68 92.1188 207.134 94.403 203.675C96.0777 201.195 96.685 198.264 94.7014 196.909C88.2936 192.533 80.0578 190.254 75.9587 183.629C74.3033 181.132 73.2854 178.293 73.1468 175.158C73.0082 172.022 73.7481 168.59 75.6129 164.914C81.7012 153.181 92.3629 140.668 106.084 138.329C118.737 136.098 125.606 144.692 133.997 149.586C136.743 151.183 141.011 150.195 141.922 146.078C145.871 128.98 149.363 112.964 160.479 97.1373C178.447 70.9347 205.115 54.0193 229.799 35.1913C230.104 35.6784 230.41 36.1659 230.715 36.6534C188.962 63.6178 145.235 101.224 142.992 149.039C142.691 152.457 138.269 152.783 135.981 151.499C126.981 147.025 121.027 138.777 109.133 138.739C96.3255 138.635 84.2897 149.094 78.2012 160.548C74.8525 166.904 73.0286 173.186 74.5586 179.25C77.1621 191.901 93.9326 189.972 101.259 198.042C106.143 203.329 93.6448 208.455 90.1432 214.148C87.7072 218.339 86.949 222.561 84.8738 226.784C83.2756 230.204 81.4094 233.54 79.2557 236.724C74.9475 243.093 69.4893 248.857 62.8356 253.538L60.052 252.175Z" fill="#6F6F6F"/>
<path d="M52.6966 247.968C63.1804 239.783 73.8447 229.78 74.7478 217.294C75.1261 213.928 74.9705 210.685 75.1963 207.424C75.4222 204.163 76.0291 200.884 77.939 197.461C78.5539 196.774 78.092 195.897 77.7848 195.406C75.7934 190.69 73.2327 185.94 72.0274 180.865C70.8221 175.79 70.9696 170.385 74.3946 164.36C76.6782 160.204 79.3177 156.408 82.2469 152.924C89.0149 145.071 97.6993 137.899 107.761 136.128C117.975 134.461 124.537 140.058 132.316 143.419C136.13 145.187 139.022 140.471 139.934 137.191C142.061 128.328 144.645 120.057 148.755 111.711C156.821 95.7526 167.939 81.3207 181.802 68.2058C196.122 54.8457 211.208 44.2388 226.748 31.4339C226.901 31.2588 227.206 32.3042 227.817 32.4421C208.62 49.4418 186.524 63.0672 169.616 82.1879C154.08 100.014 144.95 119.986 140.091 141.48C139.179 145.318 135.216 147.073 132.318 145.651C123.623 141.664 116.45 133.978 104.255 137.638C94.3475 140.629 86.2726 147.66 80.3102 155.458C78.0629 158.455 76.1908 161.622 74.8115 164.955C73.4325 168.288 72.546 171.788 72.27 175.456C71.8933 180.356 73.6884 183.952 76.1375 187.208C78.3837 191.619 85.095 193.972 83.8807 200.113C83.4253 202.311 80.6822 203.783 80.2267 205.981C79.3157 210.377 79.0146 214.354 77.7676 218.657C76.6251 222.614 75.0513 226.483 73.0247 230.178C68.971 237.567 63.1051 244.258 55.2544 249.556L52.6966 247.968Z" fill="#6F6F6F"/>
<path d="M46.1417 243.303C53.2625 237.472 61.3385 231.836 64.6856 223.806C68.9463 214.17 66.3461 205.424 66.1852 196.114C65.7173 184.643 66.3166 173.064 73.4719 161.223C76.0095 157.101 78.8649 153.367 81.9714 149.944C94.3363 133.932 114.459 129.553 130.169 135.264C131.999 135.677 134.437 133.439 135.35 131.553C147.676 105.121 161.986 80.0445 186.667 58.9847C199.16 48.2798 210.435 38.6942 222.318 27.5729C222.318 27.5729 223.233 28.198 223.843 28.6149C220.644 32.0063 217.445 35.1185 213.636 38.0928C180.572 63.7439 151.019 92.3494 138.854 129.486C137.486 133.848 132.919 141.044 128.952 138.335C114.153 129.065 91.2886 136.311 79.5353 153.603C76.4527 157.502 73.9097 161.656 72.0811 166.075C70.2528 170.493 69.1389 175.177 68.9144 180.135C68.9176 183.483 69.5303 186.411 69.2283 189.829C68.1697 199.421 70.3116 207.296 69.5582 216.818C68.8065 228.572 57.9892 237.633 48.4206 245.014L46.1417 243.303Z" fill="#6F6F6F"/>
<path d="M40.1959 238.464C49.7602 231.726 60.425 222.56 60.2621 211.297C59.7887 193.689 58.0952 175.804 71.1919 158.263C73.9841 154.547 77.0046 151.089 80.2086 147.839C93.4301 133.025 111.263 126.246 130.169 124.939C132.608 124.654 134.588 121.545 135.805 119.031C152.243 86.7648 178.14 60.1222 206.08 35.6131C213.165 28.1143 216.903 23.8762 216.903 23.8762L218.745 25.1356C215.01 28.9858 211.812 33.2142 207.394 36.8878C175.551 63.651 150.571 92.3138 133.525 126.674C133.069 127.756 131.392 128.842 130.478 128.775C116.45 128.394 101.508 129.621 89.2991 140.78C85.5837 143.782 82.0595 147.143 78.7925 150.829C75.5254 154.516 72.5135 158.515 69.824 162.904C58.7096 180.684 62.6883 196.505 62.5514 213.418C62.2565 224.648 51.7439 233.359 42.2908 240.217L40.1959 238.464Z" fill="#6F6F6F"/>
<path d="M34.5914 233.6C44.566 227.907 52.9436 218.852 54.3059 208.073C55.8195 195.724 54.2844 184.361 59.457 172.002C63.4127 162.529 69.3517 154.194 76.4771 146.67C80.0397 142.908 83.8994 139.348 87.9616 136.011C100.125 124.78 115.521 121.076 130 113.958C132.133 112.906 133.962 111.088 135.179 108.852C153.602 79.3357 177.519 56.0809 201.605 31.9081C208.099 24.6063 211.779 20.3838 211.779 20.3838L213.623 21.6433C213.623 21.6433 209.938 25.8674 203.198 33.2591C178.587 57.0895 153.909 80.939 136.706 110.731C134.118 115.376 130.157 119.083 124.974 120.004C110.492 123.217 96.4696 129.532 85.022 140.21C81.6386 143.225 78.4069 146.408 75.3739 149.8C72.3409 153.193 69.5066 156.794 66.918 160.649C56.4114 176.055 56.4254 191.399 56.7442 206.672C56.9073 218.214 47.616 228.875 36.5924 235.349L34.5914 233.6Z" fill="#6F6F6F"/>
<path d="M29.184 228.79C47.7629 219.493 50.0331 200.97 52.4579 184.783C54.5602 170.432 61.4247 158.079 70.8632 147.067C74.0093 143.396 77.4419 139.875 81.0789 136.478C94.6367 122.98 111.401 114.356 127.86 105.245C129.994 103.914 132.127 102.304 133.65 100.277C152.991 74.7336 174.621 51.8688 196.661 28.3564C202.984 21.1107 206.665 16.8878 206.665 16.8878L208.509 18.1473C208.509 18.1473 204.828 22.3705 198.472 29.6275C177.671 51.9999 155.581 72.8785 138.375 98.4863C135.025 103.447 130.302 107.191 124.968 110.24C111.1 117.775 96.9256 124.544 85.0428 135.281C81.6484 138.203 78.3392 141.263 75.1399 144.515C58.2308 161.682 52.3033 182.447 51.4069 202.745C50.8075 214.045 41.8205 224.078 31.1162 230.514L29.184 228.79Z" fill="#6F6F6F"/>
<path d="M23.865 224.09C34.3412 217.861 43.4816 208.77 44.6911 197.607C47.3391 175.579 58.4908 156.639 73.6468 139.807C77.4358 135.599 81.475 131.523 85.6943 127.563C97.8307 115.968 111.85 106.584 125.716 97.0959C135.012 90.8982 141.713 82.3715 148.414 74.1236C162.274 57.3827 177.049 41.2664 191.557 24.8601C197.865 17.621 201.546 13.3982 201.546 13.3982L203.39 14.6577C203.39 14.6577 199.71 18.8808 193.401 26.1199C177.509 44.0897 160.905 61.1871 146.132 79.8139C140.192 87.4666 133.948 95.1904 125.567 100.897C111.395 110.177 97.223 118.899 84.7644 130.442C81.4295 133.441 78.1839 136.527 75.0482 139.728C71.9129 142.929 68.8873 146.245 65.9935 149.705C51.9811 166.621 49.8637 185.248 44.8494 204.128C42.4183 213.619 34.0381 220.163 25.7703 225.766L23.865 224.09Z" fill="#6F6F6F"/>
</svg>
