<svg width="186" height="158" viewBox="0 0 186 158" fill="none" xmlns="http://www.w3.org/2000/svg">
<path d="M4.63888 -21.8674C8.28264 -17.3481 12.0053 -12.8753 15.807 -8.45983C19.6088 -4.04493 23.4899 0.312605 27.4512 4.60068C47.5322 25.8021 65.0897 48.1459 83.1736 71.4934C100.919 94.261 126.587 116.322 152.289 114.149C168.931 112.875 175.024 97.9059 171.387 80.852C170.718 77.8684 174.168 77.5568 176.399 78.7266C184.301 82.5783 189.117 90.3236 191.62 98.1877C194.013 105.251 194.857 111.392 194.6 117.994C193.857 131.419 196.103 145.885 191.32 156.26C191.144 153.102 191.12 150.1 191.324 146.878C192.332 133.499 193.976 121.926 192.068 108.04C191.008 99.3844 187.877 87.8923 178.083 83.4505C176.003 82.437 174.67 84.0296 174.547 85.9629C174.526 98.9917 170.383 110.26 158.961 113.746C135.358 120.846 105.592 100.026 86.823 77.3412C68.6573 55.2831 51.5154 33.1421 32.0735 12.2309C28.6873 8.55245 25.3689 4.90918 22.1002 1.22298C15.5628 -6.14914 9.22509 -13.6912 3.03708 -21.3224L4.63888 -21.8674Z" fill="#6F6F6F"/>
<path d="M9.07548 -23.1246C12.5966 -18.579 16.214 -14.1328 19.9295 -9.78309C23.6446 -5.43371 27.4578 -1.18027 31.3696 2.98474C48.4657 21.272 63.0837 40.1066 77.9947 61.0776C96.5963 87.2521 123.076 114.277 151.849 111.856C158.218 111.14 162.855 108.168 166.211 103.408C170.941 96.4125 168.638 86.2373 162.049 76.8797C160.316 74.6233 159.533 71.75 160.83 69.8905C162.163 68.2983 164.325 68.0228 166.673 68.1709C175.461 69.0488 183.767 75.8376 189.3 84.099C193.365 90.1498 195.913 96.4578 196.794 102.866C199.525 118.981 201.608 136.025 197.041 148.914C196.871 127.902 202.96 105.373 186.54 82.8366C181.455 75.9565 171.901 68.5594 165.744 72.7006C164.565 73.538 164.292 75.3151 165.006 76.7424C172.443 91.3297 171.194 107.664 158.068 110.983C116.829 121.53 82.0932 68.3066 55.6874 33.3454C49.2083 24.7892 42.4601 17.0984 35.2473 9.17715C31.9829 5.58842 28.7938 2.14743 25.6597 -1.32486C19.3914 -8.26919 13.3378 -15.4085 7.47965 -22.7072L9.07548 -23.1246Z" fill="#6F6F6F"/>
<path d="M13.4397 -24.143C16.7466 -19.7729 20.1989 -15.5613 23.7777 -11.4795C27.3564 -7.3982 31.0619 -3.44608 34.873 0.615413C52.0793 18.3816 65.4043 38.1643 79.3695 58.8401C96.8739 84.5631 123.917 112.858 151.633 109.342C161.452 108.314 169.833 98.6946 162.534 86.9988C159.223 81.7311 152.34 78.7083 150.399 72.1152C148.944 67.1703 152.104 63.8106 155.823 62.6333C167.51 59.1937 182.626 68.4712 191.209 81.0425C195.275 87.0933 197.635 92.9775 199.159 99.3682C202.809 113.688 205.357 128.466 201.931 140.251C201.94 121.486 202.903 101.193 189.843 81.4562C185.101 74.2451 178.646 68.6907 171.005 65.7965C164.611 63.5109 157.793 62.8455 154.4 67.3378C152.455 70.1268 154.175 75.1179 157.27 77.872C165.197 84.7253 169.168 94.8 165.082 101.778C161.799 107.071 156.669 110.218 149.696 110.308C108.576 111.361 83.0151 65.5997 59.8228 32.3707C50.938 19.486 40.6421 8.57149 30.1158 -2.3823C26.8991 -5.79295 23.7768 -9.28434 20.7409 -12.854C17.7053 -16.4234 14.7564 -20.0716 11.8865 -23.7948L13.4397 -24.143Z" fill="#6F6F6F"/>
<path d="M17.6376 -25.0846C20.0215 -22.1121 22.4554 -19.1836 24.9562 -16.3081C27.4573 -13.4323 30.025 -10.6089 32.6757 -7.8376C42.6765 2.66653 52.4829 12.8445 60.65 25.213C80.6337 55.7982 97.9377 92.303 134.71 105.741C143.147 108.773 150.956 108.178 156.771 104.367C159.964 102.186 162.215 98.7984 160.609 93.6969C158.705 87.371 152.266 86.6409 147.887 83.0119C141.432 77.4573 140.523 68.9588 143.426 63.7297C148.964 54.1374 163.281 55.7169 174.621 61.9914C200.779 76.3181 207.64 109.312 205.837 131.022C205.186 107.451 199.809 73.0217 169.585 61.115C159.183 56.9587 145.958 56.742 144.808 68.1407C144.013 76.4735 152.396 82.8845 159.344 88.2644C163.687 91.6265 163.32 97.4277 161.484 101.017C157.471 108.529 148.182 109.649 139.097 107.547C116.649 102.337 98.3945 83.3902 84.3516 63.0917C66.9203 37.9031 52.5966 12.7335 30.3124 -8.00348C27.8273 -10.675 25.4231 -13.409 23.0716 -16.2006C20.72 -18.9922 18.4216 -21.8408 16.1486 -24.7414L17.6376 -25.0846Z" fill="#6F6F6F"/>
<path d="M21.5391 -26.1825C23.706 -23.3913 25.9682 -20.7001 28.3142 -18.0968C30.6604 -15.4932 33.0899 -12.9731 35.5792 -10.4464C55.1533 7.83521 67.9725 30.5272 81.6643 52.98C93.7009 72.799 108.808 92.37 130.289 101.843C139.517 105.925 150.347 107.55 155.041 100.287C156.187 98.2708 155.673 94.5322 152.99 92.8925C147.624 89.6125 140.313 89.1219 137.422 83.1456C131.604 70.9249 134.018 56.4884 145.399 53.6474C160.271 49.8497 179.983 56.7996 192.109 73.5059C203.106 88.5828 208.749 106.116 208.226 121.142C206.176 105.277 202.69 88.3797 191.049 73.3216C177.409 55.9606 150.583 47.1208 140.139 60.5509C136.632 65.1535 135.954 72.4642 138.992 79.509C141.467 85.2829 146.984 88.7194 152.509 90.3324C156.558 91.5586 158.205 96.0153 157.471 99.1457C156.855 101.254 155.558 103.114 153.471 103.923C131.83 113.059 104.09 88.1605 88.9953 65.8548C71.2664 39.4412 58.0519 11.9891 34.4539 -9.51694C31.9194 -12.0954 29.449 -14.6857 27.064 -17.3735C24.6786 -20.0614 22.3782 -22.8472 20.1741 -25.7503L21.5391 -26.1825Z" fill="#6F6F6F"/>
<path d="M25.0385 -27.6606C27.2545 -24.7305 29.6069 -21.9538 32.0726 -19.3098C58.5467 3.34488 72.5075 33.4033 90.6804 62.1098C102.383 80.4369 119.504 98.6646 139.913 102.217C142.298 102.632 144.309 102.2 146.132 101.344C147.803 100.332 148.839 97.5148 146.837 96.1235C133.805 86.9484 119.795 76.2993 115.922 61.2899C118.67 65.287 125.688 72.1123 126.699 66.2934C130.174 43.5704 157.042 43.2943 177.899 56.6987C197.358 69.3386 207.559 92.7473 209.67 111.882C205.626 92.8021 197.468 70.1396 177.704 58.0982C164.819 49.9911 149.939 47.1404 139.117 52.1643C131.446 55.651 130.761 64.7848 128.036 72.2603C127.461 73.724 125.41 74.801 125.634 75.4913C129.455 85.4094 140.428 89.0131 148.701 94.6236C150.287 95.8116 151.678 98.3997 150.874 100.084C149.957 101.88 148.436 103.049 146.274 103.324C135.66 104.213 124.316 98.8506 114.387 90.6063C90.3008 70.645 78.8275 43.6259 63.0644 18.3364C54.4121 4.31946 42.5262 -6.87192 31.0818 -18.5113C28.543 -21.2244 26.1166 -24.0695 23.8256 -27.0761L25.0385 -27.6606Z" fill="#6F6F6F"/>
<path d="M28.0842 -29.6842C30.3498 -26.7544 32.7553 -23.9985 35.2775 -21.3906C62.1552 1.36401 75.1657 32.0388 92.8454 60.9198C102.664 76.8339 116.385 92.9062 134.4 97.866C135.876 98.2533 137.278 98.1064 137.89 96.9097C138.082 96.4218 137.821 95.4639 137.368 94.9943C105.894 66.4492 96.293 19.1651 119.276 -1.85655C119.537 -0.898998 118.701 -0.392862 118.395 0.205664C109.611 15.3577 105.765 36.3221 118.596 56.2794C120.403 59.0697 122.764 56.4834 123.453 54.9091C131.463 35.0603 159.134 41.5709 178.894 54.5232C195.971 65.8365 206.984 85.7378 210.013 103.076C204.864 85.3685 195.404 65.4769 177.491 54.6706C157.727 42.6293 132.653 39.9592 124.122 57.8927C123.433 59.467 121.076 61.1419 119.832 59.6223C108.974 47.4369 109.652 31.6554 109.558 18.7371C101.834 42.5453 114.95 74.9327 140.435 95.6585C141.455 96.4874 141.789 97.9793 141.104 98.642C140.113 99.9032 138.066 100.068 136.325 99.6349C125.613 96.9884 116.132 90.1257 107.871 81.7808C90.3708 63.6176 80.0877 41.4972 68.3613 20.1683C59.9048 4.75189 47.3419 -7.59952 34.6888 -19.8862C31.9943 -22.6612 29.434 -25.6411 27.0405 -28.8865L28.0842 -29.6842Z" fill="#6F6F6F"/>
<path d="M30.6513 -32.3472C32.9468 -29.4148 35.3737 -26.6789 37.9105 -24.1016C61.7685 -4.3055 75.0607 22.7695 88.6219 48.9791C96.5115 64.0362 107.121 80.9999 123.497 88.1508C124.479 88.7128 124.186 86.5764 123.546 85.6833C108.573 61.4438 100.811 35.0707 107.124 13.2329C112.475 -5.25407 128.244 -14.7599 140.087 -27.4254C142.867 -22.2498 139.817 -18.0889 137.227 -15.2816C128.244 -6.28887 117.409 1.46909 114.162 15.5C111.96 24.8912 110.006 37.974 118.258 48.1422C125.297 41.9385 132.266 34.2894 144.609 36.5683C173.687 42.0202 204.232 66.6244 210.576 96.7903C202.111 66.2553 173.006 41.7715 143.084 38.6488C131.418 37.5304 125.66 45.5206 118.474 50.6558C112.55 45.1936 112.55 36.7231 112.049 30.2498C109.991 7.73662 125.238 -3.68462 136.44 -17.2435C137.239 -18.0165 137.851 -19.2133 137.517 -20.7049C122.62 -11.4383 109.188 0.950226 106.218 20.7641C103.281 41.7559 110.184 65.6339 126.347 86.301C127.59 87.8206 128.985 89.4971 128.825 91.1635C128.511 93.585 124.732 91.4933 122.88 90.2591C111.202 83.4047 102.003 72.942 94.8553 61.4022C83.9075 43.8579 75.953 26.444 65.27 8.94564C57.7473 -3.441 47.1052 -13.113 37.0295 -23.2165C34.5064 -25.7728 32.0862 -28.4613 29.7862 -31.3041L30.6513 -32.3472Z" fill="#6F6F6F"/>
<path d="M32.7344 -35.7533C35.2379 -32.2871 37.9641 -29.1854 40.8572 -26.3346C66.4754 -6.74524 77.6388 21.7841 91.3877 48.4169C96.1214 57.4512 101.459 67.1118 110.527 72.8606C111.661 73.579 111.217 71.286 110.841 70.4388C100.477 41.1368 99.8101 12.7406 115.469 -6.0371C123.356 -15.4815 136.307 -21.9588 135.281 -37.9067C135.285 -38.818 135.48 -40.2175 136.162 -39.9689C142.25 -37.0847 147.216 -29.183 145.372 -23.7697C142.028 -13.2741 131.324 -9.27272 124.771 -1.42113C116.921 8.28992 111.558 21.0408 115.276 36.8053C115.72 39.0982 118.175 40.9586 119.508 39.3666C132.615 23.6629 158.377 33.2297 178.549 47.2965C194.452 58.5353 205.367 74.9014 211.618 92.1487C211.654 92.4159 211.087 92.0566 211.124 92.3238C205.053 77.3226 196.556 62.5506 182.243 51.5887C160.984 35.247 132.424 24.1511 119.19 42.6995C117.971 44.1817 116.165 41.3912 115.566 39.8533C113.282 33.591 113.307 28.122 113.674 22.3214C115.282 2.01024 130.933 -6.47364 141.902 -18.8999C144.264 -21.4865 145.609 -25.8137 143.469 -30.0956C142.38 -32.3703 139.371 -37.3248 138.91 -35.9715C133.233 -20.7997 120.351 -12.8764 111.804 0.232246C98.8274 20.6499 103.018 49.2686 115.058 76.6467C115.845 78.6083 113.798 78.7731 112.175 77.3179C95.9423 63.6758 88.2201 45.1293 79.8493 27.5123C70.2391 7.46435 56.9833 -10.873 39.3691 -25.9461C36.78 -28.5682 34.3227 -31.3795 32.0292 -34.4395L32.7344 -35.7533Z" fill="#6F6F6F"/>
<path d="M34.4999 -39.8882C38.4159 -34.9336 42.7461 -30.1924 47.397 -25.7763C54.4787 -17.8295 63.4698 -11.7036 69.4147 -2.32819C81.1533 16.2664 85.002 36.7451 99.5913 53.4897C100.647 54.5856 101.488 53.1684 101.492 52.2567C96.3715 19.6968 108.455 -4.39506 127.03 -22.6654C131.675 -27.461 131.936 -34.9743 129.095 -43.418C128.271 -45.6468 130.363 -47.368 132.557 -46.4648C139.44 -43.4424 145.055 -36.4702 146.918 -29.4993C148.369 -23.6431 145.547 -19.7031 142.615 -16.5645C137.244 -10.4617 130.63 -5.87884 125.259 0.223926C119.811 6.70395 116.328 14.3087 116.018 24.2893C115.855 26.8674 116.21 32.2723 118.334 31.7302C129.715 28.8886 140.537 23.8652 155.062 29.7819C181.538 40.776 204.169 64.2632 213.334 90.4893C201.714 62.4022 177.571 38.2606 148.395 29.2731C136.248 25.5949 127.664 29.9659 119.153 34.8703C117.595 35.7723 116.282 32.8069 115.948 31.315C113.832 21.5635 116.369 13.6642 120.304 6.52972C124.737 -1.6912 131.543 -6.76196 138.276 -12.3668C143.259 -16.5821 148.361 -21.8195 145.747 -30.4848C144.031 -36.3873 140.117 -42.2815 134.216 -44.7422C132.854 -45.2398 131.374 -44.7154 131.672 -43.4907C133.718 -35.185 132.058 -28.4362 128.282 -22.9682C121.113 -13.0082 111.795 -5.50738 106.665 6.11085C99.9641 21.3653 101.019 39.4034 104.684 58.547C104.868 59.8824 104.138 62.1012 102.629 60.5353C95.7625 53.8663 91.8605 45.2375 87.5018 37.0509C78.9719 21.1 74.2018 3.32795 60.8112 -10.3406C56.1711 -14.9277 51.6816 -19.3579 47.1609 -23.9882C42.4436 -28.508 38.0329 -33.3129 33.8927 -38.3147L34.4999 -39.8882Z" fill="#6F6F6F"/>
<path d="M36.0973 -44.7235C39.6779 -40.0717 43.5425 -35.5923 47.7381 -31.5367C52.2008 -26.8259 57.147 -22.8374 62.0154 -18.4713C74.2439 -7.61121 78.0031 7.50891 84.8774 20.8258C87.2057 25.5317 88.8852 31.1673 93.497 33.6639C96.0293 35.147 96.5025 31.059 96.739 29.0151C99.5212 8.77798 109.1 -6.23637 121.285 -19.2332C127.264 -25.6208 126.816 -35.4729 124.361 -45.805C123.395 -50.013 129.006 -50.6003 132.974 -48.0852C139.322 -44.2434 145.74 -38.9557 147.489 -31.8747C151.774 -15.7511 136.707 -10.5539 129.052 -2.24209C125.549 1.44887 122.047 5.14014 120.281 10.1759C118.67 14.4569 116.108 19.3544 119.342 24.9997C119.53 25.4231 120.211 25.6721 120.325 25.5617C139.075 18.9206 162.994 25.4297 182.734 42.94C198.171 56.4438 208.858 73.0303 216.471 90.7762C216.621 90.9328 215.941 90.6838 215.79 90.5275C204.316 63.5086 182.979 39.073 155.406 27.6278C142.243 22.2093 130.679 23.715 120.427 28.1866C118.718 28.9317 117.634 25.7453 117.414 24.1433C116.693 16.068 119.751 10.0841 123.34 4.1926C128.645 -4.26726 136.777 -9.10759 143.326 -16.0478C146.564 -19.785 149.541 -24.4797 147.335 -31.1193C145.015 -37.648 140.42 -43.7914 134.259 -47.2094C132.028 -48.3797 129.757 -48.905 127.746 -48.4731C125.736 -48.0411 125.006 -45.8223 125.793 -43.8607C129.732 -34.965 128.785 -26.789 124.063 -21.6159C108.717 -5.25942 98.1349 13.7505 97.0285 40.535C97.0242 41.4467 96.0741 42.0629 95.0546 41.2342C91.9964 38.7473 90.6101 35.2479 88.8814 32.0795C80.2416 15.3279 75.4756 -3.35581 60.7966 -16.9882C56.1928 -21.3084 51.3612 -25.4076 46.8516 -30.1745C42.7984 -34.099 39.0475 -38.3735 35.525 -42.903L36.0973 -44.7235Z" fill="#6F6F6F"/>
<path d="M37.768 -50.1793C40.604 -46.2988 43.707 -42.73 47.0228 -39.4326C66.6667 -23.2641 79.535 -3.03985 90.9556 18.8876C91.4815 19.8914 93.3411 19.3026 93.7244 18.3268C100.539 2.96193 109.804 -9.6309 119.677 -22.5086C123.833 -28.0408 122.051 -36.3006 120.42 -44.4039C119.532 -48.9895 122.994 -52.0357 127.463 -51.5186C135.606 -50.6228 142.354 -42.932 146.831 -35.7669C150.856 -29.0716 150.521 -22.0922 147.014 -17.4899C137.981 -6.02969 122.343 -0.280428 120.748 17.2965C120.776 19.3867 122.586 21.2653 124.597 20.8333C162.234 10.4422 205.249 51.4218 219.768 92.1333C219.768 92.1333 219.278 91.3967 218.899 91.4609C206.712 63.0145 184.637 34.1504 153.385 23.2375C141.846 19.2742 132.104 19.9241 122.807 22.8676C122.085 23.2634 120.686 22.4986 120.274 21.3842C117.971 11.2092 124.251 5.13413 129.128 -0.793551C134.996 -7.98276 143.389 -11.8653 148.164 -20.4172C153.209 -29.8347 143.415 -42.7472 133.249 -48.9478C130.868 -50.2744 128.523 -51.3341 126.248 -50.9481C123.328 -50.544 120.665 -48.2708 121.713 -45.3517C127.213 -29.7981 120.725 -19.5891 112.655 -11.4803C103.329 -2.15626 99.0627 11.0458 94.1159 23.9991C93.1576 26.4386 90.2093 24.7527 88.9701 22.3217C82.0586 8.73794 77.9943 -5.78392 67.0582 -17.5915C60.3831 -24.7485 52.7949 -31.0212 45.7658 -37.9355C42.6624 -41.0199 39.7695 -44.3997 37.1465 -48.1471L37.768 -50.1793Z" fill="#6F6F6F"/>
<path d="M39.7428 -56.1314C42.5446 -51.9625 45.3661 -47.4313 49.2928 -44.272C66.9692 -31.4212 80.0009 -13.775 89.6151 5.36198C91.2297 8.64015 94.5001 6.08181 95.6829 4.33298C101.025 -3.85999 106.441 -11.5186 112.876 -18.3485C118.397 -24.2944 118.589 -33.2534 117.004 -42.9128C116.343 -47.7194 118.297 -52.3317 123.035 -52.6801C130.2 -53.2574 138.437 -47.9143 144.206 -41.6969C148.467 -37.0457 151.888 -30.9766 151.334 -25.5995C150.056 -11.3557 136.286 -8.01826 129.194 1.56452C126.564 5.01656 121.006 10.6953 125.907 16.2402C166.256 9.57867 208.846 52.1788 223.928 94.1611C223.964 94.4283 222.908 93.3318 222.908 93.3318C206.991 51.8557 164.36 9.90029 124.536 17.5653C123.664 17.8043 122.8 16.2202 122.652 15.1523C123.256 7.30741 128.203 2.82544 132.281 -2.32952C139.405 -10.7335 154.811 -15.3504 149.466 -31.6591C146.139 -41.7516 136.173 -50.2628 126.444 -52.3472C121.901 -53.3987 118.06 -50.2877 118.304 -45.6836C118.492 -36.7891 121.48 -27.2768 116.26 -21.0175C108.981 -11.8584 102.122 -3.40828 95.9353 7.11381C94.7893 9.12955 93.1458 12.2323 90.1975 10.5464C88.2324 9.42256 87.1802 7.41448 86.3935 5.45317C79.413 -9.57606 71.8294 -25.2315 56.5261 -34.9325C53.6921 -36.7293 51.2417 -39.5014 48.8064 -41.8703C45.1266 -45.5306 41.864 -49.6299 38.9781 -53.9363L39.7428 -56.1314Z" fill="#6F6F6F"/>
<path d="M42.255 -62.4242C44.7736 -58.7343 47.4266 -54.9851 50.4369 -51.5631C53.4471 -48.1414 56.8077 -45.0351 60.6903 -42.5428C73.9512 -34.2444 82.5302 -20.7613 89.0254 -7.38049C90.2649 -4.94952 93.103 -4.06434 94.7749 -5.07633C105.916 -13.4332 115.552 -24.2669 113.926 -41.7527C112.87 -51.3199 121.385 -57.1361 131.216 -52.4274C140.896 -47.8755 149.002 -38.7755 151.571 -28.554C153.581 -20.5152 148.972 -15.4526 144.67 -10.9886C138.578 -4.49004 125.37 0.118098 128.689 12.0342C128.949 12.9918 131.07 13.3608 132.358 13.3246C175.305 10.5036 212.802 56.5179 228.462 96.1255C227.896 95.7661 227.251 95.7847 227.064 95.3609C210.837 55.3944 172.956 10.3559 130.686 14.3369C129.549 14.53 127.693 14.2071 127.094 12.6692C124.884 6.94129 129.296 3.27828 132.077 -0.0172154C138.251 -7.8044 148.842 -11.6954 151.505 -22.4397C154.209 -33.8288 141.956 -47.6904 129.739 -52.8141C121.343 -56.491 115.104 -51.0607 114.765 -43.1699C114.504 -35.6566 116.893 -27.6819 112.587 -22.3062C106.147 -14.5649 101.78 -3.98691 91.4955 -0.694133C90.7371 -0.565542 89.4526 -1.4407 88.7758 -2.60101C82.9899 -13.6429 78.3827 -25.522 67.622 -34.1721C61.5058 -39.1462 55.4219 -42.9421 50.1469 -48.7314C46.8322 -52.2576 43.9017 -56.157 41.2829 -60.1334L42.255 -62.4242Z" fill="#6F6F6F"/>
<path d="M45.3197 -68.7823C47.4791 -65.1622 49.8104 -61.5382 52.5138 -58.3018C55.2172 -55.0653 58.2928 -52.2165 61.9377 -50.1454C74.2627 -43.3119 83.7959 -31.3571 90.9027 -19.1728C91.6163 -17.7453 92.9739 -16.3361 94.4134 -16.216C101.345 -15.6612 105.122 -21.1293 107.116 -26.3858C109.649 -33.3735 110.518 -41.1719 112.899 -48.3162C114.241 -51.7315 116.566 -54.5853 120.81 -54.7588C134.72 -55.2051 151.295 -41.8943 153.729 -27.0051C154.984 -19.749 151.098 -15.0822 147.138 -10.9492C141.845 -5.22398 133.229 -2.03184 131.976 6.74238C131.589 8.62983 134.198 9.73569 135.903 9.90197C180.265 12.6706 215.796 57.5611 232.933 97.5557C232.403 97.4633 231.457 97.1684 231.421 96.9012C214.064 55.3046 177.125 11.4723 132.075 10.278C130.9 10.2039 130.035 8.6201 130.419 7.64431C133.649 -2.741 143.901 -7.21234 150.038 -15.2667C153.203 -19.538 154.365 -25.2 151.666 -31.6649C147.279 -41.9423 137.999 -51.1162 127.629 -54.0937C111.355 -58.6206 111.99 -39.8736 109.893 -28.7697C108.494 -21.0636 103.091 -16.1391 96.8969 -12.2651C94.9599 -11.299 91.9301 -11.696 90.5396 -14.2838C83.6244 -26.956 74.9638 -39.15 62.2428 -46.8014C58.3352 -49.0812 54.9192 -52.0542 51.9299 -55.4369C48.9403 -58.8193 46.3774 -62.6117 44.1527 -66.4978L45.3197 -68.7823Z" fill="#6F6F6F"/>
<path d="M48.9123 -75.0196C52.381 -68.7215 57.1092 -63.5528 62.4634 -59.0959C65.1406 -56.8676 67.9739 -54.8169 70.8749 -52.8806C80.1892 -48.1525 86.7091 -40.2407 92.5804 -31.3993C94.8397 -28.1391 98.8112 -26.5356 101.017 -28.3671C107.179 -33.4197 106.882 -43.1155 111.119 -49.9367C114.63 -55.451 121.387 -58.0543 129.33 -54.847C139.696 -50.9578 148.446 -41.876 153.062 -31.8196C160.605 -15.5196 145.492 -8.76657 138.291 0.0149648C137.414 1.16583 136.574 2.58361 136.831 4.45253C137.165 5.94419 138.714 6.86558 140.19 7.25285C157.753 11.743 174.928 18.1208 190.137 31.8457C211.349 50.6548 224.731 74.6176 237.661 98.1107C237.13 98.0186 236.221 97.9906 236.034 97.5669C216.809 58.3815 183.773 14.7074 140.109 8.54146C138.519 8.26483 136.513 7.78545 135.497 6.04454C134.07 3.18982 135.975 1.0449 137.308 -0.547386C141.924 -7.43296 150.312 -10.4041 153.457 -18.5889C155.757 -24.444 153.519 -32.2621 148.434 -39.1422C142.22 -47.652 133.461 -54.9108 124.596 -55.4111C108.155 -56.4477 109.279 -36.9644 103.015 -26.0647C100.993 -22.8981 95.7931 -21.1964 92.5191 -26.1972C85.3673 -36.8249 77.2286 -47.1038 66.0751 -52.9534C61.9558 -55.1704 58.5022 -58.1828 55.4898 -61.6151C52.4777 -65.0478 49.9072 -68.9003 47.553 -72.797L48.9123 -75.0196Z" fill="#6F6F6F"/>
<path d="M53.0918 -80.9578C57.1931 -74.4718 62.1696 -68.765 67.9225 -64.04C70.799 -61.6773 73.8695 -59.5605 77.1181 -57.7102C80.867 -55.4571 84.9163 -54.2308 88.6963 -52.1394C91.6446 -50.4535 92.6884 -46.623 95.7463 -44.1355C97.9363 -42.321 100.66 -41.3254 102.144 -42.7612C106.94 -47.4003 109.925 -53.9181 116.627 -56.2504C119.164 -57.2213 121.963 -57.6018 124.955 -57.1974C127.947 -56.7928 131.135 -55.6028 134.441 -53.4308C144.981 -46.3832 155.807 -35.3765 156.663 -23.498C157.523 -12.5318 148.674 -8.20725 143.189 -1.99409C141.399 0.0401846 141.912 3.77887 145.733 5.22555C161.583 11.3724 176.451 16.9578 190.38 28.8959C213.483 48.2952 226.898 73.4369 242.327 97.2347C241.833 97.4095 241.34 97.584 240.847 97.7588C219.387 58.3152 188.015 15.4518 142.813 5.62956C139.596 4.80939 139.727 1.05245 141.175 -0.65047C146.321 -7.44394 154.75 -11.0593 155.97 -21.0124C157.344 -31.7202 148.606 -43.5367 138.331 -50.5381C132.626 -54.3984 126.84 -56.9692 120.927 -56.6953C108.649 -56.6168 108.811 -42.2526 100.415 -37.4585C94.906 -34.2471 91.2813 -45.5645 86.2211 -49.4427C82.482 -52.1786 78.547 -53.5152 74.7417 -55.9546C71.652 -57.8611 68.6688 -59.9779 65.858 -62.3105C60.2364 -66.9765 55.3043 -72.5047 51.5199 -78.8537L53.0918 -80.9578Z" fill="#6F6F6F"/>
<path d="M57.821 -86.4267C64.5528 -76.288 72.9933 -65.6963 84.7657 -62.8656C87.9258 -61.9897 91.022 -61.5811 94.0976 -60.8504C97.1732 -60.1195 100.228 -59.0666 103.29 -56.8986C103.881 -56.2694 104.76 -56.5105 105.258 -56.6864C109.936 -57.5707 114.703 -58.9259 119.645 -59.092C124.586 -59.2584 129.707 -58.2367 135.089 -54.3677C138.81 -51.7653 142.154 -48.9241 145.172 -45.8927C151.958 -38.9207 157.907 -30.4569 158.588 -21.7368C159.154 -12.9066 153.184 -8.34164 149.216 -2.38565C147.157 0.514065 151.349 3.7199 154.374 5.02797C162.582 8.2812 170.183 11.8199 177.702 16.6472C192.06 26.0533 204.664 37.7604 215.742 51.5483C227.008 65.7596 235.583 80.1545 246.201 95.2951C246.352 95.4516 245.328 95.5343 245.137 96.0222C230.898 77.1231 220.154 56.3561 203.672 39.0214C188.284 23.0497 170.22 12.0865 150.284 4.44646C146.728 3.0454 145.456 -0.56442 147.095 -2.75496C151.749 -9.37364 159.766 -14.1034 157.503 -24.9234C155.648 -33.7168 149.772 -41.6469 142.957 -47.9353C140.334 -50.3154 137.512 -52.4088 134.483 -54.1177C131.453 -55.8261 128.217 -57.1498 124.76 -57.9906C120.142 -59.1201 116.547 -58.2143 113.21 -56.7042C108.796 -55.556 105.892 -50.3271 100.179 -52.3641C98.1362 -53.1107 97.0109 -55.6523 94.9677 -56.3989C90.8819 -57.8921 87.1343 -58.8049 83.1698 -60.5639C79.5247 -62.178 76.0055 -64.1386 72.6975 -66.4496C66.0813 -71.0715 60.3093 -77.095 56.0577 -84.5493L57.821 -86.4267Z" fill="#6F6F6F"/>
<path d="M62.9034 -91.1328C67.7343 -84.201 72.2848 -76.5022 79.5797 -72.365C88.3097 -67.1964 96.8771 -67.9208 105.738 -66.5091C116.683 -64.995 127.623 -62.5698 138.159 -54.6103C141.823 -51.8011 145.086 -48.7896 148.029 -45.6192C162.01 -32.6048 164.166 -15.0268 157.176 -2.81994C156.601 -1.35595 158.485 1.05707 160.185 2.135C184.068 16.8482 206.466 32.997 224.016 57.1639C232.942 69.4039 240.925 80.4376 250.307 92.2362C250.307 92.2362 249.622 92.8989 249.165 93.3403C246.262 90.0983 243.624 86.9022 241.178 83.2185C220.101 51.2696 195.868 21.7691 161.8 5.4132C157.791 3.54278 151.41 -1.47754 154.378 -4.3493C164.659 -15.2016 160.052 -35.5522 144.795 -48.2665C141.398 -51.4957 137.704 -54.3155 133.688 -56.5808C129.673 -58.8459 125.334 -60.5565 120.646 -61.5684C117.465 -62.122 114.623 -62.0953 111.406 -62.9157C102.398 -65.3959 94.7036 -64.9107 85.7324 -67.1237C74.6411 -69.7052 67.1099 -80.2695 61.0508 -89.5082L62.9034 -91.1328Z" fill="#6F6F6F"/>
<path d="M68.0927 -95.318C73.5417 -86.1893 81.187 -75.7361 91.9034 -74.0013C108.679 -71.4725 125.838 -69.9195 141.198 -56.038C144.451 -53.0828 147.436 -49.9785 150.203 -46.7557C162.961 -33.223 167.625 -17.1634 166.984 -1.11478C167.012 0.975422 169.769 3.14923 172.036 4.58647C201.052 23.712 223.785 49.8237 244.286 77.2928C250.705 84.4715 254.359 88.3054 254.359 88.3054L252.979 89.6387C249.693 85.8718 245.995 82.4912 242.945 78.1807C220.69 47.0693 195.947 21.3895 165.002 1.4074C164.019 0.845333 163.155 -0.738444 163.31 -1.49354C165.068 -13.1772 165.391 -25.8933 156.005 -37.9711C153.523 -41.5808 150.681 -45.0903 147.504 -48.4386C144.326 -51.7869 140.827 -54.9735 136.925 -57.9552C121.141 -70.2158 105.714 -69.5127 89.6603 -72.437C79.0216 -74.5494 71.7921 -84.8001 66.2187 -93.8555L68.0927 -95.318Z" fill="#6F6F6F"/>
<path d="M73.2722 -99.1977C77.6878 -89.8995 85.4558 -81.3797 95.5604 -78.4481C107.141 -75.1292 118.09 -74.5267 129.315 -68.1419C137.921 -63.2558 145.248 -56.8978 151.687 -49.6807C154.906 -46.0723 157.903 -42.2489 160.67 -38.2929C170.128 -26.2417 172.113 -12.7335 177.434 0.573447C178.221 2.53536 179.766 4.3678 181.768 5.75912C207.975 26.0896 227.686 49.9814 248.252 74.1661C254.542 80.8172 258.187 84.6008 258.187 84.6008L256.807 85.9358C256.807 85.9358 253.161 82.1478 246.81 75.2764C226.621 50.7085 206.421 26.0802 179.831 6.72548C175.676 3.78657 172.548 -0.14611 172.19 -4.63962C170.58 -17.3006 165.976 -30.0917 156.972 -41.4516C154.445 -44.7861 151.743 -48.0208 148.822 -51.1239C145.902 -54.2274 142.762 -57.1989 139.358 -60.0072C125.768 -71.365 111.189 -73.9021 96.6486 -76.1725C85.6672 -77.9536 76.4641 -87.5051 71.4111 -97.8122L73.2722 -99.1977Z" fill="#6F6F6F"/>
<path d="M78.3837 -102.926C85.3658 -85.8234 102.737 -80.8453 117.873 -76.1256C131.297 -71.981 142.35 -64.1806 151.871 -54.4471C155.045 -51.2028 158.049 -47.7435 160.914 -44.1333C172.387 -30.5376 178.91 -15.0665 185.927 0.229707C186.979 2.23724 188.296 4.29098 190.07 5.90329C212.411 26.343 231.979 48.2548 252.122 70.6172C258.376 77.1155 262.021 80.8989 262.021 80.8989L260.641 82.2339C260.641 82.2339 256.995 78.4508 250.734 71.9218C231.551 50.7867 213.916 28.8201 191.301 10.1573C186.922 6.5283 183.835 1.9506 181.47 -3.02231C175.693 -15.8873 170.674 -28.8809 161.656 -40.6156C159.219 -43.9433 156.641 -47.223 153.87 -50.442C139.244 -67.4539 120.108 -75.867 100.914 -79.9896C90.2384 -82.3692 81.6024 -91.5611 76.5535 -101.594L78.3837 -102.926Z" fill="#6F6F6F"/>
<path d="M83.375 -106.602C88.2497 -96.7941 95.9765 -87.6296 106.46 -84.7624C127.124 -78.8854 144.006 -66.4003 158.488 -50.9127C162.108 -47.0407 165.578 -42.981 168.92 -38.79C178.728 -26.7007 186.246 -13.4025 193.879 -0.214376C198.842 8.59909 206.275 15.6272 213.443 22.6089C227.968 36.9965 241.807 52.0468 255.949 66.9204C262.198 73.4059 265.843 77.1893 265.843 77.1893L264.463 78.5243C264.463 78.5243 260.818 74.7412 254.568 68.2554C239.079 51.9629 224.49 35.2182 208.265 19.7529C201.586 13.5076 194.87 6.99557 190.283 -0.970963C182.878 -14.3798 176.004 -27.6965 166.277 -40.0472C163.76 -43.3377 161.152 -46.5681 158.424 -49.7255C155.695 -52.8831 152.846 -55.9674 149.847 -58.9654C135.171 -73.5095 117.686 -78.3775 100.25 -85.713C91.475 -89.3252 86.0925 -97.4301 81.5926 -105.284L83.375 -106.602Z" fill="#6F6F6F"/>
</svg>
