<svg width="120" height="120" viewBox="0 0 120 120" fill="none" xmlns="http://www.w3.org/2000/svg">
<path d="M11.5296 95.3732L24.6225 108.472C27.1892 110.346 29.848 112.038 32.6151 113.459L6.53906 87.377C7.95792 90.1478 9.65163 92.8066 11.5296 95.3732Z" fill="#DFDFDF"/>
<path d="M1.26022 72.4383L47.5549 118.733C48.7557 118.989 49.9672 119.178 51.1849 119.356L0.640625 68.8145C0.817982 70.0298 1.00762 71.2383 1.26022 72.4383Z" fill="#DFDFDF"/>
<path d="M64.3605 119.862L0.1382 55.6405C0.0691002 56.5971 0.0230333 57.553 0 58.5089L61.489 120C62.4487 119.975 63.4069 119.934 64.3605 119.862Z" fill="#DFDFDF"/>
<path d="M75.2234 118.058L1.94596 44.7773C1.73942 45.5781 1.53212 46.382 1.35938 47.1943L72.8118 118.643C73.6218 118.468 74.4195 118.262 75.2234 118.058Z" fill="#DFDFDF"/>
<path d="M84.5864 114.752L5.24355 35.416C4.93951 36.1032 4.58402 36.7719 4.29688 37.4721L82.5303 115.7C83.2252 115.418 83.897 115.062 84.5864 114.752Z" fill="#DFDFDF"/>
<path d="M92.8092 110.312L9.67577 27.1836C9.27423 27.8009 8.94101 28.4466 8.5625 29.0692L90.9197 111.434C91.5516 111.052 92.195 110.717 92.8092 110.312Z" fill="#DFDFDF"/>
<path d="M99.9416 104.769L15.2297 20.0586C14.759 20.5876 14.2531 21.0982 13.8047 21.641L98.3562 106.2C98.9013 105.747 99.4126 105.243 99.9416 104.769Z" fill="#DFDFDF"/>
<path d="M106.199 98.3603L21.6364 13.8047C21.0967 14.2523 20.5861 14.7575 20.0625 15.2281L104.769 99.9419C105.24 99.4106 105.746 98.8993 106.199 98.3603Z" fill="#DFDFDF"/>
<path d="M111.434 90.9255L29.0762 8.56641C28.4505 8.94261 27.8017 9.27891 27.1875 9.68352L110.314 92.8142C110.722 92.1946 111.055 91.5543 111.434 90.9255Z" fill="#DFDFDF"/>
<path d="M115.699 82.5262L37.4702 4.30078C36.7761 4.57948 36.1043 4.93878 35.4141 5.24512L114.758 84.5846C115.062 83.8951 115.424 83.2264 115.699 82.5262Z" fill="#DFDFDF"/>
<path d="M118.645 72.8022L47.1928 1.35156C46.389 1.52815 45.5851 1.73621 44.7812 1.94351L118.053 75.223C118.267 74.4161 118.468 73.6153 118.645 72.8022Z" fill="#DFDFDF"/>
<path d="M120.002 61.492L58.5121 0C57.5524 0.0253363 56.6003 0.0660223 55.6406 0.138192L119.869 64.3626C119.938 63.4067 119.979 62.4509 120.002 61.492Z" fill="#DFDFDF"/>
<path d="M118.726 47.562L72.4364 1.26487C71.2356 1.00921 70.0241 0.822653 68.8125 0.644531L119.351 51.182C119.173 49.9712 118.984 48.7628 118.726 47.562Z" fill="#DFDFDF"/>
<path d="M108.473 24.6369L95.363 11.5242C92.7955 9.6501 90.1428 7.96027 87.375 6.54297L113.457 32.6194C112.039 29.8539 110.345 27.2005 108.473 24.6369Z" fill="#DFDFDF"/>
</svg>
