<svg width="108" height="108" viewBox="0 0 108 108" fill="none" xmlns="http://www.w3.org/2000/svg">
<path d="M92.8296 0C91.6003 0 90.6016 0.992741 90.6016 2.22108C90.6016 3.45244 91.6003 4.44921 92.8296 4.44921C94.057 4.44921 95.0557 3.45144 95.0557 2.22108C95.0557 0.991734 94.057 0 92.8296 0Z" fill="#D8D8D8"/>
<path d="M92.8296 12.9414C91.6003 12.9414 90.6016 13.9392 90.6016 15.1695C90.6016 16.3969 91.6003 17.3906 92.8296 17.3906C94.057 17.3906 95.0557 16.3969 95.0557 15.1695C95.0557 13.9392 94.057 12.9414 92.8296 12.9414Z" fill="#D8D8D8"/>
<path d="M92.8296 25.8867C91.6003 25.8867 90.6016 26.8795 90.6016 28.1098C90.6016 29.3402 91.6003 30.3339 92.8296 30.3339C94.057 30.3339 95.0557 29.3392 95.0557 28.1098C95.0557 26.8795 94.057 25.8867 92.8296 25.8867Z" fill="#D8D8D8"/>
<path d="M92.8296 38.8301C91.6003 38.8301 90.6016 39.8248 90.6016 41.0542C90.6016 42.2845 91.6003 43.2773 92.8296 43.2773C94.057 43.2773 95.0557 42.2845 95.0557 41.0542C95.0557 39.8258 94.057 38.8301 92.8296 38.8301Z" fill="#D8D8D8"/>
<path d="M92.8296 51.7754C91.6003 51.7754 90.6016 52.7681 90.6016 53.9975C90.6016 55.2278 91.6003 56.2206 92.8296 56.2206C94.057 56.2206 95.0557 55.2288 95.0557 53.9975C95.0557 52.7681 94.057 51.7754 92.8296 51.7754Z" fill="#D8D8D8"/>
<path d="M92.8296 64.7207C91.6003 64.7207 90.6016 65.7134 90.6016 66.9438C90.6016 68.1681 91.6003 69.1709 92.8296 69.1709C94.057 69.1709 95.0557 68.1671 95.0557 66.9438C95.0557 65.7134 94.057 64.7207 92.8296 64.7207Z" fill="#D8D8D8"/>
<path d="M92.8296 77.6621C91.6003 77.6621 90.6016 78.6589 90.6016 79.8892C90.6016 81.1146 91.6003 82.1123 92.8296 82.1123C94.057 82.1123 95.0557 81.1146 95.0557 79.8892C95.0557 78.6599 94.057 77.6621 92.8296 77.6621Z" fill="#D8D8D8"/>
<path d="M92.8296 90.6094C91.6003 90.6094 90.6016 91.6011 90.6016 92.8305C90.6016 94.0608 91.6003 95.0576 92.8296 95.0576C94.057 95.0576 95.0557 94.0598 95.0557 92.8305C95.0557 91.6011 94.057 90.6094 92.8296 90.6094Z" fill="#D8D8D8"/>
<path d="M92.8296 103.551C91.6003 103.551 90.6016 104.544 90.6016 105.773C90.6016 107.002 91.6003 108 92.8296 108C94.057 108 95.0557 107.001 95.0557 105.773C95.0557 104.544 94.057 103.551 92.8296 103.551Z" fill="#D8D8D8"/>
<path d="M105.777 4.44921C107.004 4.44921 108.002 3.45144 108.002 2.22108C108.002 0.992741 107.004 0 105.777 0C104.542 0 103.555 0.992741 103.555 2.22108C103.555 3.45144 104.543 4.44921 105.777 4.44921Z" fill="#D8D8D8"/>
<path d="M105.777 12.9414C104.542 12.9414 103.555 13.9392 103.555 15.1695C103.555 16.3969 104.542 17.3906 105.777 17.3906C107.004 17.3906 108.002 16.3969 108.002 15.1695C108.002 13.9392 107.004 12.9414 105.777 12.9414Z" fill="#D8D8D8"/>
<path d="M105.777 25.8867C104.542 25.8867 103.555 26.8795 103.555 28.1098C103.555 29.3402 104.542 30.3339 105.777 30.3339C107.004 30.3339 108.002 29.3392 108.002 28.1098C108.002 26.8795 107.004 25.8867 105.777 25.8867Z" fill="#D8D8D8"/>
<path d="M105.777 38.8301C104.542 38.8301 103.555 39.8248 103.555 41.0542C103.555 42.2845 104.542 43.2773 105.777 43.2773C107.004 43.2773 108.002 42.2845 108.002 41.0542C108.002 39.8258 107.004 38.8301 105.777 38.8301Z" fill="#D8D8D8"/>
<path d="M105.777 51.7754C104.542 51.7754 103.555 52.7681 103.555 53.9975C103.555 55.2278 104.542 56.2206 105.777 56.2206C107.004 56.2206 108.002 55.2288 108.002 53.9975C108.002 52.7681 107.004 51.7754 105.777 51.7754Z" fill="#D8D8D8"/>
<path d="M105.777 64.7207C104.542 64.7207 103.555 65.7134 103.555 66.9438C103.555 68.1681 104.542 69.1709 105.777 69.1709C107.004 69.1709 108.002 68.1671 108.002 66.9438C108.002 65.7134 107.004 64.7207 105.777 64.7207Z" fill="#D8D8D8"/>
<path d="M105.777 77.6621C104.542 77.6621 103.555 78.6589 103.555 79.8892C103.555 81.1146 104.542 82.1123 105.777 82.1123C107.004 82.1123 108.002 81.1146 108.002 79.8892C108.002 78.6599 107.004 77.6621 105.777 77.6621Z" fill="#D8D8D8"/>
<path d="M105.777 90.6094C104.542 90.6094 103.555 91.6011 103.555 92.8305C103.555 94.0608 104.542 95.0576 105.777 95.0576C107.004 95.0576 108.002 94.0598 108.002 92.8305C108.002 91.6011 107.004 90.6094 105.777 90.6094Z" fill="#D8D8D8"/>
<path d="M105.777 103.551C104.542 103.551 103.555 104.544 103.555 105.773C103.555 107.002 104.542 108 105.777 108C107.004 108 108.002 107.001 108.002 105.773C108.002 104.544 107.004 103.551 105.777 103.551Z" fill="#D8D8D8"/>
<path d="M2.2251 0C0.997785 0 0 0.992741 0 2.22108C0 3.45244 0.997785 4.44921 2.2251 4.44921C3.45242 4.44921 4.44716 3.45144 4.44716 2.22108C4.44616 0.991734 3.45242 0 2.2251 0Z" fill="#D8D8D8"/>
<path d="M2.2251 12.9414C0.997785 12.9414 0 13.9392 0 15.1695C0 16.3969 0.997785 17.3906 2.2251 17.3906C3.45242 17.3906 4.44716 16.3969 4.44716 15.1695C4.44616 13.9392 3.45242 12.9414 2.2251 12.9414Z" fill="#D8D8D8"/>
<path d="M2.2251 25.8867C0.997785 25.8867 0 26.8795 0 28.1098C0 29.3402 0.997785 30.3339 2.2251 30.3339C3.45242 30.3339 4.44716 29.3392 4.44716 28.1098C4.44616 26.8795 3.45242 25.8867 2.2251 25.8867Z" fill="#D8D8D8"/>
<path d="M2.2251 38.8301C0.997785 38.8301 0 39.8248 0 41.0542C0 42.2845 0.997785 43.2773 2.2251 43.2773C3.45242 43.2773 4.44716 42.2845 4.44716 41.0542C4.44616 39.8258 3.45242 38.8301 2.2251 38.8301Z" fill="#D8D8D8"/>
<path d="M2.2251 51.7754C0.997785 51.7754 0 52.7681 0 53.9975C0 55.2278 0.997785 56.2206 2.2251 56.2206C3.45242 56.2206 4.44716 55.2288 4.44716 53.9975C4.44616 52.7681 3.45242 51.7754 2.2251 51.7754Z" fill="#D8D8D8"/>
<path d="M2.2251 64.7207C0.997785 64.7207 0 65.7134 0 66.9438C0 68.1681 0.997785 69.1709 2.2251 69.1709C3.45242 69.1709 4.44716 68.1671 4.44716 66.9438C4.44616 65.7134 3.45242 64.7207 2.2251 64.7207Z" fill="#D8D8D8"/>
<path d="M2.2251 77.6621C0.997785 77.6621 0 78.6589 0 79.8892C0 81.1146 0.997785 82.1123 2.2251 82.1123C3.45242 82.1123 4.44716 81.1146 4.44716 79.8892C4.44616 78.6599 3.45242 77.6621 2.2251 77.6621Z" fill="#D8D8D8"/>
<path d="M2.2251 90.6094C0.997785 90.6094 0 91.6011 0 92.8305C0 94.0608 0.997785 95.0576 2.2251 95.0576C3.45242 95.0576 4.44716 94.0598 4.44716 92.8305C4.44616 91.6011 3.45242 90.6094 2.2251 90.6094Z" fill="#D8D8D8"/>
<path d="M2.2251 103.551C0.997785 103.551 0 104.544 0 105.773C0 107.002 0.997785 108 2.2251 108C3.45242 108 4.44716 107.001 4.44716 105.773C4.44616 104.544 3.45242 103.551 2.2251 103.551Z" fill="#D8D8D8"/>
<path d="M15.1626 0C13.9322 0 12.9375 0.992741 12.9375 2.22108C12.9375 3.45244 13.9322 4.44921 15.1626 4.44921C16.3899 4.44921 17.3897 3.45144 17.3897 2.22108C17.3897 0.991734 16.3899 0 15.1626 0Z" fill="#D8D8D8"/>
<path d="M15.1704 12.9414C13.94 12.9414 12.9453 13.9392 12.9453 15.1695C12.9453 16.3969 13.94 17.3906 15.1704 17.3906C16.3977 17.3906 17.3975 16.3969 17.3975 15.1695C17.3975 13.9392 16.3977 12.9414 15.1704 12.9414Z" fill="#D8D8D8"/>
<path d="M15.1704 25.8867C13.94 25.8867 12.9453 26.8795 12.9453 28.1098C12.9453 29.3402 13.94 30.3339 15.1704 30.3339C16.3977 30.3339 17.3975 29.3392 17.3975 28.1098C17.3975 26.8795 16.3977 25.8867 15.1704 25.8867Z" fill="#D8D8D8"/>
<path d="M15.1704 38.8301C13.94 38.8301 12.9453 39.8248 12.9453 41.0542C12.9453 42.2845 13.94 43.2773 15.1704 43.2773C16.3977 43.2773 17.3975 42.2845 17.3975 41.0542C17.3975 39.8258 16.3977 38.8301 15.1704 38.8301Z" fill="#D8D8D8"/>
<path d="M15.1704 51.7754C13.94 51.7754 12.9453 52.7681 12.9453 53.9975C12.9453 55.2278 13.94 56.2206 15.1704 56.2206C16.3977 56.2206 17.3975 55.2288 17.3975 53.9975C17.3975 52.7681 16.3977 51.7754 15.1704 51.7754Z" fill="#D8D8D8"/>
<path d="M15.1704 64.7207C13.94 64.7207 12.9453 65.7134 12.9453 66.9438C12.9453 68.1681 13.94 69.1709 15.1704 69.1709C16.3977 69.1709 17.3975 68.1671 17.3975 66.9438C17.3975 65.7134 16.3977 64.7207 15.1704 64.7207Z" fill="#D8D8D8"/>
<path d="M15.1704 77.6621C13.94 77.6621 12.9453 78.6589 12.9453 79.8892C12.9453 81.1146 13.94 82.1123 15.1704 82.1123C16.3977 82.1123 17.3975 81.1146 17.3975 79.8892C17.3975 78.6599 16.3977 77.6621 15.1704 77.6621Z" fill="#D8D8D8"/>
<path d="M15.1704 90.6094C13.94 90.6094 12.9453 91.6011 12.9453 92.8305C12.9453 94.0608 13.94 95.0576 15.1704 95.0576C16.3977 95.0576 17.3975 94.0598 17.3975 92.8305C17.3975 91.6011 16.3977 90.6094 15.1704 90.6094Z" fill="#D8D8D8"/>
<path d="M15.1704 103.551C13.94 103.551 12.9453 104.544 12.9453 105.773C12.9453 107.002 13.94 108 15.1704 108C16.3977 108 17.3975 107.001 17.3975 105.773C17.3975 104.544 16.3977 103.551 15.1704 103.551Z" fill="#D8D8D8"/>
<path d="M28.1137 0C26.8854 0 25.8906 0.992741 25.8906 2.22108C25.8906 3.45244 26.8854 4.44921 28.1137 4.44921C29.3461 4.44921 30.3408 3.45144 30.3408 2.22108C30.3408 0.991734 29.345 0 28.1137 0Z" fill="#D8D8D8"/>
<path d="M28.1137 12.9414C26.8854 12.9414 25.8906 13.9392 25.8906 15.1695C25.8906 16.3969 26.8854 17.3906 28.1137 17.3906C29.3461 17.3906 30.3408 16.3969 30.3408 15.1695C30.3408 13.9392 29.345 12.9414 28.1137 12.9414Z" fill="#D8D8D8"/>
<path d="M28.1137 25.8867C26.8854 25.8867 25.8906 26.8795 25.8906 28.1098C25.8906 29.3402 26.8854 30.3339 28.1137 30.3339C29.3461 30.3339 30.3408 29.3392 30.3408 28.1098C30.3408 26.8795 29.345 25.8867 28.1137 25.8867Z" fill="#D8D8D8"/>
<path d="M28.1137 38.8301C26.8854 38.8301 25.8906 39.8248 25.8906 41.0542C25.8906 42.2845 26.8854 43.2773 28.1137 43.2773C29.3461 43.2773 30.3408 42.2845 30.3408 41.0542C30.3408 39.8258 29.345 38.8301 28.1137 38.8301Z" fill="#D8D8D8"/>
<path d="M28.1137 51.7754C26.8854 51.7754 25.8906 52.7681 25.8906 53.9975C25.8906 55.2278 26.8854 56.2206 28.1137 56.2206C29.3461 56.2206 30.3408 55.2288 30.3408 53.9975C30.3408 52.7681 29.345 51.7754 28.1137 51.7754Z" fill="#D8D8D8"/>
<path d="M28.1137 64.7207C26.8854 64.7207 25.8906 65.7134 25.8906 66.9438C25.8906 68.1681 26.8854 69.1709 28.1137 69.1709C29.3461 69.1709 30.3408 68.1671 30.3408 66.9438C30.3408 65.7134 29.345 64.7207 28.1137 64.7207Z" fill="#D8D8D8"/>
<path d="M28.1137 77.6621C26.8854 77.6621 25.8906 78.6589 25.8906 79.8892C25.8906 81.1146 26.8854 82.1123 28.1137 82.1123C29.3461 82.1123 30.3408 81.1146 30.3408 79.8892C30.3408 78.6599 29.345 77.6621 28.1137 77.6621Z" fill="#D8D8D8"/>
<path d="M28.1137 90.6094C26.8854 90.6094 25.8906 91.6011 25.8906 92.8305C25.8906 94.0608 26.8854 95.0576 28.1137 95.0576C29.3461 95.0576 30.3408 94.0598 30.3408 92.8305C30.3408 91.6011 29.345 90.6094 28.1137 90.6094Z" fill="#D8D8D8"/>
<path d="M28.1137 103.551C26.8854 103.551 25.8906 104.544 25.8906 105.773C25.8906 107.002 26.8854 108 28.1137 108C29.3461 108 30.3408 107.001 30.3408 105.773C30.3408 104.544 29.345 103.551 28.1137 103.551Z" fill="#D8D8D8"/>
<path d="M41.0562 0C39.8279 0 38.8281 0.992741 38.8281 2.22108C38.8281 3.45244 39.8279 4.44921 41.0562 4.44921C42.2835 4.44921 43.2773 3.45144 43.2773 2.22108C43.2773 0.991734 42.2835 0 41.0562 0Z" fill="#D8D8D8"/>
<path d="M41.0562 12.9414C39.8279 12.9414 38.8281 13.9392 38.8281 15.1695C38.8281 16.3969 39.8279 17.3906 41.0562 17.3906C42.2835 17.3906 43.2773 16.3969 43.2773 15.1695C43.2773 13.9392 42.2835 12.9414 41.0562 12.9414Z" fill="#D8D8D8"/>
<path d="M41.0562 25.8867C39.8279 25.8867 38.8281 26.8795 38.8281 28.1098C38.8281 29.3402 39.8279 30.3339 41.0562 30.3339C42.2835 30.3339 43.2773 29.3392 43.2773 28.1098C43.2773 26.8795 42.2835 25.8867 41.0562 25.8867Z" fill="#D8D8D8"/>
<path d="M41.0562 38.8301C39.8279 38.8301 38.8281 39.8248 38.8281 41.0542C38.8281 42.2845 39.8279 43.2773 41.0562 43.2773C42.2835 43.2773 43.2773 42.2845 43.2773 41.0542C43.2773 39.8258 42.2835 38.8301 41.0562 38.8301Z" fill="#D8D8D8"/>
<path d="M41.0562 51.7754C39.8279 51.7754 38.8281 52.7681 38.8281 53.9975C38.8281 55.2278 39.8279 56.2206 41.0562 56.2206C42.2835 56.2206 43.2773 55.2288 43.2773 53.9975C43.2773 52.7681 42.2835 51.7754 41.0562 51.7754Z" fill="#D8D8D8"/>
<path d="M41.0562 64.7207C39.8279 64.7207 38.8281 65.7134 38.8281 66.9438C38.8281 68.1681 39.8279 69.1709 41.0562 69.1709C42.2835 69.1709 43.2773 68.1671 43.2773 66.9438C43.2773 65.7134 42.2835 64.7207 41.0562 64.7207Z" fill="#D8D8D8"/>
<path d="M41.0562 77.6621C39.8279 77.6621 38.8281 78.6589 38.8281 79.8892C38.8281 81.1146 39.8279 82.1123 41.0562 82.1123C42.2835 82.1123 43.2773 81.1146 43.2773 79.8892C43.2773 78.6599 42.2835 77.6621 41.0562 77.6621Z" fill="#D8D8D8"/>
<path d="M41.0562 90.6094C39.8279 90.6094 38.8281 91.6011 38.8281 92.8305C38.8281 94.0608 39.8279 95.0576 41.0562 95.0576C42.2835 95.0576 43.2773 94.0598 43.2773 92.8305C43.2773 91.6011 42.2835 90.6094 41.0562 90.6094Z" fill="#D8D8D8"/>
<path d="M41.0562 103.551C39.8279 103.551 38.8281 104.544 38.8281 105.773C38.8281 107.002 39.8279 108 41.0562 108C42.2835 108 43.2773 107.001 43.2773 105.773C43.2773 104.544 42.2835 103.551 41.0562 103.551Z" fill="#D8D8D8"/>
<path d="M54.0093 0C52.782 0 51.7812 0.992741 51.7812 2.22108C51.7812 3.45244 52.782 4.44921 54.0093 4.44921C55.2367 4.44921 56.2304 3.45144 56.2304 2.22108C56.2304 0.991734 55.2356 0 54.0093 0Z" fill="#D8D8D8"/>
<path d="M54.0093 12.9414C52.782 12.9414 51.7812 13.9392 51.7812 15.1695C51.7812 16.3969 52.782 17.3906 54.0093 17.3906C55.2367 17.3906 56.2304 16.3969 56.2304 15.1695C56.2304 13.9392 55.2356 12.9414 54.0093 12.9414Z" fill="#D8D8D8"/>
<path d="M54.0093 25.8867C52.782 25.8867 51.7812 26.8795 51.7812 28.1098C51.7812 29.3402 52.782 30.3339 54.0093 30.3339C55.2367 30.3339 56.2304 29.3392 56.2304 28.1098C56.2304 26.8795 55.2356 25.8867 54.0093 25.8867Z" fill="#D8D8D8"/>
<path d="M54.0093 38.8301C52.782 38.8301 51.7812 39.8248 51.7812 41.0542C51.7812 42.2845 52.782 43.2773 54.0093 43.2773C55.2367 43.2773 56.2304 42.2845 56.2304 41.0542C56.2304 39.8258 55.2356 38.8301 54.0093 38.8301Z" fill="#D8D8D8"/>
<path d="M54.0093 51.7754C52.782 51.7754 51.7812 52.7681 51.7812 53.9975C51.7812 55.2278 52.782 56.2206 54.0093 56.2206C55.2367 56.2206 56.2304 55.2288 56.2304 53.9975C56.2304 52.7681 55.2356 51.7754 54.0093 51.7754Z" fill="#D8D8D8"/>
<path d="M54.0093 64.7207C52.782 64.7207 51.7812 65.7134 51.7812 66.9438C51.7812 68.1681 52.782 69.1709 54.0093 69.1709C55.2367 69.1709 56.2304 68.1671 56.2304 66.9438C56.2304 65.7134 55.2356 64.7207 54.0093 64.7207Z" fill="#D8D8D8"/>
<path d="M54.0093 77.6621C52.782 77.6621 51.7812 78.6589 51.7812 79.8892C51.7812 81.1146 52.782 82.1123 54.0093 82.1123C55.2367 82.1123 56.2304 81.1146 56.2304 79.8892C56.2304 78.6599 55.2356 77.6621 54.0093 77.6621Z" fill="#D8D8D8"/>
<path d="M54.0093 90.6094C52.782 90.6094 51.7812 91.6011 51.7812 92.8305C51.7812 94.0608 52.782 95.0576 54.0093 95.0576C55.2367 95.0576 56.2304 94.0598 56.2304 92.8305C56.2304 91.6011 55.2356 90.6094 54.0093 90.6094Z" fill="#D8D8D8"/>
<path d="M54.0093 103.551C52.782 103.551 51.7812 104.544 51.7812 105.773C51.7812 107.002 52.782 108 54.0093 108C55.2367 108 56.2304 107.001 56.2304 105.773C56.2304 104.544 55.2356 103.551 54.0093 103.551Z" fill="#D8D8D8"/>
<path d="M66.9428 0C65.7155 0 64.7188 0.992741 64.7188 2.22108C64.7188 3.45244 65.7155 4.44921 66.9428 4.44921C68.1762 4.44921 69.1709 3.45144 69.1709 2.22108C69.1709 0.991734 68.1762 0 66.9428 0Z" fill="#D8D8D8"/>
<path d="M66.9428 12.9414C65.7155 12.9414 64.7188 13.9392 64.7188 15.1695C64.7188 16.3969 65.7155 17.3906 66.9428 17.3906C68.1762 17.3906 69.1709 16.3969 69.1709 15.1695C69.1709 13.9392 68.1762 12.9414 66.9428 12.9414Z" fill="#D8D8D8"/>
<path d="M66.9428 25.8867C65.7155 25.8867 64.7188 26.8795 64.7188 28.1098C64.7188 29.3402 65.7155 30.3339 66.9428 30.3339C68.1762 30.3339 69.1709 29.3392 69.1709 28.1098C69.1709 26.8795 68.1762 25.8867 66.9428 25.8867Z" fill="#D8D8D8"/>
<path d="M66.9428 38.8301C65.7155 38.8301 64.7188 39.8248 64.7188 41.0542C64.7188 42.2845 65.7155 43.2773 66.9428 43.2773C68.1762 43.2773 69.1709 42.2845 69.1709 41.0542C69.1709 39.8258 68.1762 38.8301 66.9428 38.8301Z" fill="#D8D8D8"/>
<path d="M66.9428 51.7754C65.7155 51.7754 64.7188 52.7681 64.7188 53.9975C64.7188 55.2278 65.7155 56.2206 66.9428 56.2206C68.1762 56.2206 69.1709 55.2288 69.1709 53.9975C69.1709 52.7681 68.1762 51.7754 66.9428 51.7754Z" fill="#D8D8D8"/>
<path d="M66.9428 64.7207C65.7155 64.7207 64.7188 65.7134 64.7188 66.9438C64.7188 68.1681 65.7155 69.1709 66.9428 69.1709C68.1762 69.1709 69.1709 68.1671 69.1709 66.9438C69.1709 65.7134 68.1762 64.7207 66.9428 64.7207Z" fill="#D8D8D8"/>
<path d="M66.9428 77.6621C65.7155 77.6621 64.7188 78.6589 64.7188 79.8892C64.7188 81.1146 65.7155 82.1123 66.9428 82.1123C68.1762 82.1123 69.1709 81.1146 69.1709 79.8892C69.1709 78.6599 68.1762 77.6621 66.9428 77.6621Z" fill="#D8D8D8"/>
<path d="M66.9428 90.6094C65.7155 90.6094 64.7188 91.6011 64.7188 92.8305C64.7188 94.0608 65.7155 95.0576 66.9428 95.0576C68.1762 95.0576 69.1709 94.0598 69.1709 92.8305C69.1709 91.6011 68.1762 90.6094 66.9428 90.6094Z" fill="#D8D8D8"/>
<path d="M66.9428 103.551C65.7155 103.551 64.7188 104.544 64.7188 105.773C64.7188 107.002 65.7155 108 66.9428 108C68.1762 108 69.1709 107.001 69.1709 105.773C69.1709 104.544 68.1762 103.551 66.9428 103.551Z" fill="#D8D8D8"/>
<path d="M79.8901 0C78.6568 0 77.6641 0.992741 77.6641 2.22108C77.6641 3.45244 78.6568 4.44921 79.8901 4.44921C81.1155 4.44921 82.1122 3.45144 82.1122 2.22108C82.1122 0.991734 81.1144 0 79.8901 0Z" fill="#D8D8D8"/>
<path d="M79.8901 12.9414C78.6568 12.9414 77.6641 13.9392 77.6641 15.1695C77.6641 16.3969 78.6568 17.3906 79.8901 17.3906C81.1155 17.3906 82.1122 16.3969 82.1122 15.1695C82.1122 13.9392 81.1144 12.9414 79.8901 12.9414Z" fill="#D8D8D8"/>
<path d="M79.8901 25.8867C78.6568 25.8867 77.6641 26.8795 77.6641 28.1098C77.6641 29.3402 78.6568 30.3339 79.8901 30.3339C81.1155 30.3339 82.1122 29.3392 82.1122 28.1098C82.1122 26.8795 81.1144 25.8867 79.8901 25.8867Z" fill="#D8D8D8"/>
<path d="M79.8901 38.8301C78.6568 38.8301 77.6641 39.8248 77.6641 41.0542C77.6641 42.2845 78.6568 43.2773 79.8901 43.2773C81.1155 43.2773 82.1122 42.2845 82.1122 41.0542C82.1122 39.8258 81.1144 38.8301 79.8901 38.8301Z" fill="#D8D8D8"/>
<path d="M79.8901 51.7754C78.6568 51.7754 77.6641 52.7681 77.6641 53.9975C77.6641 55.2278 78.6568 56.2206 79.8901 56.2206C81.1155 56.2206 82.1122 55.2288 82.1122 53.9975C82.1122 52.7681 81.1144 51.7754 79.8901 51.7754Z" fill="#D8D8D8"/>
<path d="M79.8901 64.7207C78.6568 64.7207 77.6641 65.7134 77.6641 66.9438C77.6641 68.1681 78.6568 69.1709 79.8901 69.1709C81.1155 69.1709 82.1122 68.1671 82.1122 66.9438C82.1122 65.7134 81.1144 64.7207 79.8901 64.7207Z" fill="#D8D8D8"/>
<path d="M79.8901 77.6621C78.6568 77.6621 77.6641 78.6589 77.6641 79.8892C77.6641 81.1146 78.6568 82.1123 79.8901 82.1123C81.1155 82.1123 82.1122 81.1146 82.1122 79.8892C82.1122 78.6599 81.1144 77.6621 79.8901 77.6621Z" fill="#D8D8D8"/>
<path d="M79.8901 90.6094C78.6568 90.6094 77.6641 91.6011 77.6641 92.8305C77.6641 94.0608 78.6568 95.0576 79.8901 95.0576C81.1155 95.0576 82.1122 94.0598 82.1122 92.8305C82.1122 91.6011 81.1144 90.6094 79.8901 90.6094Z" fill="#D8D8D8"/>
<path d="M79.8901 103.551C78.6568 103.551 77.6641 104.544 77.6641 105.773C77.6641 107.002 78.6568 108 79.8901 108C81.1155 108 82.1122 107.001 82.1122 105.773C82.1122 104.544 81.1144 103.551 79.8901 103.551Z" fill="#D8D8D8"/>
</svg>
