<svg width="1440" height="222" viewBox="0 0 1440 222" fill="none" xmlns="http://www.w3.org/2000/svg">
<path d="M-63 238.628L27.1415 118.19L-56.3228 3.37226H-2.72993L57.8916 91.0511L120.27 3.37226H171.052L85.8302 118.832L175.62 238.628H120.622L55.6073 147.095L-10.8128 238.628H-63Z" fill="url(#paint0_linear_3868_209)"/>
<path d="M182.579 238.628V2.72993H277.992C290.994 2.72993 302.24 3.26521 311.729 4.33577C321.334 5.40633 330.413 7.38686 338.964 10.2774C347.633 13.0608 354.603 16.8613 359.874 21.6788C365.263 26.4963 369.48 32.8127 372.526 40.6277C375.689 48.3358 377.27 57.4891 377.27 68.0876C377.27 99.3479 361.749 119.903 330.706 129.752C337.032 136.282 344.88 148.38 354.252 166.044L392.557 238.628H340.546L310.499 177.124C299.136 155.071 292.107 142.01 289.413 137.942C287.422 137.835 280.803 137.781 269.557 137.781L229.67 137.46V238.628H182.579ZM282.209 106.307C300.483 106.307 313.603 103.363 321.569 97.4744C329.534 91.4793 333.517 81.8978 333.517 68.7299C333.517 57.1679 329.476 48.6569 321.393 43.1971C313.31 37.7372 300.952 35.0073 284.317 35.0073H229.67V106.146C231.427 106.146 240.154 106.2 255.852 106.307C271.549 106.307 280.334 106.307 282.209 106.307Z" fill="url(#paint1_linear_3868_209)"/>
<path d="M486.776 238.628V2.72993H572.524C592.79 2.72993 610.127 5.13869 624.536 9.9562C638.944 14.6667 650.307 22.3747 658.624 33.0803C667.059 43.7859 671.276 57.2214 671.276 73.3869C671.276 84.6277 669.694 94.6375 666.531 103.416C663.369 112.088 658.156 120.01 650.893 127.182C643.63 134.248 633.38 139.708 620.143 143.562C607.023 147.416 591.15 149.343 572.524 149.343C556.593 149.343 543.648 148.915 533.691 148.058V238.628H486.776ZM567.428 117.869C577.151 117.869 585.586 117.012 592.731 115.299C599.994 113.586 605.617 111.392 609.6 108.715C613.7 106.039 616.921 102.72 619.264 98.7591C621.724 94.798 623.306 90.9976 624.008 87.3577C624.828 83.6107 625.239 79.4355 625.239 74.8321C625.239 61.8783 620.67 52.0292 611.533 45.2847C602.396 38.5401 589.51 35.1679 572.876 35.1679H533.691V117.547C535.097 117.762 546.343 117.869 567.428 117.869Z" fill="url(#paint2_linear_3868_209)"/>
<path d="M688.953 238.628V3.37226H736.571V203.942H844.284L842.878 238.628H688.953Z" fill="url(#paint3_linear_3868_209)"/>
<path d="M849.01 238.628L943.72 3.21168H995.556L1088.86 238.628H1040.01L1014.53 172.146H924.392L898.738 238.628H849.01ZM936.34 139.708H1002.41C981.323 77.9367 970.488 46.0341 969.902 44L936.34 139.708Z" fill="url(#paint4_linear_3868_209)"/>
<path d="M1186.62 242C1149.02 242 1119.21 231.187 1097.19 209.562C1075.16 187.937 1064.15 158.068 1064.15 119.956C1064.15 83.7713 1075.63 54.7591 1098.59 32.9197C1121.67 10.9732 1151.83 0 1189.08 0C1219.19 0 1244.67 6.36983 1265.52 19.1095L1250.59 52.0292C1230.55 40.7883 1210.41 35.1679 1190.14 35.1679C1166.48 35.1679 1147.73 42.983 1133.91 58.6131C1120.2 74.1363 1113.35 95.0122 1113.35 121.241C1113.35 148.433 1119.97 169.47 1133.21 184.35C1146.56 199.231 1165.54 206.672 1190.14 206.672C1211.69 206.672 1233.07 201.747 1254.28 191.898L1260.6 225.942C1240.92 236.647 1216.26 242 1186.62 242Z" fill="url(#paint5_linear_3868_209)"/>
<path d="M1282.03 238.628V3.37226H1438.07L1436.13 37.8978H1329.65V98.5985H1430.86V133.124H1329.65V203.942H1440L1438.42 238.628H1282.03Z" fill="url(#paint6_linear_3868_209)"/>
<defs>
<linearGradient id="paint0_linear_3868_209" x1="688.5" y1="0" x2="688.5" y2="242" gradientUnits="userSpaceOnUse">
<stop stop-color="#04382E"/>
<stop offset="0.423" stop-color="#066553"/>
<stop offset="0.718" stop-color="#087E68"/>
<stop offset="1" stop-color="#0BB696"/>
</linearGradient>
<linearGradient id="paint1_linear_3868_209" x1="688.5" y1="0" x2="688.5" y2="242" gradientUnits="userSpaceOnUse">
<stop stop-color="#04382E"/>
<stop offset="0.423" stop-color="#066553"/>
<stop offset="0.718" stop-color="#087E68"/>
<stop offset="1" stop-color="#0BB696"/>
</linearGradient>
<linearGradient id="paint2_linear_3868_209" x1="688.5" y1="0" x2="688.5" y2="242" gradientUnits="userSpaceOnUse">
<stop stop-color="#04382E"/>
<stop offset="0.423" stop-color="#066553"/>
<stop offset="0.718" stop-color="#087E68"/>
<stop offset="1" stop-color="#0BB696"/>
</linearGradient>
<linearGradient id="paint3_linear_3868_209" x1="688.5" y1="0" x2="688.5" y2="242" gradientUnits="userSpaceOnUse">
<stop stop-color="#04382E"/>
<stop offset="0.423" stop-color="#066553"/>
<stop offset="0.718" stop-color="#087E68"/>
<stop offset="1" stop-color="#0BB696"/>
</linearGradient>
<linearGradient id="paint4_linear_3868_209" x1="688.5" y1="0" x2="688.5" y2="242" gradientUnits="userSpaceOnUse">
<stop stop-color="#04382E"/>
<stop offset="0.423" stop-color="#066553"/>
<stop offset="0.718" stop-color="#087E68"/>
<stop offset="1" stop-color="#0BB696"/>
</linearGradient>
<linearGradient id="paint5_linear_3868_209" x1="688.5" y1="0" x2="688.5" y2="242" gradientUnits="userSpaceOnUse">
<stop stop-color="#04382E"/>
<stop offset="0.423" stop-color="#066553"/>
<stop offset="0.718" stop-color="#087E68"/>
<stop offset="1" stop-color="#0BB696"/>
</linearGradient>
<linearGradient id="paint6_linear_3868_209" x1="688.5" y1="0" x2="688.5" y2="242" gradientUnits="userSpaceOnUse">
<stop stop-color="#04382E"/>
<stop offset="0.423" stop-color="#066553"/>
<stop offset="0.718" stop-color="#087E68"/>
<stop offset="1" stop-color="#0BB696"/>
</linearGradient>
</defs>
</svg>
